<?xml version="1.0" encoding="utf-8"?>
<!-- Generator: Adobe Illustrator 23.0.1, SVG Export Plug-In . SVG Version: 6.00 Build 0)  -->
<svg version="1.1" xmlns="http://www.w3.org/2000/svg" xmlns:xlink="http://www.w3.org/1999/xlink" x="0px" y="0px"
	 viewBox="0 0 966.44 917" style="enable-background:new 0 0 966.44 917;" xml:space="preserve">
<style type="text/css">
	.st0{fill:#D8EDF2;}
	.st1{fill:#B7DEE6;}
	.st2{fill:#E6F2F6;}
	.st3{fill:#FFFFFF;}
	.st4{fill:#87C1D3;}
	.st5{fill:#48B9C1;}
	.st6{fill:#813546;}
	.st7{fill:#778AB0;}
	.st8{opacity:0.5;}
	.st9{clip-path:url(#SVGID_2_);}
	.st10{clip-path:url(#SVGID_4_);fill:#813546;}
	.st11{fill:#DF0A17;}
	.st12{fill:#803645;}
	.st13{clip-path:url(#SVGID_6_);}
	.st14{clip-path:url(#SVGID_8_);fill:#813546;}
	.st15{clip-path:url(#SVGID_10_);}
	.st16{clip-path:url(#SVGID_12_);fill:#813546;}
	.st17{clip-path:url(#SVGID_14_);}
	.st18{clip-path:url(#SVGID_16_);fill:#813546;}
	.st19{fill:none;stroke:#87C1D3;stroke-width:1.4344;stroke-miterlimit:10;stroke-dasharray:2.152,2.152;}
	.st20{fill:#FDCB0E;}
	.st21{clip-path:url(#SVGID_18_);fill:#F2A08C;}
	.st22{opacity:0.5;clip-path:url(#SVGID_18_);}
	.st23{clip-path:url(#SVGID_20_);}
	.st24{clip-path:url(#SVGID_22_);fill:#F2A08C;}
	.st25{clip-path:url(#SVGID_24_);}
	.st26{clip-path:url(#SVGID_26_);fill:#F2A08C;}
	.st27{clip-path:url(#SVGID_28_);}
	.st28{clip-path:url(#SVGID_30_);fill:#F2A08C;}
	.st29{clip-path:url(#SVGID_18_);fill:#9D1753;}
	.st30{clip-path:url(#SVGID_18_);fill:#FFFFFF;}
	.st31{clip-path:url(#SVGID_18_);fill:#E6F2F6;}
	.st32{clip-path:url(#SVGID_18_);fill:#D8EDF2;}
	.st33{clip-path:url(#SVGID_18_);fill:#DF0A17;}
	.st34{clip-path:url(#SVGID_18_);fill:none;stroke:#B7DEE6;stroke-width:0.9216;stroke-miterlimit:10;}
	.st35{clip-path:url(#SVGID_18_);fill:#E11212;}
	.st36{clip-path:url(#SVGID_18_);fill:#87C1D3;}
	.st37{clip-path:url(#SVGID_18_);fill:#778AB0;}
	.st38{clip-path:url(#SVGID_32_);}
	.st39{clip-path:url(#SVGID_34_);fill:#F2A08C;}
	.st40{fill:none;stroke:#DF0A17;stroke-width:0.8536;stroke-linejoin:round;stroke-miterlimit:10;}
	.st41{fill:none;stroke:#DF0A17;stroke-width:1.076;stroke-linecap:round;stroke-linejoin:round;stroke-miterlimit:10;}
	.st42{fill:#9D1753;}
	.st43{fill:#BB4073;}
	.st44{fill:#F6BEB4;}
	.st45{opacity:0.6;}
	.st46{clip-path:url(#SVGID_36_);}
	.st47{clip-path:url(#SVGID_38_);fill:#F6C1B7;}
	.st48{fill:#E11212;}
	.st49{fill:#F6C1B7;}
	.st50{clip-path:url(#SVGID_40_);}
	.st51{clip-path:url(#SVGID_42_);fill:#F6C1B7;}
	.st52{fill:none;stroke:#FFFFFF;stroke-width:0.7248;stroke-linejoin:round;stroke-miterlimit:10;}
	.st53{fill:none;stroke:#FFFFFF;stroke-width:0.5616;stroke-linejoin:round;stroke-miterlimit:10;}
	.st54{fill:none;stroke:#DF0A17;stroke-width:1.076;stroke-linejoin:round;stroke-miterlimit:10;}
	.st55{fill:none;stroke:#FFFFFF;stroke-width:0.528;stroke-linecap:square;stroke-linejoin:round;stroke-miterlimit:10;}
	.st56{fill:none;stroke:#FFFFFF;stroke-width:0.528;stroke-linecap:round;stroke-linejoin:round;stroke-miterlimit:10;}
	.st57{clip-path:url(#SVGID_44_);fill:#B7DEE6;}
	.st58{clip-path:url(#SVGID_44_);fill:#87C1D3;}
	.st59{clip-path:url(#SVGID_44_);fill:#FFFFFF;}
	.st60{clip-path:url(#SVGID_46_);}
	.st61{clip-path:url(#SVGID_48_);fill:#813546;}
	.st62{clip-path:url(#SVGID_50_);}
	.st63{clip-path:url(#SVGID_52_);fill:#813546;}
	.st64{clip-path:url(#SVGID_54_);}
	.st65{clip-path:url(#SVGID_56_);fill:#813546;}
	.st66{clip-path:url(#SVGID_58_);}
	.st67{clip-path:url(#SVGID_60_);fill:#813546;}
	.st68{clip-path:url(#SVGID_62_);fill:#F2A08C;}
	.st69{opacity:0.5;clip-path:url(#SVGID_62_);}
	.st70{clip-path:url(#SVGID_64_);}
	.st71{clip-path:url(#SVGID_66_);fill:#F2A08C;}
	.st72{clip-path:url(#SVGID_68_);}
	.st73{clip-path:url(#SVGID_70_);fill:#F2A08C;}
	.st74{clip-path:url(#SVGID_72_);}
	.st75{clip-path:url(#SVGID_74_);fill:#F2A08C;}
	.st76{clip-path:url(#SVGID_62_);fill:#9D1753;}
	.st77{clip-path:url(#SVGID_62_);fill:#FFFFFF;}
	.st78{clip-path:url(#SVGID_62_);fill:#E6F2F6;}
	.st79{clip-path:url(#SVGID_62_);fill:#D8EDF2;}
	.st80{clip-path:url(#SVGID_62_);fill:#DF0A17;}
	.st81{clip-path:url(#SVGID_62_);fill:none;stroke:#B7DEE6;stroke-width:0.9216;stroke-miterlimit:10;}
	.st82{clip-path:url(#SVGID_62_);fill:#E11212;}
	.st83{clip-path:url(#SVGID_62_);fill:#87C1D3;}
	.st84{clip-path:url(#SVGID_62_);fill:#778AB0;}
	.st85{clip-path:url(#SVGID_76_);}
	.st86{clip-path:url(#SVGID_78_);fill:#F2A08C;}
	.st87{clip-path:url(#SVGID_80_);}
	.st88{clip-path:url(#SVGID_82_);fill:#F6C1B7;}
	.st89{clip-path:url(#SVGID_84_);}
	.st90{clip-path:url(#SVGID_86_);fill:#F6C1B7;}
	.st91{clip-path:url(#SVGID_88_);fill:#B7DEE6;}
	.st92{clip-path:url(#SVGID_88_);fill:#87C1D3;}
	.st93{clip-path:url(#SVGID_88_);fill:#FFFFFF;}
	.st94{fill-rule:evenodd;clip-rule:evenodd;fill:#FFFEFF;}
	.st95{fill:#FFFEFF;}
</style>
<g id="og">
	<g>
		<rect x="-1230.06" y="515.36" class="st0" width="194.94" height="132.47"/>
		<g>
			<path class="st0" d="M-1264.94,196.87c0,6.86,5.56,12.42,12.42,12.42c6.86,0,12.42-5.56,12.42-12.42
				c0-6.86-5.56-12.42-12.42-12.42C-1259.38,184.45-1264.94,190.01-1264.94,196.87"/>
			<path class="st0" d="M-1380.15,192.26c0,9.41,7.63,17.04,17.04,17.04c9.41,0,17.04-7.63,17.04-17.04s-7.63-17.04-17.04-17.04
				C-1372.53,175.22-1380.15,182.85-1380.15,192.26"/>
			<path class="st0" d="M-1314.74,179.52c0,9.41,7.63,17.04,17.04,17.04c9.41,0,17.04-7.63,17.04-17.04s-7.63-17.04-17.04-17.04
				C-1307.11,162.48-1314.74,170.11-1314.74,179.52"/>
			<path class="st0" d="M-1364.41,167.17c0,16.97,13.76,30.73,30.73,30.73c16.97,0,30.73-13.76,30.73-30.73
				s-13.76-30.73-30.73-30.73C-1350.65,136.44-1364.41,150.2-1364.41,167.17"/>
			<polygon class="st0" points="-1364.41,175.23 -1364.41,209.29 -1252.52,209.29 -1252.52,184.45 			"/>
			<path class="st0" d="M-505.58,238.89c0,8.86,7.18,16.04,16.04,16.04c8.86,0,16.04-7.18,16.04-16.04s-7.18-16.04-16.04-16.04
				C-498.4,222.84-505.58,230.02-505.58,238.89"/>
			<path class="st0" d="M-654.41,232.92c0,12.15,9.85,22,22,22c12.15,0,22-9.85,22-22c0-12.15-9.85-22-22-22
				C-644.55,210.92-654.41,220.77-654.41,232.92"/>
			<path class="st0" d="M-569.91,216.47c0,12.15,9.85,22,22,22c12.15,0,22-9.85,22-22c0-12.15-9.85-22-22-22
				C-560.06,194.46-569.91,204.32-569.91,216.47"/>
			<path class="st0" d="M-634.07,200.53c0,21.92,17.77,39.7,39.7,39.7c21.93,0,39.7-17.77,39.7-39.7s-17.77-39.7-39.7-39.7
				C-616.3,160.83-634.07,178.6-634.07,200.53"/>
			<polygon class="st0" points="-634.07,210.93 -634.07,254.93 -489.54,254.93 -489.54,222.84 			"/>
			<path class="st1" d="M-589.52,233.58h-191.28c-6.17,0-11.16,5-11.16,11.17v227.41c0,6.17,5,11.17,11.16,11.17h191.28
				c6.17,0,11.17-5,11.17-11.17V244.74C-578.35,238.58-583.35,233.58-589.52,233.58"/>
			<path class="st2" d="M-599.53,362.57l-30.92,63.31c-6.42,13.15-7.9,28.17-4.17,42.32l4.55,17.25l1.7,6.46
				c-5.13,1.99-11.25,4.11-17.9,6.17c-1.06,0.33-2.13,0.66-3.17,0.96l-4.78-6.7l-26.36-36.96c-15.79-22.13-15.02-52.07,1.91-73.37
				c11.37-14.32,15.42-32.46,12.13-49.51c-1.81-9.4-5.84-18.45-12.1-26.35l-54.8-69.09c-6.18-7.76-4.42-19.12,3.79-24.67
				c1.95-1.32,4.1-2.2,6.32-2.62c4.8-0.92,9.89,0.26,13.88,3.45l93.33,75.06C-593.91,306.13-587.03,336.97-599.53,362.57"/>
			<path class="st3" d="M-625.18,351.66l-23.79,66.31c-4.94,13.77-4.77,28.87,0.49,42.53l10.4,26.98l2.71,7.02
				c-3.39,1.18-7.05,2.39-10.87,3.58c-2.38,0.74-4.72,1.43-6.99,2.07l-5.59-6.25l-36.73-41.11c-18.13-20.27-20.63-50.1-6.14-73.14
				c9.73-15.47,11.76-33.95,6.63-50.54c-2.83-9.14-7.83-17.7-14.92-24.86l-62.05-62.68c-6.98-7.03-6.48-18.52,1.07-24.94
				c1.79-1.53,3.83-2.63,5.99-3.3c4.66-1.44,9.86-0.83,14.18,1.92l100.98,64.38C-625.79,294.95-615.57,324.84-625.18,351.66"/>
			<path class="st3" d="M-556.83,23.83l-142.98,247.64c-77.57,134.35-220.92,217.11-376.05,217.11h-358.82l142.98-247.64
				c77.57-134.35,220.91-217.11,376.05-217.11H-556.83z"/>
			<rect x="-902.33" y="62.07" class="st0" width="46.66" height="125.3"/>
			<rect x="-946.75" y="73.22" class="st0" width="46.66" height="125.3"/>
			<rect x="-754.43" y="21.55" class="st0" width="39.05" height="149.29"/>
			<path class="st3" d="M-766.25,170.84h11.82V21.55c-7.12,2.75-11.82,9.6-11.82,17.24V170.84z"/>
			<polygon class="st0" points="-823.24,151.47 -811.42,151.47 -811.42,12.23 -823.24,16.8 			"/>
			<polygon class="st3" points="-914.15,170.84 -902.33,170.84 -902.33,62.07 -914.15,66.64 			"/>
			<rect x="-771.37" y="62.07" class="st0" width="29.61" height="108.78"/>
			<rect x="-747.67" y="66.73" class="st0" width="32.28" height="104.11"/>
			<rect x="-811.42" y="12.23" class="st0" width="25.05" height="139.24"/>
			<rect x="-836.61" y="66.74" class="st0" width="32.44" height="104.11"/>
			<rect x="-849.77" y="49.18" class="st0" width="32.44" height="121.67"/>
			<rect x="-890.52" y="100.89" class="st0" width="28.94" height="69.96"/>
			<path class="st0" d="M-1192.7,134.2c0,14.96-12.13,27.09-27.09,27.09c-14.96,0-27.09-12.13-27.09-27.09s12.13-27.09,27.09-27.09
				C-1204.83,107.11-1192.7,119.24-1192.7,134.2"/>
			<path class="st0" d="M-941.42,124.14c0,20.52-16.63,37.16-37.16,37.16c-20.52,0-37.15-16.64-37.15-37.16s16.63-37.16,37.15-37.16
				C-958.05,86.98-941.42,103.62-941.42,124.14"/>
			<path class="st0" d="M-1084.08,96.35c0,20.52-16.63,37.16-37.16,37.16c-20.52,0-37.16-16.64-37.16-37.16s16.64-37.16,37.16-37.16
				C-1100.72,59.2-1084.08,75.83-1084.08,96.35"/>
			<path class="st0" d="M-975.75,69.43c0,37.02-30.01,67.03-67.03,67.03c-37.02,0-67.03-30.01-67.03-67.03s30.01-67.03,67.03-67.03
				C-1005.76,2.4-975.75,32.41-975.75,69.43"/>
			<polygon class="st0" points="-975.75,86.99 -975.75,161.3 -1219.79,161.3 -1219.79,107.12 			"/>
			<path class="st0" d="M-1268.93,779.69h-34.22c-29.74,0-49.38-30.92-36.74-57.84l7.96-16.96c8.14-17.33,3.06-37.99-12.19-49.57
				l-35.87-27.25c-24.3-18.46-20.31-56.13,7.33-69.08c26.3-12.32,31.52-47.48,9.94-66.91l-9.3-8.38
				c-25.05-22.56-13.27-64.06,19.9-70.1l73.82-13.42c26.7-4.86,50.56,17.36,47.61,44.34l-1.15,10.54
				c-2.3,21.09,12.02,40.39,32.87,44.3l2.05,0.38c25.86,4.85,40.34,32.63,29.51,56.61l-39.87,88.24
				c-6.37,14.09-4.17,30.57,5.65,42.51l21.55,26.18c21.8,26.48,2.96,66.39-31.34,66.39H-1268.93z"/>
			<path class="st1" d="M-612.8,233.64h-194.33l4.11-7.09l0.63-1.1l41.99-72.74h0.01l20.52-35.54l13.33-23.09
				c7.37-12.76,25.8-12.76,33.17,0l62.68,108.58L-612.8,233.64z"/>
			<path class="st4" d="M-612.8,233.64h-191.71c0.62-2.57,1.34-5.32,2.12-8.19l41.99-72.74h0.01l7.76-13.45
				c4.06,6.73,59.66,53.76,113.35,61.95c3.03,0.46,5.88,0.94,8.58,1.43L-612.8,233.64z"/>
			<path class="st3" d="M-864.9,309.91c0,50.5-40.94,91.44-91.44,91.44c-50.5,0-91.44-40.94-91.44-91.44s40.94-91.44,91.44-91.44
				C-905.84,218.47-864.9,259.41-864.9,309.91"/>
			<path class="st0" d="M-478.17,422.83l-192.15,332.8c-46.09,79.83-131.28,129.01-223.46,129.01h-161.01
				c-5.23,0-10.26,1.4-14.64,3.92c-4.38,2.53-8.1,6.19-10.72,10.72c-5.22,9.06-14.89,14.63-25.34,14.63h-308.97l181.03-313.56
				h175.66l102.5-177.53H-478.17z"/>
			<path class="st3" d="M-575.38,472.63c-1.67,23.35-6.08,46.65-12.88,69.34c-6.77,22.71-16.02,44.8-27.4,65.85
				c-22.72,42.16-54.63,79.66-92.62,109.8c-4.68,3.87-9.65,7.34-14.55,10.94l-3.69,2.68l-3.79,2.52l-7.6,5.04
				c-2.5,1.73-5.16,3.22-7.76,4.79l-7.85,4.67c-2.64,1.51-5.35,2.9-8.02,4.36c-2.69,1.43-5.36,2.91-8.07,4.29
				c-21.74,11.04-44.69,19.75-68.27,26.25c-23.58,6.5-47.85,10.54-72.28,12.21c-24.43,1.66-49.01,0.85-73.32-2.29
				c-48.62-6.29-95.97-22.48-138.12-47.29c-21.05-12.43-40.95-26.79-59.05-43.11l-6.78-6.13c-1.15-1-2.2-2.1-3.29-3.17l-3.24-3.22
				l-6.47-6.44c-1.1-1.05-2.09-2.21-3.13-3.32l-3.07-3.38l-6.11-6.77c-1.04-1.11-1.97-2.32-2.94-3.48l-2.89-3.52l-5.77-7.04
				c-0.99-1.15-1.85-2.41-2.77-3.62l-2.72-3.65c-29.01-38.89-50-83.47-61.08-130.05l-2.01-8.74l-0.5-2.18
				c-0.15-0.73-0.27-1.47-0.4-2.21l-0.79-4.41c-1.01-5.89-2.23-11.72-2.8-17.66l-1.07-8.86c-0.16-1.48-0.39-2.94-0.49-4.43
				l-0.31-4.45l-0.6-8.88l-0.28-4.44l-0.06-4.45l-0.11-8.88l-0.06-4.43c-0.04-1.47,0.1-2.96,0.14-4.43l0.39-8.85l0.19-4.41
				c0.05-1.47,0.13-2.94,0.26-4.41c0.95-11.74,2.44-23.41,4.68-34.9c-0.68,46.79,6.42,92.94,21.35,135.94
				c14.89,43,37.55,82.8,66.45,117.02l2.69,3.22c0.91,1.06,1.76,2.18,2.73,3.19l5.68,6.18l2.84,3.09c0.95,1.02,1.86,2.08,2.88,3.04
				l5.96,5.89l2.97,2.95c0.99,0.98,1.94,2,3,2.92l6.19,5.63l3.09,2.82c1.03,0.93,2.04,1.9,3.13,2.76l6.44,5.32
				c17.26,14.07,35.66,26.7,55.14,37.33c38.88,21.38,81.62,35.38,125.49,41.09l8.23,1.06c1.37,0.21,2.75,0.29,4.13,0.4l4.14,0.32
				c5.52,0.41,11.03,0.96,16.57,1l8.3,0.25c1.38,0.03,2.77,0.12,4.15,0.1l4.15-0.08c5.54-0.14,11.08-0.07,16.61-0.52
				c22.12-1.17,44.12-4.46,65.68-9.66c21.57-5.2,42.62-12.57,62.95-21.66c2.53-1.16,5.02-2.41,7.53-3.6
				c2.5-1.23,5.04-2.38,7.52-3.66l7.37-3.96l3.69-1.97c1.25-0.63,2.45-1.34,3.65-2.05l7.23-4.24l3.62-2.12l3.52-2.27
				c4.68-3.05,9.46-5.99,13.96-9.32c36.7-25.66,69.04-58.16,94.51-95.91c12.8-18.83,23.91-38.93,33.26-59.98
				C-588.59,517.35-581.13,495.32-575.38,472.63"/>
			<path class="st3" d="M-625.18,351.66l-23.79,66.31c-4.94,13.77-4.77,28.87,0.49,42.53l38.73,77.57c0,0-4.59,1.69-6.86,2.32
				l-78.95-87.61c-18.13-20.27-20.63-50.1-6.14-73.14c9.73-15.47,11.76-33.95,6.63-50.54c-2.83-9.14-7.83-17.7-14.92-24.86
				l-62.05-62.68c-6.98-7.03-6.48-18.52,1.07-24.94c1.79-1.53,3.83-2.63,5.99-3.3c4.66-1.44,9.86-0.83,14.18,1.92l100.98,64.38
				C-625.79,294.95-615.57,324.84-625.18,351.66"/>
			<path class="st1" d="M-698.14,233.64h-177.89l73.76-127.75c6.75-11.69,23.61-11.69,30.36,0l19.27,33.37h0.01L-698.14,233.64z"/>
			<path class="st4" d="M-720.54,545.59l0.32,37.14c0.2,22.6,21.73,38.89,43.54,32.93l121.45-33.21l-15.36-74.13l-22.54,1.98
				c-15.94,1.4-31.25,6.86-44.48,15.86l-57.76,39.31l0.11-25.78L-720.54,545.59z"/>
			<path class="st5" d="M-528.57,439.74c0.62,3.52,0.77,7.1,0.47,10.63c-0.82,9.57-4.96,18.79-12.09,25.83
				c-1.6,1.58-3.36,3.05-5.26,4.38c-3.49,2.45-7.23,4.29-11.08,5.53c-16.72,5.39-35.68-0.41-46.31-15.53
				c-1.21-1.72-2.27-3.5-3.18-5.33c-3.68-7.34-4.96-15.42-4.03-23.21c0.05-0.37,0.09-0.75,0.15-1.12
				c0.86-5.92,3.01-11.64,6.36-16.72c2.76-4.2,6.35-7.95,10.7-11.02c18.61-13.09,44.31-8.61,57.4,10c2.51,3.56,4.37,7.39,5.6,11.34
				C-529.3,436.25-528.88,437.99-528.57,439.74"/>
			<path class="st6" d="M-703.49,551.62l-17.04-6.03l-6.18-21.71c-0.99-4.24-0.49-8.69,1.41-12.6l0.89-1.84
				c0.03-1.61-0.09-3.22-0.37-4.79c-0.29-1.66-0.75-3.3-1.38-4.88l-0.36-0.91c-0.6-1.52,0.14-3.23,1.66-3.82l4.81-1.47
				L-703.49,551.62z"/>
			<path class="st1" d="M-663.98,591.66c0.59,3.11-2.99,5.29-5.48,3.35c-2.78-2.16-6.17-4.79-9.78-7.6
				c-11.3-8.77-24.75-19.22-28.57-22.16c-0.67-0.52-1.12-1.27-1.28-2.1L-729.6,451.7c-0.5-2.69,2.21-4.86,4.73-3.78l35.08,15.02
				c1.05,0.45,1.81,1.39,2.03,2.52l8.34,44.26l9.82,52.09l5.51,29.26L-663.98,591.66z"/>
			<path class="st7" d="M-664.09,591.06l-28.75-33.41c-1.84-2.27-2.75-5.2-2.49-7.98l0.56-6.13l21.03-3.69l4.14,21.94
				L-664.09,591.06z"/>
			<path class="st6" d="M-672.98,511.86l4.4-5.44c0.44-0.54,0.56-1.28,0.32-1.94c-0.38-1.02-1.29-1.76-2.37-1.91
				c-1.39-0.19-3.38-0.09-5.32,1.32C-679.43,506.44-672.98,511.86-672.98,511.86"/>
			<path class="st6" d="M-678.35,499.45L-678.35,499.45c-1.49,0.31-2.48,1.73-2.26,3.24l1.84,12.43l-16.22-17
				c-1.06-1.11-2.7-1.53-4.12-0.93c-1.82,0.78-2.66,2.85-1.94,4.66l1.5,3.74c0.07,0.18-0.15,0.33-0.29,0.19
				c-0.51-0.72-1.37-1.11-2.24-1c-2.86,0.35-3.8,3.16-2.51,4.99l4.29,6.11l-0.86,0.96c-0.72,0.8-0.96,1.93-0.63,2.96l6.53,19.88
				l-0.32,9.69c-0.08,2.51,0.96,4.93,2.83,6.61l27.27,20.13l17.87-13.84l-9.48-27.48c-1.09-3.15-2.69-6.09-4.74-8.71l-9.98-12.77
				l-3.17-11.78C-675.38,500.05-676.86,499.15-678.35,499.45"/>
			<g class="st8">
				<g>
					<defs>
						<rect id="SVGID_1_" x="-679.54" y="509.83" width="12.77" height="15.99"/>
					</defs>
					<clipPath id="SVGID_2_">
						<use xlink:href="#SVGID_1_"  style="overflow:visible;"/>
					</clipPath>
					<g class="st9">
						<defs>
							<rect id="SVGID_3_" x="-679.55" y="509.83" width="12.77" height="15.99"/>
						</defs>
						<clipPath id="SVGID_4_">
							<use xlink:href="#SVGID_3_"  style="overflow:visible;"/>
						</clipPath>
						<path class="st10" d="M-679.55,509.83c4.89,5.73,12.77,15.99,12.77,15.99c-4.95-0.25-11.99-10.7-11.99-10.7L-679.55,509.83z"
							/>
					</g>
				</g>
			</g>
			<path class="st1" d="M-520.41,610.45l-38.99,43.93c-18.05,20.56-50.95,17.31-64.63-6.38l-41.79-72.39l14.28-24.72L-520.41,610.45
				z"/>
			<path class="st11" d="M-549.04,450.73c0,0-4.82,23.56,0.84,32.47c0,0,14.9-8.8,14.19-24.71
				C-534.72,442.58-549.04,450.73-549.04,450.73"/>
			<path class="st12" d="M-539.4,467.46c2.79,1.69,3.14,6.24,0.76,10.16c-2.37,3.93-6.56,5.74-9.35,4.05
				c-2.79-1.69-3.14-6.24-0.77-10.16C-546.38,467.59-542.19,465.78-539.4,467.46"/>
			<g class="st8">
				<g>
					<defs>
						<rect id="SVGID_5_" x="-594.2" y="502.83" width="2.69" height="0.72"/>
					</defs>
					<clipPath id="SVGID_6_">
						<use xlink:href="#SVGID_5_"  style="overflow:visible;"/>
					</clipPath>
					<g class="st13">
						<defs>
							<rect id="SVGID_7_" x="-594.2" y="502.83" width="2.69" height="0.72"/>
						</defs>
						<clipPath id="SVGID_8_">
							<use xlink:href="#SVGID_7_"  style="overflow:visible;"/>
						</clipPath>
						<path class="st14" d="M-591.52,502.83c-0.93,0.3-1.82,0.54-2.68,0.72C-593.3,503.32-592.41,503.08-591.52,502.83"/>
					</g>
				</g>
			</g>
			<path class="st6" d="M-546.9,479.58l0.05-0.02l-2.5,6.75l-15.63,42.38c-2.38,6.46-7.09,11.86-13.29,14.85
				c-0.05,0.02-0.08,0.04-0.13,0.07c-1.65,0.79-3.36,1.43-5.12,1.91c-2.53,0.69-5.05,1.02-7.48,1c-0.68,0-1.37-0.03-2.04-0.09
				c-0.32-0.03-0.65-0.06-0.96-0.09c-9.98-0.7-15.77-11.6-10.77-20.26l10.24-17.75l3.21-5.55c-0.07,0.02-0.13,0.04-0.19,0.06
				c-0.93,0.3-1.82,0.54-2.68,0.72c-0.64,0.15-1.27,0.26-1.88,0.35c-7.5,1.08-14.59-3.62-16.62-10.92
				c-1.17-4.23-2.32-9.61-1.84-13.26l-3.91,0.91l8.7-35.12c0.36-1.46,0.77-2.9,1.25-4.31c1.58-4.75,3.85-9.26,6.75-13.39l0.06-0.08
				c3.67-5.23,9.16-8.58,15.15-9.63c1.58-0.28,3.19-0.39,4.81-0.34c2.27,0.07,4.56,0.49,6.8,1.24c5.14,1.76,9.5,5.24,12.36,9.85
				l0.36,0.6l13.17,21.28l2.38,3.85C-541.9,462.27-542.03,471.99-546.9,479.58"/>
			<g class="st8">
				<g>
					<defs>
						<rect id="SVGID_9_" x="-594.53" y="492.72" width="26.76" height="15.6"/>
					</defs>
					<clipPath id="SVGID_10_">
						<use xlink:href="#SVGID_9_"  style="overflow:visible;"/>
					</clipPath>
					<g class="st15">
						<defs>
							<rect id="SVGID_11_" x="-594.53" y="492.72" width="26.76" height="15.6"/>
						</defs>
						<clipPath id="SVGID_12_">
							<use xlink:href="#SVGID_11_"  style="overflow:visible;"/>
						</clipPath>
						<path class="st16" d="M-567.77,492.74c-10.55,7.87-19.42,12.71-26.76,15.58l3.21-5.54c6.96-1.99,13.67-4.74,20.04-8.2
							l3.4-1.85L-567.77,492.74z"/>
					</g>
				</g>
			</g>
			<path class="st5" d="M-504.12,504c-8.83-16.31-25.73-69.47-25.73-69.47s-7.43-0.1-13.89,3.17
				c-6.67-19.18-26.49-26.03-37.64-24.07c-11.82,2.07-17.18,8.98-19.67,9.78c-2.5,0.8-8.69,17.1-8.7,22.09
				c0,0,7.17-21.24,24.46-21.98c14.86-0.64,28.21,14.81,32.81,34.55c4.62,23.72-3.94,47.85-31.86,66.11
				c-27.98,18.3-116.32,96.09-15.45,115.21C-498.91,658.5-479.08,550.25-504.12,504"/>
			<path class="st6" d="M-549.23,457.68c3.17,0.78,4.86,5.02,3.77,9.47c-1.09,4.46-4.54,7.44-7.71,6.66
				c-3.17-0.78-4.86-5.01-3.77-9.47C-555.85,459.89-552.4,456.91-549.23,457.68"/>
			<path class="st5" d="M-609.75,445.5c0,0,14.89-2.06,18.45-12.83l1.11-3.24c0,0,35.61,38.21,39.86,29.8
				c7.66-15.16-22.76-44.08-23.62-43.93c-0.86,0.15-21.95,5.68-22.82,7.29c-0.87,1.61-7.7,5.92-7.7,5.92L-609.75,445.5z"/>
			<g class="st8">
				<g>
					<defs>
						<rect id="SVGID_13_" x="-614.53" y="462.47" width="5.45" height="17.24"/>
					</defs>
					<clipPath id="SVGID_14_">
						<use xlink:href="#SVGID_13_"  style="overflow:visible;"/>
					</clipPath>
					<g class="st17">
						<defs>
							<rect id="SVGID_15_" x="-614.53" y="462.47" width="5.45" height="17.24"/>
						</defs>
						<clipPath id="SVGID_16_">
							<use xlink:href="#SVGID_15_"  style="overflow:visible;"/>
						</clipPath>
						<path class="st18" d="M-614.54,479.71l4.19-17.24C-610.35,462.47-605.59,475.28-614.54,479.71"/>
					</g>
				</g>
			</g>
			<line class="st19" x1="-667.85" y1="495.6" x2="-660.7" y2="483.2"/>
			<path class="st20" d="M-1351.72,637c0,6.24-5.05,11.29-11.29,11.29c-6.24,0-11.29-5.05-11.29-11.29
				c0-6.24,5.05-11.29,11.29-11.29C-1356.77,625.71-1351.72,630.77-1351.72,637"/>
		</g>
		<g>
			<defs>
				<path id="SVGID_17_" d="M-1233.42,600.34l-181.04,313.58h308.99c10.46,0,20.12-5.58,25.35-14.64
					c5.23-9.06,14.89-14.64,25.35-14.64h161.02c92.19,0,177.38-49.18,223.47-129.02l239.2-414.29L-716.25,35.25l-468.84-6.83
					L-1233.42,600.34z"/>
			</defs>
			<clipPath id="SVGID_18_">
				<use xlink:href="#SVGID_17_"  style="overflow:visible;"/>
			</clipPath>
			<polygon class="st21" points="-1130.78,345.28 -1154.38,548.38 -1078.65,696.38 -815.01,562.91 -966.13,255.68 			"/>
			<g class="st22">
				<g>
					<defs>
						<rect id="SVGID_19_" x="-1154.38" y="255.68" width="339.37" height="440.7"/>
					</defs>
					<clipPath id="SVGID_20_">
						<use xlink:href="#SVGID_19_"  style="overflow:visible;"/>
					</clipPath>
					<g class="st23">
						<defs>
							<rect id="SVGID_21_" x="-1154.38" y="255.68" width="339.37" height="440.7"/>
						</defs>
						<clipPath id="SVGID_22_">
							<use xlink:href="#SVGID_21_"  style="overflow:visible;"/>
						</clipPath>
						<polygon class="st24" points="-1130.78,345.28 -1154.38,548.38 -1078.65,696.38 -815.01,562.91 -966.13,255.68 						"/>
					</g>
				</g>
			</g>
			<path class="st21" d="M-1054.48,372l-28.65-62.18l-29.77,20.04c-14.31,9.63-25.37,23.36-31.73,39.39l-12.01,30.26
				c-2.65,6.68-2.17,14.2,1.31,20.48c8.33,15.04,29.32,16.69,39.9,3.13l33.13-42.46L-1054.48,372z"/>
			<path class="st21" d="M-1118.4,615.24l33.22,91.1c10.92,29.96,24.66,58.82,41.02,86.19l53.36,89.27l164.21-72.72l-158.77-270.06
				L-1118.4,615.24z"/>
			<path class="st21" d="M-1028.7,272.63l-51.53,55.96l-33.73-69.77c-7.52-15.55-14.24-31.48-19.95-47.77
				c-2.8-7.97-5.36-16.02-6.75-22.23c-1.91-8.54-3.33-17.08-3.34-23.74l0-5.76c-0.01-1.34,0.09-2.66,0.29-3.95
				c1.65-10.67,9.99-19.29,20.94-21.12c10.56-1.74,21.09,3.34,26.3,12.69l7.73,14.33L-1028.7,272.63z"/>
			<g class="st22">
				<g>
					<defs>
						<rect id="SVGID_23_" x="-1144.02" y="133.91" width="115.31" height="194.68"/>
					</defs>
					<clipPath id="SVGID_24_">
						<use xlink:href="#SVGID_23_"  style="overflow:visible;"/>
					</clipPath>
					<g class="st25">
						<defs>
							<rect id="SVGID_25_" x="-1144.02" y="133.91" width="115.31" height="194.68"/>
						</defs>
						<clipPath id="SVGID_26_">
							<use xlink:href="#SVGID_25_"  style="overflow:visible;"/>
						</clipPath>
						<path class="st26" d="M-1028.7,272.63l-51.53,55.96l-33.73-69.77c-7.52-15.55-14.24-31.48-19.95-47.77
							c-2.8-7.97-5.36-16.02-6.75-22.23c-1.91-8.54-3.33-17.08-3.34-23.74l0-5.76c-0.01-1.34,0.09-2.66,0.29-3.95
							c1.65-10.67,9.99-19.29,20.94-21.12c10.56-1.74,21.09,3.34,26.3,12.69l7.73,14.33L-1028.7,272.63z"/>
					</g>
				</g>
			</g>
			<path class="st21" d="M-614.35,1096.25h-252.65l-123.23-213.43l-0.97-1.68l-2.22-3.85l55.72-41.27l1.65-1.22l80.45-59.58
				l4.89-3.62l1.44-1.07l32.82-24.3l20.04,34.7l13.28,23l61.42,106.38l52.2,90.42c0.02,0.01,0.02,0.01,0.02,0.03l16.43,28.44
				L-614.35,1096.25z"/>
			<g class="st22">
				<g>
					<defs>
						<rect id="SVGID_27_" x="-1074.79" y="579.18" width="186.46" height="164.46"/>
					</defs>
					<clipPath id="SVGID_28_">
						<use xlink:href="#SVGID_27_"  style="overflow:visible;"/>
					</clipPath>
					<g class="st27">
						<defs>
							<rect id="SVGID_29_" x="-1074.79" y="579.18" width="186.46" height="164.46"/>
						</defs>
						<clipPath id="SVGID_30_">
							<use xlink:href="#SVGID_29_"  style="overflow:visible;"/>
						</clipPath>
						<path class="st28" d="M-888.32,670.13c0,0-43.36,23.08-57.51,71.31c-0.92,3.13-5.41,2.88-5.94-0.33l-5.17-31.54
							c0,0-135.56,15.87-115.9-74.62c19.66-90.49,137.85-43.93,139.2-42.69c1.35,1.24,41.81,48.61,43.01,50.85
							C-889.44,645.35-888.32,670.13-888.32,670.13"/>
					</g>
				</g>
			</g>
			<path class="st29" d="M-909.22,689.98l-190.14-29.09c-21.12-3.23-35.62-22.97-32.39-44.09l77.49-506.49
				c3.23-21.12,22.97-35.62,44.09-32.39l190.14,29.09c21.12,3.23,35.62,22.97,32.39,44.09l-77.49,506.49
				C-868.36,678.71-888.1,693.21-909.22,689.98"/>
			<path class="st30" d="M-920.89,688.2l-190.14-29.09c-21.12-3.23-35.62-22.97-32.39-44.09l77.49-506.49
				c3.23-21.12,22.97-35.62,44.09-32.39l190.14,29.09c21.12,3.23,35.62,22.97,32.39,44.09l-77.49,506.49
				C-880.04,676.93-899.78,691.43-920.89,688.2"/>
			<path class="st30" d="M-802.6,170.84l-71.64,468.2c-2.23,14.55-20.32,23.86-34.86,21.63l-209.44-32.04
				c-14.55-2.23-24.53-15.83-22.31-30.38l71.64-468.2c2.23-14.56,15.82-24.56,30.37-22.33l209.44,32.05
				C-814.85,141.98-800.37,156.28-802.6,170.84"/>
			<path class="st31" d="M-871.86,623.54l-2.37,15.5c-0.12,0.78-0.29,1.54-0.49,2.29c-3.66,13.23-20.6,21.46-34.36,19.35
				l-209.45-32.05c-12.83-1.96-22.12-12.76-22.59-25.27c-0.07-1.69,0.02-3.39,0.29-5.11l2.37-15.5L-871.86,623.54z"/>
			<path class="st32" d="M-914.25,111.8l-30.79-4.71c-0.98-0.15-1.65-1.06-1.5-2.04c0.15-0.98,1.06-1.65,2.04-1.5l30.79,4.71
				c0.98,0.15,1.65,1.06,1.5,2.04C-912.35,111.28-913.27,111.95-914.25,111.8"/>
			<path class="st32" d="M-870.52,116.68c-0.54,3.52-3.83,5.93-7.34,5.4c-3.52-0.54-5.93-3.83-5.4-7.34
				c0.54-3.52,3.83-5.93,7.34-5.4C-872.39,109.87-869.98,113.16-870.52,116.68"/>
			<path class="st32" d="M-980.53,99.85c-0.28,1.83-2,3.09-3.83,2.81c-1.83-0.28-3.09-2-2.81-3.83c0.28-1.83,1.99-3.09,3.83-2.81
				C-981.51,96.3-980.25,98.01-980.53,99.85"/>
			<path class="st32" d="M-967.66,101.81c-0.28,1.83-1.99,3.09-3.83,2.81c-1.83-0.28-3.09-2-2.81-3.83
				c0.28-1.83,1.99-3.09,3.83-2.81C-968.64,98.27-967.38,99.98-967.66,101.81"/>
			<path class="st33" d="M-802.6,170.84l-11.4,74.51l-266.61-40.79l11.4-74.51c2.23-14.56,15.82-24.56,30.37-22.33l209.44,32.05
				C-814.85,141.98-800.37,156.28-802.6,170.84"/>
			<line class="st34" x1="-1045.99" y1="335.14" x2="-898.43" y2="357.72"/>
			
				<rect x="-984.2" y="130.72" transform="matrix(0.1512 -0.9885 0.9885 0.1512 -1033.7098 -797.9576)" class="st35" width="5.37" height="144.5"/>
			
				<rect x="-1029.4" y="161.67" transform="matrix(0.1512 -0.9885 0.9885 0.1512 -1056.0809 -856.3583)" class="st35" width="5.37" height="50.25"/>
			
				<rect x="-1112.58" y="504.89" transform="matrix(0.1512 -0.9885 0.9885 0.1512 -1448.312 -606.5255)" class="st31" width="70.47" height="70.47"/>
			
				<rect x="-1032.63" y="517.12" transform="matrix(0.1512 -0.9885 0.9885 0.1512 -1392.5453 -517.1109)" class="st31" width="70.47" height="70.47"/>
			
				<rect x="-952.68" y="529.36" transform="matrix(0.1512 -0.9885 0.9885 0.1512 -1336.7925 -427.6899)" class="st31" width="70.47" height="70.47"/>
			
				<rect x="-1009.69" y="143.66" transform="matrix(0.1512 -0.9885 0.9885 0.1512 -1086.3009 -708.1239)" class="st31" width="108.37" height="269.71"/>
			<polygon class="st36" points="-830.4,352.47 -846.79,459.59 -1113.39,418.8 -1105.96,370.22 -1103.56,354.46 -1097,311.67 
				-1053.52,318.33 -1048.19,319.15 -1037.18,320.83 -1036.67,320.9 			"/>
			<path class="st37" d="M-1016.62,326.05c-3.13,4.49-6.68,8.79-10.61,12.85c-4.12,4.25-8.53,8.07-13.16,11.45
				c-18.08,13.27-43.77,19.84-65.57,19.88l2.41-15.76l6.55-42.78l43.48,6.66l22.41,5.5L-1016.62,326.05z"/>
			<path class="st37" d="M-1006.64,358.89l-33.75-8.54l-13.21-3.34l22.49-23.17l14.48,2.21c0.17-0.21,0.31-0.42,0.46-0.64l0.21,0.74
				L-1006.64,358.89z"/>
			<path class="st32" d="M-844.41,295.51c-2.63,17.2-18.71,29.01-35.9,26.38c-17.2-2.63-29.01-18.71-26.38-35.9
				c2.63-17.2,18.71-29.01,35.9-26.38C-853.59,262.23-841.78,278.31-844.41,295.51"/>
			<path class="st31" d="M-861.13,404.81c-2.63,17.2-18.71,29.01-35.9,26.38c-17.2-2.63-29.01-18.71-26.37-35.9
				c2.63-17.2,18.71-29.01,35.9-26.38C-870.31,371.54-858.5,387.61-861.13,404.81"/>
			
				<rect x="-994.9" y="200.64" transform="matrix(0.1512 -0.9885 0.9885 0.1512 -1111.9105 -749.1843)" class="st30" width="5.37" height="144.5"/>
			
				<rect x="-1017.33" y="332.65" transform="matrix(0.1512 -0.9885 0.9885 0.1512 -1239.0044 -678.5756)" class="st30" width="5.37" height="99.12"/>
			<path class="st33" d="M-871.86,623.54l-2.37,15.5c-0.12,0.78-0.29,1.54-0.49,2.29l-0.14-0.02l0.63-4.09l-266.33-40.75l2.1-13.73
				L-871.86,623.54z"/>
			<path class="st21" d="M-783.91,810.36l-78.86,24.22l-63.87,19.61l-0.33-0.67l-5-10.33l-7.8-16.1
				c-4.11-8.49-7.02-17.45-8.66-26.66c-1.67-9.19-2.06-18.61-1.15-28c4.05-42.11,14.07-83.23,29.6-122.2
				c13.26-33.28,30.54-64.97,51.58-94.34l4.27-5.98c9.82-13.72,13.88-30.73,11.32-47.41l-2.48-16.04
				c-3.1-20.18-3.52-40.67-1.23-60.95c0,0,4.23-63.11,28.77-105.38c3.41-5.87,8.78-10.11,14.71-12.81
				c5.93-2.69,12.62-3.69,19.33-2.65c2.64,0.41,5.02,1.44,7.02,2.95c4.24,3.15,6.79,8.37,6.31,13.98l-4.63,55.14l-0.12,1.42
				l26.08,170.78c3.06,20.04,2.88,40.44-0.54,60.42l-12.79,105.67L-783.91,810.36z"/>
			<path class="st21" d="M-1140.82,568.14l-0.36,0.2c-10.06,5.8-22.92,2.79-29.36-6.9l-33.3-50.14c-6.53-9.83-5.29-22.89,2.96-31.32
				l4.28-4.37c1.03-1.05,2.13-1.98,3.28-2.78c11.22-7.87,27.41-4.1,33.64,8.87l22.64,47.22l5.09,10.59
				C-1126.98,549.91-1130.84,562.38-1140.82,568.14"/>
			<g class="st22">
				<g>
					<defs>
						<rect id="SVGID_31_" x="-1193.33" y="468.73" width="56.28" height="60.32"/>
					</defs>
					<clipPath id="SVGID_32_">
						<use xlink:href="#SVGID_31_"  style="overflow:visible;"/>
					</clipPath>
					<g class="st38">
						<defs>
							<rect id="SVGID_33_" x="-1193.33" y="468.73" width="56.28" height="60.32"/>
						</defs>
						<clipPath id="SVGID_34_">
							<use xlink:href="#SVGID_33_"  style="overflow:visible;"/>
						</clipPath>
						<path class="st39" d="M-1137.05,528.92c-9.13,0.91-18.44-2.99-24.11-10.93l-32.17-45.16c11.22-7.87,27.41-4.1,33.64,8.87
							L-1137.05,528.92z"/>
					</g>
				</g>
			</g>
			<path class="st21" d="M-1180.2,400.79l-5.74,4.53c-11.08,8.73-14.54,24.02-8.31,36.68l31.77,64.52
				c6.14,12.47,20.91,18.02,33.74,12.68l0.45-0.19c12.72-5.29,19.22-19.49,14.9-32.57l-24-72.76
				C-1143.32,395.69-1165.32,389.07-1180.2,400.79"/>
			<path class="st30" d="M-986.61,216.79c24.45,42.35,9.94,96.5-32.41,120.95c-42.35,24.45-96.5,9.94-120.95-32.41
				c-24.45-42.35-9.94-96.5,32.41-120.95C-1065.22,159.93-1011.06,174.44-986.61,216.79"/>
			<path class="st35" d="M-1040.22,251.74c0.52-4.86-0.48-9.86-3-14.23l-3.38-5.86l-13.52-23.45c-1.29-2.24-2.18-4.63-2.67-7.09
				l-0.71,1.23v0c-4.18,7.25-4.18,16.19,0,23.45l0,0.01l14.03,24.33c-0.01,0-0.02,0-0.03,0c3.69,7.09,3.54,15.61-0.48,22.57
				l-0.71,1.23c-0.49-2.46-1.38-4.85-2.67-7.09l1.27,2.2l-11.41-19.79l-10.44-18.12l0.3,0.53c-1.29-2.24-2.18-4.63-2.67-7.09
				l-0.71,1.23c-4.18,7.25-4.18,16.19,0,23.45l0,0l0.44,0.76l9.7,16.83c0,0,0,0,0,0l3.38,5.86c4.18,7.26,4.18,16.2,0,23.45
				l-0.71,1.23c-0.49-2.46-1.38-4.85-2.67-7.09l1.27,2.2l-18.17-31.52l0,0c-1.66-2.88-2.65-6.02-3-9.22
				c-20.13,4.56-34.18,14.85-34.18,26.81c0,16.19,25.72,29.32,57.45,29.32c31.73,0,57.45-13.13,57.45-29.32
				C-1006.05,266.59-1020.09,256.3-1040.22,251.74"/>
			<polygon class="st30" points="-1006.76,358.99 -1042.59,338.27 -1006.79,317.6 			"/>
		</g>
		<g>
			<path class="st7" d="M-1119.11,707.18c0,20.29-16.45,36.74-36.74,36.74s-36.74-16.45-36.74-36.74s16.45-36.74,36.74-36.74
				S-1119.11,686.89-1119.11,707.18"/>
			<path class="st3" d="M-1123.02,700.67c0,20.29-16.45,36.74-36.74,36.74c-20.29,0-36.74-16.45-36.74-36.74
				c0-20.29,16.45-36.74,36.74-36.74C-1139.47,663.92-1123.02,680.37-1123.02,700.67"/>
			<path class="st40" d="M-1177.14,716.07h34.77c1.58,0,2.86-1.28,2.86-2.86v-21.27c0-1.58-1.28-2.86-2.86-2.86h-34.77
				c-1.58,0-2.86,1.28-2.86,2.86v21.27C-1180,714.79-1178.72,716.07-1177.14,716.07z"/>
			<line class="st40" x1="-1180" y1="694.14" x2="-1139.52" y2="694.14"/>
			<line class="st40" x1="-1139.52" y1="699.2" x2="-1180" y2="699.2"/>
			<path class="st7" d="M-708.02,114.46c0,20.29-16.45,36.74-36.74,36.74s-36.74-16.45-36.74-36.74s16.45-36.74,36.74-36.74
				S-708.02,94.17-708.02,114.46"/>
			<path class="st3" d="M-711.93,107.95c0,20.29-16.45,36.74-36.74,36.74c-20.29,0-36.74-16.45-36.74-36.74s16.45-36.74,36.74-36.74
				C-728.38,71.2-711.93,87.65-711.93,107.95"/>
			<line class="st3" x1="-725.3" y1="110.96" x2="-771.96" y2="110.96"/>
			<line class="st41" x1="-725.3" y1="110.96" x2="-771.96" y2="110.96"/>
			<path class="st3" d="M-745.97,110.96l0.17-0.3c0.56-0.97,0.85-2.07,0.85-3.19v-5.36c0.12-2.49,1.43-3.49,3.69-3.49
				c0.71,0,1.42,0.08,2.12,0.25c0.48,0.12,0.94,0.3,1.44,0.3c0.35,0,0.67-0.11,1.01-0.2c0.35-0.09,0.7-0.17,1.05-0.22
				c0.5-0.08,1-0.12,1.5-0.12c2.04,0,3.83,1.08,3.93,3.42v5.43c0,1.12-0.29,2.22-0.85,3.19l-0.17,0.3H-745.97z"/>
			<path class="st41" d="M-745.97,110.96l0.17-0.3c0.56-0.97,0.85-2.07,0.85-3.19v-5.36c0.12-2.49,1.43-3.49,3.69-3.49
				c0.71,0,1.42,0.08,2.12,0.25c0.48,0.12,0.94,0.3,1.44,0.3c0.35,0,0.67-0.11,1.01-0.2c0.35-0.09,0.7-0.17,1.05-0.22
				c0.5-0.08,1-0.12,1.5-0.12c2.04,0,3.83,1.08,3.93,3.42v5.43c0,1.12-0.29,2.22-0.85,3.19l-0.17,0.3H-745.97z"/>
			<path class="st3" d="M-759.8,86.4c1.69,0,3.36,1.29,3.07,3.07l-0.46,2.88c-0.21,1.39-1.17,2.61-2.61,2.61
				c-1.43,0-2.4-1.22-2.61-2.61l-0.46-2.88C-763.16,87.69-761.49,86.4-759.8,86.4"/>
			<path class="st41" d="M-759.8,86.4c1.69,0,3.36,1.29,3.07,3.07l-0.46,2.88c-0.21,1.39-1.17,2.61-2.61,2.61
				c-1.43,0-2.4-1.22-2.61-2.61l-0.46-2.88C-763.16,87.69-761.49,86.4-759.8,86.4z"/>
			<path class="st3" d="M-737.7,86.4c1.69,0,3.36,1.29,3.07,3.07l-0.46,2.88c-0.21,1.39-1.17,2.61-2.61,2.61s-2.4-1.22-2.61-2.61
				l-0.46-2.88C-741.05,87.69-739.38,86.4-737.7,86.4"/>
			<path class="st41" d="M-737.7,86.4c1.69,0,3.36,1.29,3.07,3.07l-0.46,2.88c-0.21,1.39-1.17,2.61-2.61,2.61s-2.4-1.22-2.61-2.61
				l-0.46-2.88C-741.05,87.69-739.38,86.4-737.7,86.4z"/>
			<path class="st3" d="M-764.59,133.06v-19.7l-1.6-3.3c-0.56-0.97-0.85-2.07-0.85-3.19v-4.75c0.12-2.48,1.69-3.49,3.94-3.49
				c0.71,0,1.17,0.08,1.86,0.25c0.48,0.12,0.94,0.3,1.44,0.3c0.35,0,0.67-0.11,1.01-0.2c0.35-0.09,0.7-0.17,1.05-0.22
				c0.49-0.08,1-0.13,1.5-0.13c2.04,0,3.83,1.08,3.93,3.42v4.82c0,1.12-0.29,2.22-0.85,3.19l-1.6,3.3v19.7"/>
			<path class="st41" d="M-764.59,133.06v-19.7l-1.6-3.3c-0.56-0.97-0.85-2.07-0.85-3.19v-4.75c0.12-2.48,1.69-3.49,3.94-3.49
				c0.71,0,1.17,0.08,1.86,0.25c0.48,0.12,0.94,0.3,1.44,0.3c0.35,0,0.67-0.11,1.01-0.2c0.35-0.09,0.7-0.17,1.05-0.22
				c0.49-0.08,1-0.13,1.5-0.13c2.04,0,3.83,1.08,3.93,3.42v4.82c0,1.12-0.29,2.22-0.85,3.19l-1.6,3.3v19.7"/>
			<line class="st3" x1="-759.81" y1="133.06" x2="-759.81" y2="117.65"/>
			<line class="st41" x1="-759.81" y1="133.06" x2="-759.81" y2="117.65"/>
			<line class="st19" x1="-1241.81" y1="676.86" x2="-1241.81" y2="716.86"/>
			<path class="st7" d="M-1410.33,495.1c0-1.68,18.34-3.04,40.97-3.04c22.63,0,40.97,1.36,40.97,3.04s-18.34,3.04-40.97,3.04
				C-1391.99,498.14-1410.33,496.78-1410.33,495.1"/>
			<path class="st4" d="M-1284.97,485.53v4.64v6.23h43.07l4.6-2.06l-16.46-3.26c0,0-8.33-2.98-8.74-5.54"/>
			<path class="st4" d="M-1245.75,325.04c-1.93,5.53-7.42,98.35-7.42,98.35l-9.18,62.49h-22.61l0.61-45.59l0.26-18.96l1.33-98.67
				l0.05-3.59L-1245.75,325.04z"/>
			
				<rect x="-1385.01" y="258.47" transform="matrix(0.3271 -0.945 0.945 0.3271 -1146.0742 -1083.922)" class="st42" width="101.67" height="8.69"/>
			<polygon class="st42" points="-1313.5,206.79 -1297.06,202.43 -1288.17,215.82 -1309.2,223.01 			"/>
			<path class="st43" d="M-1247.21,231.4l6.99,40.93l9.24-3.4c0,0,4.37,2.11,4.89,7.8c0.49,5.39-3.12,10.31-8.34,11.72l-13.67,3.71
				L-1247.21,231.4z"/>
			<path class="st4" d="M-1344.89,450.45c0,0-8.69,6.65-9.04,7.81c-0.21,0.7,22.21,38.13,22.21,38.13l3.37-0.95l-0.67-24.32
				c0.32-1.75,0.83-3.47,1.55-5.15l1.37-3.2L-1344.89,450.45z"/>
			<path class="st4" d="M-1267.67,330.65l-7.9,90.46c-0.16,1.81-1.01,3.49-2.37,4.69l-51.12,44.86c0,0-17.39-1.29-17.93-19.12
				l45.64-42.82l-15.4-69.73l23.36-19.92L-1267.67,330.65z"/>
			<path class="st44" d="M-1228.27,272.74l6.11-1.28h2.48c2.56,0,4.46-2.37,3.9-4.87l-1.43-6.38c-0.21-0.94-1.57-2.3-1.57-2.3
				l-0.74-0.5c-1.05-0.71-2.33-0.98-3.57-0.76l-6.59,1.17l-15.48,12.28l12.54,6.48L-1228.27,272.74z"/>
			<g class="st45">
				<g>
					<defs>
						<rect id="SVGID_35_" x="-1245.16" y="256.58" width="29.48" height="20.01"/>
					</defs>
					<clipPath id="SVGID_36_">
						<use xlink:href="#SVGID_35_"  style="overflow:visible;"/>
					</clipPath>
					<g class="st46">
						<defs>
							<rect id="SVGID_37_" x="-1245.16" y="256.58" width="29.48" height="20.01"/>
						</defs>
						<clipPath id="SVGID_38_">
							<use xlink:href="#SVGID_37_"  style="overflow:visible;"/>
						</clipPath>
						<path class="st47" d="M-1228.27,272.74l6.11-1.28h2.48c2.56,0,4.46-2.37,3.9-4.87l-1.43-6.38c-0.21-0.94-1.57-2.3-1.57-2.3
							l-0.74-0.5c-1.05-0.71-2.33-0.98-3.57-0.76l-6.59,1.17l-15.48,12.28l12.54,6.48L-1228.27,272.74z"/>
					</g>
				</g>
			</g>
			<polygon class="st3" points="-1237.78,270.57 -1225.96,260.72 -1215.5,260.72 -1228.27,272.74 			"/>
			<path class="st48" d="M-1242.25,171.23l-2.86,2.36l-13.86-8.03l-7.38,10.42l-5.12,2.76l-7.96,6.91
				c-2.09-3.2-3.31-7.03-3.31-11.13c0-11.25,9.12-20.38,20.38-20.38C-1252.23,154.13-1243.81,161.53-1242.25,171.23"/>
			<path class="st49" d="M-1264.59,207.49l-4.71,15.21c0,0-7.17-0.7-13.54-5.09c-3.85-2.65-7.41-6.65-8.92-12.65
				c0,0,8.67-8.74,12.74-22.88c0.56-1.94,1.03-3.98,1.39-6.11L-1264.59,207.49z"/>
			<g class="st45">
				<g>
					<defs>
						<rect id="SVGID_39_" x="-1291.76" y="182.08" width="13.52" height="35.53"/>
					</defs>
					<clipPath id="SVGID_40_">
						<use xlink:href="#SVGID_39_"  style="overflow:visible;"/>
					</clipPath>
					<g class="st50">
						<defs>
							<rect id="SVGID_41_" x="-1291.76" y="182.08" width="13.52" height="35.53"/>
						</defs>
						<clipPath id="SVGID_42_">
							<use xlink:href="#SVGID_41_"  style="overflow:visible;"/>
						</clipPath>
						<path class="st51" d="M-1282.84,217.61c-3.85-2.65-7.41-6.65-8.92-12.66c0,0,8.67-8.74,12.74-22.87
							C-1279.02,182.08-1275.67,202.09-1282.84,217.61"/>
					</g>
				</g>
			</g>
			<path class="st1" d="M-1245.75,325.04l-21.91,5.61l-19.83-118.9l0.41-0.03c3.62,3.23,8.39,5.19,13.62,5.19
				c2.93,0,5.71-0.61,8.23-1.72l6.44,5.77l11.09,43.33L-1245.75,325.04z"/>
			<path class="st49" d="M-1243.76,172.46l-0.11,1.88c0.02,2.48-0.41,4.96-1.11,7.33l0,0.02c-0.77,2.6-1.84,5.06-2.97,7.22
				l-0.01,0.01c-2.03,3.88-4.2,6.78-4.95,7.73c0,0.01-0.01,0.01-0.01,0.01c-0.17,0.21-0.26,0.33-0.26,0.33l-0.84,1.84l-1.57,3.43
				c-0.52,1.14-1.23,2.17-2.09,3.06c-0.6,0.63-1.29,1.19-2.04,1.66c-0.88,0.55-1.84,0.98-2.82,1.27c-0.52,0.15-1.04,0.26-1.58,0.33
				c-0.28,0.04-0.56,0.06-0.84,0.08c-0.22,0.02-0.43,0.02-0.65,0.02h-1.03l-10.39-18.02l-0.71-2.77l1.97-2.78l1.21-1.71l0.78-1.11
				l2.29-3.23l0.35-0.5l0.01-0.01l4.31-6.09l0.15-0.18l8.09-10.24l14.68,10.33L-1243.76,172.46z"/>
			<polygon class="st49" points="-1244.95,181.54 -1244.98,181.67 -1244.98,181.7 -1246,186.65 -1248.11,196.98 -1252.88,196.66 
				-1252.91,196.66 -1254.63,196.55 -1254.51,196.07 -1253.75,192.98 -1252.91,189.56 			"/>
			<path class="st43" d="M-1262.36,336.45c-10.56,5.79-55.48,5.07-54.39,2.53c0.43-1,6.45-21.32,9.42-46.81
				c0.06-0.53,0.12-1.05,0.18-1.59c2.5-22.02,4.21-47.15,5.21-64.73c0.77-13.34,1.12-22.34,1.12-22.34l5.8-6.52
				c0,0,31.88,31.51,38.04,58.32c1.39,6.03,2.41,13.15,3.04,20.65c0.41,4.82,0.66,9.79,0.74,14.72
				C-1252.85,312.15-1255.7,332.79-1262.36,336.45"/>
			<path class="st42" d="M-1253.2,290.67h-5.91l-0.85,6.3l-47.19-6.38c2.5-22.02,4.21-47.15,5.21-64.73l12.15,0.96l-3.31,18.6
				l-4.17,23.46l11.81,2.43l22.9,4.65h8.62C-1253.53,280.77-1253.28,285.74-1253.2,290.67"/>
			<path class="st43" d="M-1251.75,266.9c-0.46-0.69-11.58-39.19-15.02-51.12c-0.14,0.05-0.28,0.1-0.43,0.15l0.47-1.51l0.38-1.24
				l13.58,8.51c3.36,2.1,5.44,5.74,5.56,9.7l1.17,39.85l7.24,61.86c0.43,3.64-3.05,6.49-6.54,5.37l-2.06-0.67"/>
			<path class="st44" d="M-1258.66,268.16l7.97-1.26l6.01-4c0.6-0.4,1.31-0.58,2.02-0.52l12.39,1.07c1.05,0.09,1.49,1.39,0.71,2.1
				c-0.92,0.84-2.18,1.62-3.66,1.54c-3.08-0.18-7.82-0.18-7.82-0.18l1.35,3.01h11.74c2.13,0,3.54,2.19,2.68,4.14
				c-0.79,1.78-3.11,4.39-4.45,5.8c-0.61,0.64-1.36,1.13-2.21,1.41l-6.67,2.21c-0.91,0.3-1.9,0.34-2.83,0.12l-18.41-4.46
				L-1258.66,268.16z"/>
			<path class="st43" d="M-1294.41,220.95c0,8.17-6.62,14.79-14.79,14.79s-14.79-6.62-14.79-14.79c0-8.17,6.62-14.79,14.79-14.79
				S-1294.41,212.78-1294.41,220.95"/>
			
				<rect x="-1366.03" y="319.52" transform="matrix(0.3273 -0.9449 0.9449 0.3273 -1215.2258 -1063.5449)" class="st7" width="22.95" height="4.35"/>
			<path class="st43" d="M-1289.01,234.78l-19.47,86.52l-5.72-1.29l-2.77-0.62l5.99-26.64l13.48-59.88
				c1.04-4.65,0.57-9.32-1.17-13.46c-0.82-1.97-1.93-3.82-3.31-5.49c-1.66-2.01-3.69-3.76-6.05-5.12l-4.11-2.37l11.43-3.04l0.09-0.1
				c0.03,0.01,0.05,0.03,0.08,0.06c4.62,3.46,8.09,8.06,10.13,13.24C-1288.18,222.22-1287.61,228.53-1289.01,234.78"/>
			
				<rect x="-1327.53" y="330.02" transform="matrix(0.2195 -0.9756 0.9756 0.2195 -1350.8005 -1024.0288)" class="st7" width="24.28" height="4.35"/>
			<path class="st1" d="M-1323.7,386.06l-48.87-11.69c-2.83-0.68-4.57-3.52-3.9-6.35l9.87-41.26c0.68-2.83,3.52-4.57,6.35-3.9
				l48.87,11.69c2.83,0.68,4.58,3.52,3.9,6.35l-9.87,41.26C-1318.03,384.99-1320.87,386.74-1323.7,386.06"/>
			<path class="st48" d="M-1252.88,196.66l-0.03-0.01c-0.17,0.21-0.26,0.33-0.26,0.33l-0.84,1.84l-4.37-0.8
				c-0.11-0.02-0.22-0.03-0.34-0.03c-0.59,0-1.16,0.29-1.51,0.79c-0.42,0.59-0.45,1.38-0.09,2l2.4,4.1l0.25,0.44
				c-0.6,0.63-1.29,1.19-2.04,1.66c-0.88,0.55-1.84,0.98-2.82,1.27c-0.52,0.15-1.04,0.26-1.58,0.33l-0.16-0.16
				c-0.15-0.16-0.31-0.32-0.46-0.48c-4.24-4.54-7.11-10.11-8.36-16.1c-0.46-2.16-0.7-4.38-0.72-6.62c-0.01-0.23-0.01-0.47,0-0.71
				c-0.01-0.08,0-0.16,0-0.24l0.03-1.97l0.03-1.59l0.02-1.37l1.12-2.95l0.67-0.55l5.14-4.23l0.11,0.68l0.55,3.37l2.47,14.92
				c0.17,1.04,0.61,2,1.27,2.78c0.49,0.6,1.1,1.1,1.8,1.46h0.01c0.22,0.11,0.45,0.22,0.69,0.3c0.38,0.14,0.77,0.24,1.17,0.3
				l3.28,0.47c0.31,0.04,0.62,0.11,0.92,0.19c0.55,0.14,1.09,0.34,1.61,0.58C-1252.89,196.65-1252.88,196.65-1252.88,196.66"/>
			<path class="st49" d="M-1271.47,178.74c0,3.53-1.83,6.38-4.08,6.38c-2.25,0-4.07-2.86-4.07-6.38s1.82-6.38,4.07-6.38
				C-1273.3,172.35-1271.47,175.21-1271.47,178.74"/>
			<path class="st43" d="M-1255.44,266.35v20.11h-52.2c-1.05,0-2.02-0.23-2.86-0.72c-1.68-0.97-2.72-2.84-3.16-5.35
				c-0.02-0.08-0.03-0.15-0.04-0.23l-10.21-57.59l29.5-1.63l-0.79,18.88l-0.99,23.81l12.04,0.83L-1255.44,266.35z"/>
			<line class="st19" x1="-1222.84" y1="252.64" x2="-1214.35" y2="237.93"/>
			<path class="st1" d="M-1180.13,216.31c0,11.51-9.33,20.84-20.84,20.84c-11.51,0-20.84-9.33-20.84-20.84s9.33-20.84,20.84-20.84
				C-1189.46,195.47-1180.13,204.8-1180.13,216.31"/>
			<path class="st52" d="M-1206.83,215.15v-5.84c0-3.23,2.62-5.86,5.86-5.86c3.23,0,5.86,2.62,5.86,5.86v5.84h-1.8v-5.7
				c0-2.24-1.82-4.05-4.05-4.05c-2.24,0-4.05,1.81-4.05,4.05v5.7H-1206.83z"/>
			<path class="st52" d="M-1209.19,215.15h16.45c0.3,0,0.55,0.25,0.55,0.55v8.95c0,1.22-0.99,2.2-2.2,2.2h-13.14
				c-1.22,0-2.2-0.99-2.2-2.2v-8.95C-1209.74,215.4-1209.5,215.15-1209.19,215.15z"/>
			<path class="st53" d="M-1200.97,221.45L-1200.97,221.45c-0.42,0-0.75-0.34-0.75-0.75v-1.51c0-0.42,0.34-0.76,0.75-0.76
				c0.42,0,0.76,0.34,0.76,0.76v1.51C-1200.21,221.11-1200.55,221.45-1200.97,221.45z"/>
			<path class="st4" d="M-1194.71,619.21c0,24.72-20.04,44.77-44.77,44.77c-24.72,0-44.76-20.04-44.76-44.77
				c0-24.72,20.04-44.77,44.76-44.77C-1214.75,574.44-1194.71,594.48-1194.71,619.21"/>
			<path class="st3" d="M-1199.47,611.27c0,24.72-20.04,44.77-44.77,44.77c-24.72,0-44.76-20.04-44.76-44.77
				s20.04-44.77,44.76-44.77C-1219.51,566.5-1199.47,586.55-1199.47,611.27"/>
			<path class="st41" d="M-1272.08,585.16h1.9c1.01,0,1.94,0.54,2.45,1.41l7.23,12.52"/>
			<path class="st54" d="M-1262.79,595.15h39.11c2.96,0,4.8,3.2,3.32,5.76l-6.77,11.74c-1.15,2-3.29,3.23-5.6,3.23h-14.37
				c-2.31,0-4.44-1.23-5.6-3.23L-1262.79,595.15z"/>
			<path class="st41" d="M-1256.74,629.99l5.17-8.96c1.16-2,1.15-4.47-0.01-6.47l-1.41-2.44"/>
			<line class="st54" x1="-1256.74" y1="633.03" x2="-1229.4" y2="633.03"/>
			<path class="st3" d="M-1254.66,633.03c0,2.4-1.95,4.35-4.35,4.35c-2.4,0-4.35-1.95-4.35-4.35c0-2.4,1.95-4.35,4.35-4.35
				C-1256.61,628.67-1254.66,630.62-1254.66,633.03"/>
			<path class="st54" d="M-1254.66,633.03c0,2.4-1.95,4.35-4.35,4.35c-2.4,0-4.35-1.95-4.35-4.35c0-2.4,1.95-4.35,4.35-4.35
				C-1256.61,628.67-1254.66,630.62-1254.66,633.03z"/>
			<path class="st3" d="M-1224.7,633.03c0,2.4-1.95,4.35-4.35,4.35c-2.4,0-4.35-1.95-4.35-4.35c0-2.4,1.95-4.35,4.35-4.35
				C-1226.65,628.67-1224.7,630.62-1224.7,633.03"/>
			<path class="st54" d="M-1224.7,633.03c0,2.4-1.95,4.35-4.35,4.35c-2.4,0-4.35-1.95-4.35-4.35c0-2.4,1.95-4.35,4.35-4.35
				C-1226.65,628.67-1224.7,630.62-1224.7,633.03z"/>
			<path class="st20" d="M-634.5,465.46c0,8.91-7.23,16.14-16.14,16.14s-16.14-7.23-16.14-16.14s7.23-16.14,16.14-16.14
				S-634.5,456.55-634.5,465.46"/>
			<path class="st55" d="M-640.71,465.46c0,5.49-4.45,9.93-9.93,9.93c-5.49,0-9.93-4.45-9.93-9.93c0-5.49,4.45-9.93,9.93-9.93
				C-645.15,455.53-640.71,459.97-640.71,465.46z"/>
			<path class="st56" d="M-650.66,458.84c-1.74,0-3.51,1.37-3.21,3.21l0.4,3.21c0.22,1.44,1.33,2.41,2.81,2.41s2.59-0.97,2.81-2.41
				l0.4-3.21C-647.14,460.21-648.91,458.84-650.66,458.84z"/>
			<path class="st56" d="M-658.18,472.08c0.51-1.28,1.98-2.21,3.67-2.21c1.04,0,2.34,0.46,3.14,0.78c0.46,0.19,0.99,0.19,1.45,0
				c0.78-0.33,2.07-0.78,3.14-0.78c1.87,0,3.23,0.93,3.69,2.21"/>
			<path class="st4" d="M-640.99,227.93c0,26.49-21.48,47.97-47.97,47.97c-26.49,0-47.97-21.48-47.97-47.97s21.48-47.97,47.97-47.97
				C-662.46,179.96-640.99,201.43-640.99,227.93"/>
			<path class="st3" d="M-646.09,220.38c0,26.49-21.48,47.97-47.97,47.97c-26.49,0-47.97-21.48-47.97-47.97s21.48-47.97,47.97-47.97
				C-667.57,172.41-646.09,193.89-646.09,220.38"/>
			<path class="st41" d="M-708.32,195.14h29.91c1.85,0,3.34,1.5,3.34,3.34v43.81c0,1.85-1.5,3.34-3.34,3.34h-29.91
				c-1.85,0-3.34-1.5-3.34-3.34v-43.81C-711.66,196.63-710.16,195.14-708.32,195.14z"/>
			<path class="st41" d="M-704.97,200.78h23.21c0.81,0,1.46,0.66,1.46,1.46v10.14c0,0.81-0.65,1.46-1.46,1.46h-23.21
				c-0.81,0-1.46-0.65-1.46-1.46v-10.14C-706.43,201.44-705.78,200.78-704.97,200.78z M-685.52,204.8v5.02"/>
			<path class="st41" d="M-701.73,220.37c0,1.15-0.93,2.09-2.09,2.09c-1.15,0-2.09-0.93-2.09-2.09c0-1.15,0.93-2.09,2.09-2.09
				C-702.66,218.28-701.73,219.22-701.73,220.37z"/>
			<path class="st41" d="M-691.28,220.37c0,1.15-0.93,2.09-2.09,2.09c-1.15,0-2.09-0.93-2.09-2.09c0-1.15,0.93-2.09,2.09-2.09
				C-692.21,218.28-691.28,219.22-691.28,220.37z"/>
			<path class="st41" d="M-680.82,220.37c0,1.15-0.93,2.09-2.09,2.09c-1.15,0-2.09-0.93-2.09-2.09c0-1.15,0.93-2.09,2.09-2.09
				C-681.76,218.28-680.82,219.22-680.82,220.37z"/>
			<path class="st41" d="M-701.73,238.68c0,1.15-0.93,2.09-2.09,2.09c-1.15,0-2.09-0.93-2.09-2.09c0-1.15,0.93-2.09,2.09-2.09
				C-702.66,236.6-701.73,237.53-701.73,238.68z"/>
			<path class="st41" d="M-691.28,238.68c0,1.15-0.93,2.09-2.09,2.09c-1.15,0-2.09-0.93-2.09-2.09c0-1.15,0.93-2.09,2.09-2.09
				C-692.21,236.6-691.28,237.53-691.28,238.68z"/>
			<path class="st41" d="M-680.82,238.68c0,1.15-0.93,2.09-2.09,2.09c-1.15,0-2.09-0.93-2.09-2.09c0-1.15,0.93-2.09,2.09-2.09
				C-681.76,236.6-680.82,237.53-680.82,238.68z"/>
			<path class="st41" d="M-701.73,229.68c0,1.15-0.93,2.09-2.09,2.09c-1.15,0-2.09-0.93-2.09-2.09c0-1.15,0.93-2.09,2.09-2.09
				C-702.66,227.59-701.73,228.53-701.73,229.68z"/>
			<path class="st41" d="M-691.28,229.68c0,1.15-0.93,2.09-2.09,2.09c-1.15,0-2.09-0.93-2.09-2.09c0-1.15,0.93-2.09,2.09-2.09
				C-692.21,227.59-691.28,228.53-691.28,229.68z"/>
			<path class="st41" d="M-680.82,229.68c0,1.15-0.93,2.09-2.09,2.09c-1.15,0-2.09-0.93-2.09-2.09c0-1.15,0.93-2.09,2.09-2.09
				C-681.76,227.59-680.82,228.53-680.82,229.68z"/>
			<path class="st7" d="M-673.6,339.05c0,20.29-16.45,36.74-36.74,36.74s-36.74-16.45-36.74-36.74s16.45-36.74,36.74-36.74
				S-673.6,318.76-673.6,339.05"/>
			<path class="st3" d="M-677.51,332.53c0,20.29-16.45,36.74-36.74,36.74c-20.29,0-36.74-16.45-36.74-36.74
				c0-20.29,16.45-36.74,36.74-36.74C-693.96,295.79-677.51,312.24-677.51,332.53"/>
			<path class="st41" d="M-716.31,329.62l-7.45-12.91c-0.26-0.45-0.91-0.45-1.17,0l-7.48,12.96"/>
			<line class="st41" x1="-724.36" y1="348.52" x2="-724.36" y2="316.54"/>
			<path class="st41" d="M-696.11,335.45l-7.45,12.91c-0.26,0.45-0.91,0.45-1.17,0l-7.48-12.96"/>
			<line class="st41" x1="-704.15" y1="316.54" x2="-704.15" y2="348.52"/>
		</g>
		<rect x="-1374.48" y="806.94" class="st0" width="70.93" height="70.93"/>
		<polygon class="st3" points="-1254.24,738.12 -1254.24,913.91 -1236.28,913.91 -1236.28,731.17 		"/>
		<polygon class="st3" points="-1312.54,794.28 -1312.54,913.91 -1294.57,913.91 -1294.57,787.34 		"/>
		<polygon class="st3" points="-1392.45,813.88 -1392.45,913.91 -1374.48,913.91 -1374.48,806.94 		"/>
		<rect x="-1236.28" y="731.17" class="st1" width="20.31" height="182.74"/>
		<g>
			<defs>
				<rect id="SVGID_43_" x="-1445.94" y="681.72" width="274.16" height="232.2"/>
			</defs>
			<clipPath id="SVGID_44_">
				<use xlink:href="#SVGID_43_"  style="overflow:visible;"/>
			</clipPath>
			<path class="st57" d="M-1226.12,950.34h20.31V758.98c0-11.22-9.09-20.31-20.31-20.31V950.34z"/>
			<path class="st57" d="M-1274.57,814.03L-1274.57,814.03c27.23,0,49.31,22.08,49.31,49.31V972.3h-49.31V814.03z"/>
			<rect x="-1294.57" y="787.34" class="st57" width="49.31" height="184.96"/>
			<rect x="-1286.84" y="793.52" class="st58" width="41.58" height="3.98"/>
			<rect x="-1286.84" y="799.2" class="st58" width="41.58" height="3.98"/>
			<rect x="-1356.53" y="865.95" class="st57" width="43.99" height="106.35"/>
			<rect x="-1346.66" y="817.52" class="st59" width="7.64" height="14.66"/>
			<polygon class="st57" points="-1362.55,859.97 -1312.54,859.97 -1312.54,872.89 -1374.48,872.89 			"/>
			<rect x="-1374.48" y="872.89" class="st57" width="17.95" height="99.41"/>
			<polygon class="st58" points="-1294.57,787.34 -1254.24,972.3 -1294.57,972.3 			"/>
			<path class="st57" d="M-1319.5,806.94c-1.67,3.26-3.89,6.61-6.71,9.97c-18.63,22.21-22.48,46.87-28.67,45.16
				c-0.86-0.24-1.62-0.64-2.28-1.17v-53.97H-1319.5z"/>
			<rect x="-1357.7" y="830.67" class="st59" width="4.4" height="144.01"/>
			<path class="st58" d="M-1354.95,866.29c-4.52-0.4-7.88-4.29-7.68-8.83c0.38-8.72-0.76-22.25-10.26-28.87
				c-14.68-10.23-22.62-37.13-0.35-48.03c22.27-10.9,7.92-34.55,28.31-37.4c20.39-2.85,35.84,23.35,16.74,56.97
				C-1347.29,833.77-1346.4,867.04-1354.95,866.29"/>
		</g>
	</g>
</g>
<g id="vector">
	<path class="st3" d="M881.79,23.56L738.81,281.22C661.25,421,517.9,507.11,362.77,507.11H3.94l142.98-257.66
		c77.57-139.79,220.91-225.9,376.05-225.9H881.79z"/>
	<g>
		<rect x="206.45" y="515.31" class="st0" width="195.45" height="132.82"/>
		<g>
			<path class="st0" d="M171.48,195.98c0,6.88,5.58,12.45,12.45,12.45c6.88,0,12.45-5.58,12.45-12.45s-5.57-12.45-12.45-12.45
				C177.06,183.53,171.48,189.1,171.48,195.98"/>
			<path class="st0" d="M55.96,191.35c0,9.43,7.65,17.08,17.08,17.08c9.43,0,17.08-7.65,17.08-17.08c0-9.43-7.65-17.08-17.08-17.08
				C63.61,174.27,55.96,181.92,55.96,191.35"/>
			<path class="st0" d="M121.55,178.58c0,9.43,7.65,17.08,17.08,17.08c9.43,0,17.08-7.65,17.08-17.08c0-9.43-7.65-17.08-17.08-17.08
				C129.2,161.5,121.55,169.15,121.55,178.58"/>
			<path class="st0" d="M71.75,166.21c0,17.02,13.8,30.81,30.81,30.81c17.02,0,30.82-13.8,30.82-30.81s-13.8-30.81-30.82-30.81
				C85.54,135.39,71.75,149.19,71.75,166.21"/>
			<polygon class="st0" points="71.75,174.28 71.75,208.44 183.94,208.44 183.94,183.53 			"/>
			<path class="st0" d="M932.84,238.11c0,8.88,7.2,16.09,16.09,16.09c8.88,0,16.09-7.2,16.09-16.09c0-8.88-7.2-16.09-16.09-16.09
				C940.05,222.02,932.84,229.22,932.84,238.11"/>
			<path class="st0" d="M783.63,232.13c0,12.19,9.88,22.06,22.06,22.06c12.18,0,22.06-9.88,22.06-22.06
				c0-12.18-9.88-22.06-22.06-22.06C793.51,210.07,783.63,219.94,783.63,232.13"/>
			<path class="st0" d="M868.34,215.63c0,12.19,9.88,22.06,22.06,22.06c12.18,0,22.06-9.88,22.06-22.06
				c0-12.18-9.88-22.06-22.06-22.06C878.22,193.57,868.34,203.45,868.34,215.63"/>
			<path class="st0" d="M804.02,199.64c0,21.98,17.82,39.8,39.8,39.8s39.8-17.82,39.8-39.8s-17.82-39.8-39.8-39.8
				S804.02,177.66,804.02,199.64"/>
			<polygon class="st0" points="804.01,210.07 804.01,254.19 948.93,254.19 948.93,222.02 			"/>
			<path class="st1" d="M848.69,232.78H656.91c-6.18,0-11.19,5.01-11.19,11.2v228.01c0,6.18,5.01,11.2,11.19,11.2h191.78
				c6.18,0,11.2-5.01,11.2-11.2V243.98C859.88,237.8,854.87,232.78,848.69,232.78"/>
			<path class="st2" d="M838.65,362.11l-31,63.48c-6.44,13.18-7.92,28.24-4.18,42.43l4.56,17.29l1.71,6.48
				c-5.14,1.99-11.28,4.12-17.94,6.18c-1.07,0.33-2.13,0.66-3.18,0.96l-4.79-6.72l-26.43-37.06c-15.83-22.19-15.06-52.21,1.91-73.56
				c11.4-14.36,15.46-32.55,12.16-49.64c-1.82-9.42-5.86-18.5-12.13-26.42l-54.94-69.28c-6.19-7.78-4.43-19.17,3.8-24.74
				c1.95-1.33,4.11-2.21,6.34-2.63c4.81-0.93,9.92,0.26,13.91,3.46l93.57,75.26C844.29,305.53,851.18,336.45,838.65,362.11"/>
			<path class="st3" d="M812.93,351.18l-23.85,66.49c-4.96,13.81-4.78,28.95,0.49,42.64l10.42,27.05l2.71,7.04
				c-3.4,1.19-7.06,2.4-10.9,3.59c-2.39,0.74-4.73,1.44-7.01,2.07l-5.6-6.26l-36.83-41.22c-18.18-20.33-20.69-50.24-6.16-73.33
				c9.76-15.51,11.79-34.04,6.65-50.67c-2.83-9.16-7.86-17.75-14.96-24.93l-62.21-62.84c-7-7.05-6.5-18.57,1.08-25.01
				c1.79-1.53,3.84-2.64,6.01-3.31c4.68-1.45,9.89-0.83,14.21,1.92l101.25,64.55C812.32,294.32,822.57,324.29,812.93,351.18"/>
			<path class="st3" d="M881.46,22.48L738.1,270.77c-77.77,134.7-221.5,217.68-377.04,217.68l-294.28-15.2l77.86-233.1
				c77.77-134.7,221.5-217.68,377.04-217.68H881.46z"/>
			<rect x="535.05" y="60.82" class="st0" width="46.78" height="125.63"/>
			<rect x="490.51" y="72" class="st0" width="46.78" height="125.63"/>
			<rect x="683.34" y="20.2" class="st0" width="39.15" height="149.69"/>
			<path class="st3" d="M671.49,169.88h11.85V20.2c-7.14,2.76-11.85,9.63-11.85,17.28V169.88z"/>
			<polygon class="st0" points="614.35,150.46 626.2,150.46 626.2,10.85 614.35,15.43 			"/>
			<polygon class="st3" points="523.2,169.88 535.05,169.88 535.05,60.82 523.2,65.4 			"/>
			<rect x="666.36" y="60.82" class="st0" width="29.68" height="109.06"/>
			<rect x="690.12" y="65.5" class="st0" width="32.37" height="104.39"/>
			<rect x="626.2" y="10.85" class="st0" width="25.12" height="139.61"/>
			<rect x="600.94" y="65.5" class="st0" width="32.52" height="104.38"/>
			<rect x="587.75" y="47.9" class="st0" width="32.52" height="121.99"/>
			<rect x="546.89" y="99.74" class="st0" width="29.01" height="70.14"/>
			<path class="st0" d="M243.91,133.15c0,15-12.16,27.16-27.16,27.16c-15,0-27.16-12.16-27.16-27.16s12.16-27.16,27.16-27.16
				C231.75,105.99,243.91,118.15,243.91,133.15"/>
			<path class="st0" d="M495.86,123.06c0,20.57-16.68,37.25-37.25,37.25c-20.57,0-37.25-16.68-37.25-37.25s16.68-37.25,37.25-37.25
				C479.18,85.8,495.86,102.48,495.86,123.06"/>
			<path class="st0" d="M352.82,95.2c0,20.57-16.68,37.25-37.25,37.25c-20.57,0-37.25-16.68-37.25-37.25s16.68-37.25,37.25-37.25
				C336.14,57.94,352.82,74.62,352.82,95.2"/>
			<path class="st0" d="M461.43,68.21c0,37.12-30.09,67.21-67.21,67.21c-37.12,0-67.21-30.09-67.21-67.21S357.11,1,394.23,1
				C431.34,1,461.43,31.09,461.43,68.21"/>
			<polygon class="st0" points="461.44,85.81 461.44,160.31 216.75,160.31 216.75,105.99 			"/>
			<path class="st0" d="M167.48,780.33h-34.31c-29.82,0-49.51-31-36.84-57.99l7.98-17c8.16-17.38,3.06-38.09-12.22-49.7
				l-35.96-27.32c-24.37-18.51-20.36-56.28,7.35-69.26c26.37-12.36,31.61-47.6,9.97-67.09l-9.33-8.4
				c-25.12-22.62-13.3-64.23,19.96-70.28l74.01-13.46c26.77-4.87,50.69,17.41,47.74,44.46l-1.15,10.57
				c-2.31,21.14,12.05,40.5,32.96,44.42l2.05,0.38c25.93,4.86,40.45,32.72,29.59,56.76l-39.97,88.48
				c-6.38,14.13-4.19,30.66,5.67,42.62l21.61,26.25c21.86,26.55,2.97,66.57-31.42,66.57H167.48z"/>
			<path class="st1" d="M825.34,232.85H630.5l4.12-7.11l0.63-1.11l42.1-72.94h0.01l20.57-35.64l13.36-23.15
				c7.39-12.79,25.87-12.79,33.25,0l62.85,108.86L825.34,232.85z"/>
			<path class="st4" d="M825.34,232.85H633.13c0.63-2.58,1.34-5.34,2.12-8.21l42.1-72.94h0.01l7.78-13.48
				c4.07,6.75,59.82,53.9,113.65,62.12c3.04,0.46,5.9,0.94,8.6,1.43L825.34,232.85z"/>
			<path class="st3" d="M572.58,309.32c0,50.63-41.05,91.68-91.68,91.68c-50.63,0-91.68-41.05-91.68-91.68s41.05-91.68,91.68-91.68
				C531.53,217.64,572.58,258.69,572.58,309.32"/>
			<path class="st0" d="M960.32,422.53L767.67,756.22c-46.21,80.05-131.62,129.35-224.05,129.35H382.19
				c-5.25,0-10.29,1.4-14.68,3.93c-4.39,2.53-8.12,6.2-10.74,10.74c-5.24,9.08-14.93,14.67-25.41,14.67H21.57l181.51-314.38H379.2
				l102.77-178H960.32z"/>
			<path class="st3" d="M862.86,472.46c-1.67,23.42-6.1,46.77-12.91,69.53c-6.79,22.77-16.06,44.92-27.47,66.03
				c-22.78,42.27-54.77,79.87-92.87,110.09c-4.69,3.88-9.68,7.36-14.59,10.97l-3.7,2.69l-3.8,2.53l-7.62,5.06
				c-2.51,1.74-5.17,3.23-7.78,4.81l-7.87,4.68c-2.65,1.52-5.36,2.91-8.04,4.37c-2.7,1.43-5.37,2.92-8.09,4.3
				c-21.8,11.07-44.81,19.8-68.45,26.32c-23.64,6.52-47.98,10.57-72.47,12.24c-24.49,1.67-49.14,0.85-73.51-2.29
				c-48.74-6.31-96.22-22.54-138.48-47.42c-21.11-12.46-41.06-26.86-59.21-43.22l-6.79-6.14c-1.15-1-2.21-2.1-3.3-3.18l-3.25-3.23
				l-6.49-6.45c-1.1-1.05-2.1-2.21-3.14-3.33l-3.07-3.39l-6.12-6.79c-1.04-1.11-1.97-2.32-2.95-3.49l-2.9-3.53l-5.79-7.06
				c-0.99-1.16-1.85-2.42-2.77-3.63l-2.72-3.66c-29.09-38.99-50.13-83.69-61.24-130.4l-2.01-8.77l-0.5-2.19
				c-0.15-0.73-0.27-1.48-0.4-2.21l-0.79-4.42c-1.01-5.9-2.24-11.75-2.81-17.71l-1.07-8.89c-0.16-1.48-0.4-2.95-0.49-4.44
				l-0.31-4.46l-0.6-8.91l-0.28-4.45l-0.06-4.46l-0.11-8.9l-0.06-4.44c-0.04-1.48,0.1-2.96,0.14-4.44l0.39-8.87l0.19-4.42
				c0.05-1.47,0.13-2.95,0.26-4.42c0.95-11.77,2.44-23.47,4.69-34.99c-0.69,46.91,6.44,93.18,21.41,136.3
				c14.93,43.12,37.65,83.02,66.62,117.33l2.69,3.23c0.91,1.07,1.76,2.18,2.74,3.2l5.7,6.19l2.84,3.1c0.96,1.02,1.86,2.09,2.88,3.05
				l5.98,5.91l2.98,2.96c0.99,0.98,1.95,2.01,3.01,2.92l6.21,5.65l3.1,2.82c1.04,0.93,2.04,1.9,3.14,2.77l6.46,5.34
				c17.31,14.11,35.75,26.77,55.28,37.43c38.99,21.44,81.83,35.47,125.82,41.19l8.25,1.07c1.37,0.21,2.76,0.29,4.14,0.4l4.15,0.32
				c5.53,0.41,11.06,0.97,16.61,1l8.32,0.25c1.39,0.03,2.78,0.12,4.16,0.1l4.16-0.08c5.55-0.14,11.11-0.07,16.65-0.52
				c22.18-1.18,44.24-4.47,65.85-9.68c21.63-5.21,42.73-12.6,63.12-21.71c2.54-1.16,5.03-2.41,7.55-3.61
				c2.51-1.23,5.05-2.39,7.54-3.67l7.39-3.97l3.7-1.98c1.25-0.63,2.45-1.35,3.66-2.06l7.25-4.25l3.63-2.12l3.53-2.28
				c4.69-3.06,9.48-6,14-9.34c36.8-25.73,69.22-58.32,94.76-96.16c12.84-18.87,23.97-39.03,33.35-60.14
				C849.61,517.31,857.1,495.22,862.86,472.46"/>
			<path class="st3" d="M812.93,351.18l-23.85,66.49c-4.96,13.81-4.78,28.95,0.49,42.64l38.84,77.78c0,0-4.6,1.69-6.88,2.33
				l-79.16-87.84c-18.18-20.33-20.69-50.24-6.16-73.33c9.76-15.51,11.79-34.04,6.65-50.67c-2.83-9.16-7.86-17.75-14.96-24.93
				l-62.21-62.84c-7-7.05-6.5-18.57,1.08-25.01c1.79-1.53,3.84-2.64,6.01-3.31c4.68-1.45,9.89-0.83,14.21,1.92l101.25,64.55
				C812.32,294.32,822.57,324.29,812.93,351.18"/>
			<path class="st1" d="M739.78,232.85H561.42l73.96-128.09c6.77-11.72,23.67-11.72,30.44,0l19.32,33.46h0.01L739.78,232.85z"/>
			<path class="st4" d="M717.32,545.62l0.32,37.24c0.2,22.66,21.79,39,43.65,33.02l121.77-33.3l-15.4-74.32l-22.6,1.98
				c-15.98,1.4-31.34,6.88-44.6,15.9l-57.91,39.41l0.11-25.85L717.32,545.62z"/>
			<path class="st5" d="M909.8,439.49c0.62,3.53,0.77,7.12,0.47,10.66c-0.82,9.59-4.97,18.84-12.12,25.9
				c-1.61,1.58-3.37,3.06-5.27,4.4c-3.5,2.46-7.24,4.3-11.11,5.54c-16.76,5.4-35.77-0.41-46.44-15.57
				c-1.22-1.73-2.28-3.51-3.19-5.35c-3.69-7.36-4.97-15.46-4.04-23.27c0.05-0.37,0.09-0.75,0.15-1.12
				c0.87-5.94,3.02-11.67,6.38-16.76c2.77-4.21,6.36-7.97,10.73-11.04c18.66-13.12,44.43-8.63,57.55,10.02
				c2.51,3.57,4.38,7.41,5.62,11.37C909.06,435.99,909.49,437.73,909.8,439.49"/>
			<path class="st6" d="M734.41,551.66l-17.09-6.04l-6.2-21.76c-1-4.25-0.49-8.71,1.42-12.64l0.9-1.84
				c0.03-1.61-0.09-3.23-0.37-4.81c-0.29-1.67-0.75-3.31-1.38-4.89l-0.36-0.91c-0.6-1.52,0.14-3.23,1.66-3.83l4.82-1.48
				L734.41,551.66z"/>
			<path class="st1" d="M774.02,591.81c0.59,3.12-3,5.31-5.5,3.36c-2.79-2.17-6.18-4.81-9.8-7.62
				c-11.33-8.79-24.81-19.27-28.64-22.22c-0.67-0.52-1.13-1.27-1.28-2.1l-20.57-111.75c-0.5-2.7,2.21-4.87,4.74-3.79l35.17,15.06
				c1.06,0.45,1.82,1.4,2.03,2.53l8.36,44.37l9.84,52.22l5.53,29.34L774.02,591.81z"/>
			<path class="st7" d="M773.91,591.21l-28.82-33.5c-1.84-2.28-2.75-5.21-2.5-8l0.56-6.14l21.09-3.69l4.15,21.99L773.91,591.21z"/>
			<path class="st6" d="M765.01,511.8l4.41-5.45c0.44-0.55,0.56-1.28,0.32-1.94c-0.38-1.03-1.29-1.77-2.37-1.92
				c-1.39-0.19-3.39-0.09-5.33,1.32C758.54,506.36,765.01,511.8,765.01,511.8"/>
			<path class="st6" d="M759.62,499.36L759.62,499.36c-1.5,0.31-2.49,1.73-2.27,3.25l1.84,12.46l-16.26-17.04
				c-1.06-1.11-2.71-1.53-4.13-0.93c-1.83,0.78-2.67,2.86-1.95,4.68l1.5,3.75c0.07,0.18-0.15,0.33-0.29,0.19
				c-0.51-0.72-1.37-1.11-2.25-1c-2.87,0.35-3.81,3.17-2.52,5l4.3,6.12l-0.87,0.96c-0.73,0.8-0.97,1.94-0.63,2.97l6.55,19.93
				l-0.32,9.71c-0.08,2.52,0.96,4.95,2.84,6.63l27.34,20.19l17.92-13.87l-9.51-27.56c-1.09-3.15-2.69-6.11-4.75-8.73l-10.01-12.8
				L763,501.44C762.6,499.96,761.12,499.05,759.62,499.36"/>
			<g class="st8">
				<g>
					<defs>
						<rect id="SVGID_45_" x="758.42" y="509.76" width="12.8" height="16.04"/>
					</defs>
					<clipPath id="SVGID_46_">
						<use xlink:href="#SVGID_45_"  style="overflow:visible;"/>
					</clipPath>
					<g class="st60">
						<defs>
							<rect id="SVGID_47_" x="758.42" y="509.76" width="12.81" height="16.04"/>
						</defs>
						<clipPath id="SVGID_48_">
							<use xlink:href="#SVGID_47_"  style="overflow:visible;"/>
						</clipPath>
						<path class="st61" d="M758.41,509.76c4.91,5.74,12.81,16.04,12.81,16.04c-4.96-0.25-12.02-10.73-12.02-10.73L758.41,509.76z"
							/>
					</g>
				</g>
			</g>
			<path class="st1" d="M917.97,610.65l-39.09,44.05c-18.09,20.61-51.08,17.35-64.8-6.4l-41.9-72.58l14.32-24.79L917.97,610.65z"/>
			<path class="st11" d="M889.27,450.51c0,0-4.83,23.63,0.84,32.56c0,0,14.94-8.82,14.23-24.78
				C903.63,442.33,889.27,450.51,889.27,450.51"/>
			<path class="st12" d="M898.94,467.29c2.8,1.69,3.14,6.25,0.77,10.19c-2.38,3.94-6.57,5.76-9.38,4.06
				c-2.8-1.69-3.14-6.25-0.77-10.19C891.94,467.42,896.14,465.59,898.94,467.29"/>
			<g class="st8">
				<g>
					<defs>
						<rect id="SVGID_49_" x="843.99" y="502.74" width="2.69" height="0.72"/>
					</defs>
					<clipPath id="SVGID_50_">
						<use xlink:href="#SVGID_49_"  style="overflow:visible;"/>
					</clipPath>
					<g class="st62">
						<defs>
							<rect id="SVGID_51_" x="843.99" y="502.74" width="2.69" height="0.72"/>
						</defs>
						<clipPath id="SVGID_52_">
							<use xlink:href="#SVGID_51_"  style="overflow:visible;"/>
						</clipPath>
						<path class="st63" d="M846.68,502.74c-0.94,0.3-1.83,0.54-2.69,0.72C844.89,503.24,845.79,503,846.68,502.74"/>
					</g>
				</g>
			</g>
			<path class="st6" d="M891.42,479.43l0.05-0.02l-2.5,6.77l-15.67,42.5c-2.39,6.48-7.11,11.89-13.32,14.89
				c-0.05,0.02-0.08,0.04-0.13,0.07c-1.65,0.79-3.37,1.43-5.14,1.91c-2.54,0.69-5.06,1.02-7.5,1c-0.69,0-1.37-0.03-2.04-0.09
				c-0.32-0.03-0.65-0.06-0.97-0.09c-10-0.7-15.81-11.63-10.8-20.32l10.27-17.8l3.22-5.56c-0.07,0.02-0.13,0.04-0.19,0.06
				c-0.94,0.3-1.83,0.54-2.69,0.72c-0.65,0.15-1.27,0.26-1.88,0.35c-7.52,1.08-14.63-3.63-16.66-10.95
				c-1.17-4.24-2.33-9.64-1.85-13.3l-3.92,0.91l8.72-35.21c0.36-1.46,0.77-2.91,1.26-4.32c1.58-4.76,3.86-9.28,6.77-13.43l0.06-0.08
				c3.68-5.24,9.19-8.61,15.19-9.66c1.58-0.28,3.2-0.39,4.82-0.34c2.28,0.07,4.58,0.49,6.82,1.25c5.15,1.76,9.53,5.25,12.4,9.87
				l0.37,0.6l13.2,21.34l2.38,3.86C896.43,462.08,896.3,471.83,891.42,479.43"/>
			<g class="st8">
				<g>
					<defs>
						<rect id="SVGID_53_" x="843.66" y="492.61" width="26.83" height="15.64"/>
					</defs>
					<clipPath id="SVGID_54_">
						<use xlink:href="#SVGID_53_"  style="overflow:visible;"/>
					</clipPath>
					<g class="st64">
						<defs>
							<rect id="SVGID_55_" x="843.66" y="492.61" width="26.83" height="15.64"/>
						</defs>
						<clipPath id="SVGID_56_">
							<use xlink:href="#SVGID_55_"  style="overflow:visible;"/>
						</clipPath>
						<path class="st65" d="M870.49,492.63c-10.58,7.89-19.47,12.74-26.84,15.62l3.22-5.56c6.98-2,13.71-4.75,20.09-8.22l3.41-1.86
							L870.49,492.63z"/>
					</g>
				</g>
			</g>
			<path class="st5" d="M934.31,503.92c-8.85-16.35-25.79-69.65-25.79-69.65s-7.45-0.1-13.92,3.18
				c-6.68-19.23-26.56-26.1-37.74-24.14c-11.85,2.08-17.22,9.01-19.73,9.81c-2.51,0.8-8.71,17.15-8.73,22.14
				c0,0,7.19-21.29,24.53-22.04c14.89-0.64,28.29,14.85,32.9,34.64c4.63,23.79-3.95,47.98-31.94,66.28
				c-28.05,18.34-116.63,96.35-15.49,115.52C939.53,658.83,959.41,550.29,934.31,503.92"/>
			<path class="st6" d="M889.08,457.48c3.18,0.78,4.87,5.03,3.78,9.5c-1.09,4.47-4.55,7.46-7.73,6.68c-3.18-0.78-4.87-5.03-3.78-9.5
				C882.44,459.69,885.9,456.7,889.08,457.48"/>
			<path class="st5" d="M828.4,445.26c0,0,14.93-2.06,18.5-12.86l1.11-3.25c0,0,35.71,38.31,39.96,29.88
				c7.68-15.2-22.82-44.2-23.69-44.05c-0.87,0.15-22.01,5.69-22.88,7.31c-0.87,1.62-7.72,5.94-7.72,5.94L828.4,445.26z"/>
			<g class="st8">
				<g>
					<defs>
						<rect id="SVGID_57_" x="823.61" y="462.28" width="5.46" height="17.28"/>
					</defs>
					<clipPath id="SVGID_58_">
						<use xlink:href="#SVGID_57_"  style="overflow:visible;"/>
					</clipPath>
					<g class="st66">
						<defs>
							<rect id="SVGID_59_" x="823.6" y="462.28" width="5.46" height="17.28"/>
						</defs>
						<clipPath id="SVGID_60_">
							<use xlink:href="#SVGID_59_"  style="overflow:visible;"/>
						</clipPath>
						<path class="st67" d="M823.6,479.56l4.2-17.28C827.8,462.28,832.57,475.12,823.6,479.56"/>
					</g>
				</g>
			</g>
			<line class="st19" x1="770.15" y1="495.49" x2="777.32" y2="483.07"/>
			<path class="st20" d="M84.47,637.28c0,6.25-5.07,11.32-11.32,11.32c-6.25,0-11.32-5.07-11.32-11.32s5.07-11.32,11.32-11.32
				C79.41,625.96,84.47,631.02,84.47,637.28"/>
		</g>
		<g>
			<defs>
				<path id="SVGID_61_" d="M203.09,600.51L21.57,914.92h309.8c10.48,0,20.17-5.59,25.42-14.67c5.24-9.08,14.93-14.67,25.41-14.67
					h161.45c92.43,0,177.85-49.31,224.06-129.36l239.83-415.38L721.62,33.94l-470.08-6.85L203.09,600.51z"/>
			</defs>
			<clipPath id="SVGID_62_">
				<use xlink:href="#SVGID_61_"  style="overflow:visible;"/>
			</clipPath>
			<polygon class="st68" points="305.99,344.78 282.33,548.42 358.26,696.81 622.6,562.99 471.08,254.95 			"/>
			<g class="st69">
				<g>
					<defs>
						<rect id="SVGID_63_" x="282.33" y="254.95" width="340.27" height="441.86"/>
					</defs>
					<clipPath id="SVGID_64_">
						<use xlink:href="#SVGID_63_"  style="overflow:visible;"/>
					</clipPath>
					<g class="st70">
						<defs>
							<rect id="SVGID_65_" x="282.33" y="254.95" width="340.27" height="441.86"/>
						</defs>
						<clipPath id="SVGID_66_">
							<use xlink:href="#SVGID_65_"  style="overflow:visible;"/>
						</clipPath>
						<polygon class="st71" points="305.99,344.78 282.33,548.42 358.26,696.81 622.6,562.99 471.08,254.95 						"/>
					</g>
				</g>
			</g>
			<path class="st68" d="M382.5,371.57l-28.73-62.34l-29.85,20.09c-14.35,9.66-25.44,23.42-31.82,39.49l-12.05,30.34
				c-2.66,6.7-2.18,14.23,1.32,20.54c8.36,15.08,29.4,16.73,40.01,3.14l33.21-42.58L382.5,371.57z"/>
			<path class="st68" d="M318.41,615.45l33.31,91.34c10.95,30.04,24.72,58.97,41.13,86.41l53.5,89.5l164.64-72.91L451.8,539.02
				L318.41,615.45z"/>
			<path class="st68" d="M408.34,271.94l-51.66,56.11l-33.82-69.96c-7.54-15.59-14.27-31.56-20.01-47.9
				c-2.81-8-5.37-16.07-6.77-22.29c-1.92-8.56-3.34-17.13-3.35-23.8l0-5.78c-0.01-1.35,0.09-2.66,0.3-3.96
				c1.66-10.7,10.01-19.35,20.99-21.18c10.59-1.75,21.14,3.35,26.36,12.72l7.75,14.37L408.34,271.94z"/>
			<g class="st69">
				<g>
					<defs>
						<rect id="SVGID_67_" x="292.73" y="132.85" width="115.62" height="195.2"/>
					</defs>
					<clipPath id="SVGID_68_">
						<use xlink:href="#SVGID_67_"  style="overflow:visible;"/>
					</clipPath>
					<g class="st72">
						<defs>
							<rect id="SVGID_69_" x="292.73" y="132.85" width="115.62" height="195.2"/>
						</defs>
						<clipPath id="SVGID_70_">
							<use xlink:href="#SVGID_69_"  style="overflow:visible;"/>
						</clipPath>
						<path class="st73" d="M408.34,271.94l-51.66,56.11l-33.82-69.96c-7.54-15.59-14.27-31.56-20.01-47.9
							c-2.81-8-5.37-16.07-6.77-22.29c-1.92-8.56-3.34-17.13-3.35-23.8l0-5.78c-0.01-1.35,0.09-2.66,0.3-3.96
							c1.66-10.7,10.01-19.35,20.99-21.18c10.59-1.75,21.14,3.35,26.36,12.72l7.75,14.37L408.34,271.94z"/>
					</g>
				</g>
			</g>
			<path class="st68" d="M823.79,1097.73H570.48L446.93,883.73l-0.97-1.69l-2.23-3.86l55.87-41.38l1.66-1.23l80.66-59.73l4.9-3.63
				l1.45-1.07l32.91-24.37l20.09,34.79l13.31,23.06l61.58,106.66l52.33,90.66c0.02,0.01,0.02,0.01,0.02,0.03l16.48,28.51
				L823.79,1097.73z"/>
			<g class="st69">
				<g>
					<defs>
						<rect id="SVGID_71_" x="362.13" y="579.3" width="186.95" height="164.9"/>
					</defs>
					<clipPath id="SVGID_72_">
						<use xlink:href="#SVGID_71_"  style="overflow:visible;"/>
					</clipPath>
					<g class="st74">
						<defs>
							<rect id="SVGID_73_" x="362.13" y="579.3" width="186.96" height="164.9"/>
						</defs>
						<clipPath id="SVGID_74_">
							<use xlink:href="#SVGID_73_"  style="overflow:visible;"/>
						</clipPath>
						<path class="st75" d="M549.09,670.48c0,0-43.48,23.14-57.66,71.49c-0.92,3.14-5.43,2.89-5.95-0.33l-5.18-31.62
							c0,0-135.92,15.92-116.21-74.81c19.71-90.73,138.21-44.04,139.57-42.8c1.35,1.24,41.92,48.74,43.12,50.99
							C547.97,645.64,549.09,670.48,549.09,670.48"/>
					</g>
				</g>
			</g>
			<path class="st76" d="M528.15,690.39L337.5,661.24c-21.17-3.24-35.71-23.02-32.47-44.17l77.7-507.51
				c3.24-21.16,23.03-35.69,44.2-32.45l190.64,29.15c21.17,3.24,35.71,23.02,32.47,44.17l-77.7,507.51
				C569.11,679.1,549.32,693.63,528.15,690.39"/>
			<path class="st77" d="M516.44,688.6l-190.64-29.17c-21.17-3.24-35.71-23.03-32.47-44.2l77.7-507.83
				c3.24-21.17,23.03-35.71,44.2-32.47l190.64,29.17c21.17,3.24,35.71,23.03,32.47,44.2l-77.7,507.83
				C557.4,677.3,537.61,691.84,516.44,688.6"/>
			<path class="st77" d="M635.04,169.88l-71.82,469.44c-2.23,14.59-20.37,23.92-34.95,21.69l-210-32.13
				c-14.59-2.23-24.6-15.87-22.37-30.46l71.82-469.44c2.23-14.59,15.86-24.62,30.45-22.39l210,32.13
				C622.76,140.95,637.28,155.28,635.04,169.88"/>
			<path class="st78" d="M565.6,623.77l-2.38,15.54c-0.12,0.78-0.29,1.55-0.5,2.29c-3.67,13.26-20.66,21.52-34.46,19.41l-210-32.13
				c-12.86-1.97-22.17-12.8-22.65-25.34c-0.07-1.69,0.02-3.4,0.29-5.13l2.38-15.54L565.6,623.77z"/>
			<path class="st79" d="M523.1,110.68l-30.87-4.72c-0.98-0.15-1.65-1.07-1.5-2.04c0.15-0.98,1.07-1.65,2.04-1.5l30.87,4.72
				c0.98,0.15,1.65,1.07,1.5,2.05C525,110.16,524.08,110.83,523.1,110.68"/>
			<path class="st79" d="M566.95,115.57c-0.54,3.53-3.84,5.95-7.36,5.41c-3.53-0.54-5.95-3.84-5.41-7.36
				c0.54-3.53,3.84-5.95,7.36-5.41C565.07,108.75,567.49,112.05,566.95,115.57"/>
			<path class="st79" d="M456.64,98.7c-0.28,1.84-2,3.1-3.84,2.82c-1.84-0.28-3.1-2-2.82-3.84c0.28-1.84,2-3.1,3.84-2.82
				C455.66,95.14,456.93,96.86,456.64,98.7"/>
			<path class="st79" d="M469.55,100.67c-0.28,1.84-2,3.1-3.84,2.82c-1.84-0.28-3.1-2-2.82-3.84c0.28-1.84,2-3.1,3.84-2.82
				C468.57,97.12,469.83,98.83,469.55,100.67"/>
			<path class="st80" d="M635.04,169.88l-11.43,74.7l-267.32-40.9l11.43-74.7c2.23-14.59,15.86-24.62,30.45-22.39l210,32.13
				C622.76,140.95,637.28,155.28,635.04,169.88"/>
			<line class="st81" x1="391.01" y1="334.61" x2="538.96" y2="357.25"/>
			
				<rect x="452.96" y="129.65" transform="matrix(0.1512 -0.9885 0.9885 0.1512 186.9696 621.9391)" class="st82" width="5.38" height="144.88"/>
			
				<rect x="407.64" y="160.69" transform="matrix(0.1512 -0.9885 0.9885 0.1512 164.5288 563.3826)" class="st82" width="5.38" height="50.39"/>
			
				<rect x="324.24" y="504.81" transform="matrix(0.1512 -0.9885 0.9885 0.1512 -228.7423 813.874)" class="st78" width="70.65" height="70.65"/>
			
				<rect x="404.4" y="517.08" transform="matrix(0.1512 -0.9885 0.9885 0.1512 -172.8283 903.5247)" class="st78" width="70.65" height="70.65"/>
			
				<rect x="484.57" y="529.34" transform="matrix(0.1512 -0.9885 0.9885 0.1512 -116.9076 993.1848)" class="st78" width="70.65" height="70.65"/>
			
				<rect x="427.41" y="142.63" transform="matrix(0.1512 -0.9885 0.9885 0.1512 134.239 712.0098)" class="st78" width="108.66" height="270.42"/>
			<polygon class="st83" points="607.17,351.99 590.73,459.39 323.43,418.49 330.88,369.79 333.29,353.98 339.86,311.09 
				383.46,317.76 388.81,318.58 399.85,320.26 400.35,320.34 			"/>
			<path class="st84" d="M420.45,325.5c-3.14,4.5-6.69,8.81-10.64,12.88c-4.13,4.26-8.56,8.09-13.2,11.48
				c-18.12,13.3-43.88,19.89-65.74,19.93l2.42-15.81l6.57-42.9l43.6,6.68l22.47,5.52L420.45,325.5z"/>
			<path class="st84" d="M430.46,358.43l-33.84-8.57l-13.25-3.35l22.55-23.23l14.52,2.22c0.17-0.21,0.31-0.42,0.46-0.64l0.21,0.74
				L430.46,358.43z"/>
			<path class="st79" d="M593.12,294.88c-2.64,17.24-18.76,29.08-36,26.44c-17.24-2.64-29.08-18.76-26.44-36
				c2.64-17.24,18.76-29.08,36-26.45C583.92,261.52,595.76,277.63,593.12,294.88"/>
			<path class="st78" d="M576.36,404.47c-2.64,17.24-18.76,29.08-36,26.44c-17.24-2.64-29.08-18.76-26.44-36
				c2.64-17.24,18.76-29.08,36-26.45C567.16,371.11,578.99,387.23,576.36,404.47"/>
			
				<rect x="442.23" y="199.76" transform="matrix(0.1512 -0.9885 0.9885 0.1512 108.5625 670.8411)" class="st77" width="5.38" height="144.88"/>
			
				<rect x="419.74" y="332.11" transform="matrix(0.1512 -0.9885 0.9885 0.1512 -18.864 741.6365)" class="st77" width="5.38" height="99.38"/>
			<path class="st80" d="M565.6,623.77l-2.38,15.54c-0.12,0.78-0.29,1.55-0.5,2.29l-0.14-0.02l0.63-4.1l-267.03-40.85l2.1-13.76
				L565.6,623.77z"/>
			<path class="st68" d="M653.79,811.09l-79.07,24.28l-64.04,19.67l-0.33-0.67l-5.01-10.36l-7.82-16.14
				c-4.12-8.51-7.04-17.5-8.68-26.73c-1.67-9.22-2.06-18.65-1.15-28.08c4.06-42.22,14.11-83.45,29.67-122.52
				c13.3-33.37,30.62-65.14,51.72-94.59l4.29-5.99c9.84-13.76,13.91-30.81,11.35-47.53l-2.49-16.09
				c-3.1-20.23-3.53-40.78-1.23-61.11c0,0,4.24-63.28,28.84-105.66c3.42-5.88,8.81-10.14,14.75-12.84c5.95-2.7,12.66-3.7,19.38-2.66
				c2.64,0.41,5.03,1.44,7.04,2.96c4.26,3.16,6.81,8.39,6.32,14.02l-4.64,55.28l-0.12,1.43l26.15,171.23
				c3.07,20.1,2.88,40.54-0.54,60.58l-12.83,105.95L653.79,811.09z"/>
			<path class="st68" d="M295.93,568.23l-0.37,0.2c-10.09,5.82-22.98,2.79-29.43-6.92l-33.39-50.27c-6.55-9.86-5.3-22.95,2.97-31.41
				l4.3-4.39c1.03-1.06,2.13-1.99,3.28-2.79c11.25-7.9,27.48-4.11,33.73,8.9l22.7,47.35l5.1,10.62
				C309.81,549.95,305.94,562.46,295.93,568.23"/>
			<g class="st69">
				<g>
					<defs>
						<rect id="SVGID_75_" x="243.29" y="468.56" width="56.43" height="60.48"/>
					</defs>
					<clipPath id="SVGID_76_">
						<use xlink:href="#SVGID_75_"  style="overflow:visible;"/>
					</clipPath>
					<g class="st85">
						<defs>
							<rect id="SVGID_77_" x="243.29" y="468.56" width="56.43" height="60.48"/>
						</defs>
						<clipPath id="SVGID_78_">
							<use xlink:href="#SVGID_77_"  style="overflow:visible;"/>
						</clipPath>
						<path class="st86" d="M299.71,528.91c-9.16,0.91-18.49-2.99-24.18-10.96l-32.25-45.28c11.25-7.9,27.48-4.11,33.73,8.9
							L299.71,528.91z"/>
					</g>
				</g>
			</g>
			<path class="st68" d="M256.45,400.44l-5.76,4.54c-11.11,8.75-14.58,24.08-8.33,36.77l31.85,64.69
				c6.15,12.5,20.96,18.07,33.83,12.72l0.45-0.19c12.75-5.3,19.27-19.54,14.94-32.66l-24.07-72.95
				C293.42,395.32,271.36,388.68,256.45,400.44"/>
			<path class="st77" d="M450.54,215.96c24.51,42.46,9.97,96.76-32.49,121.27c-42.46,24.52-96.76,9.97-121.27-32.49
				c-24.51-42.46-9.97-96.76,32.5-121.27C371.73,158.95,426.03,173.49,450.54,215.96"/>
			<path class="st82" d="M396.79,250.99c0.52-4.88-0.48-9.88-3.01-14.27l-3.39-5.88l-13.56-23.51c-1.29-2.24-2.18-4.64-2.68-7.11
				l-0.71,1.23v0c-4.19,7.27-4.19,16.24,0,23.51l0,0.01l14.06,24.4c-0.01,0-0.02,0-0.03,0c3.7,7.11,3.55,15.65-0.48,22.63
				l-0.71,1.23c-0.5-2.46-1.39-4.87-2.68-7.11l1.27,2.2l-11.44-19.84l-10.47-18.17l0.31,0.53c-1.29-2.24-2.18-4.64-2.68-7.11
				l-0.71,1.23c-4.19,7.27-4.19,16.24,0,23.51l0,0l0.44,0.77l9.72,16.87c0,0,0,0,0,0l3.39,5.88c4.19,7.28,4.19,16.24,0,23.52
				l-0.71,1.23c-0.49-2.46-1.39-4.87-2.68-7.11l1.27,2.2l-18.21-31.6l0,0c-1.66-2.89-2.66-6.03-3-9.24
				c-20.19,4.57-34.27,14.88-34.27,26.88c0,16.23,25.79,29.39,57.61,29.39c31.81,0,57.61-13.16,57.61-29.39
				C431.06,265.88,416.98,255.56,396.79,250.99"/>
			<polygon class="st77" points="430.35,358.53 394.42,337.75 430.32,317.02 			"/>
		</g>
		<g>
			<path class="st7" d="M25.71,494.99c0-1.68,18.39-3.05,41.07-3.05c22.68,0,41.07,1.36,41.07,3.05s-18.39,3.05-41.07,3.05
				C44.1,498.04,25.71,496.68,25.71,494.99"/>
			<path class="st4" d="M151.4,485.4v4.65v6.24h43.18l4.62-2.07l-16.5-3.27c0,0-8.36-2.99-8.76-5.56"/>
			<path class="st4" d="M190.72,324.48c-1.94,5.55-7.44,98.61-7.44,98.61l-9.21,62.65H151.4l0.61-45.71l0.26-19.01l1.33-98.94
				l0.05-3.6L190.72,324.48z"/>
			
				<rect x="51.1" y="257.74" transform="matrix(0.3271 -0.945 0.945 0.3271 -178.9983 272.8112)" class="st42" width="101.94" height="8.72"/>
			<polygon class="st42" points="122.8,205.93 139.27,201.55 148.19,214.98 127.1,222.19 			"/>
			<path class="st43" d="M189.26,230.6l7,41.04l9.26-3.41c0,0,4.38,2.11,4.9,7.82c0.49,5.4-3.12,10.33-8.36,11.75l-13.71,3.72
				L189.26,230.6z"/>
			<path class="st4" d="M91.32,450.23c0,0-8.72,6.67-9.06,7.83c-0.21,0.71,22.27,38.23,22.27,38.23l3.38-0.95l-0.67-24.39
				c0.32-1.75,0.84-3.48,1.56-5.16l1.37-3.21L91.32,450.23z"/>
			<path class="st4" d="M168.75,330.11l-7.93,90.7c-0.16,1.81-1.01,3.5-2.38,4.7l-51.26,44.98c0,0-17.43-1.3-17.98-19.17
				l45.76-42.94l-15.44-69.92l23.43-19.98L168.75,330.11z"/>
			<path class="st44" d="M208.25,272.05l6.13-1.29h2.49c2.56,0,4.47-2.38,3.91-4.88l-1.44-6.39c-0.21-0.94-1.58-2.31-1.58-2.31
				l-0.74-0.5c-1.05-0.71-2.33-0.98-3.58-0.76l-6.61,1.17l-15.52,12.32l12.58,6.5L208.25,272.05z"/>
			<g class="st45">
				<g>
					<defs>
						<rect id="SVGID_79_" x="191.31" y="255.84" width="29.56" height="20.06"/>
					</defs>
					<clipPath id="SVGID_80_">
						<use xlink:href="#SVGID_79_"  style="overflow:visible;"/>
					</clipPath>
					<g class="st87">
						<defs>
							<rect id="SVGID_81_" x="191.31" y="255.84" width="29.56" height="20.06"/>
						</defs>
						<clipPath id="SVGID_82_">
							<use xlink:href="#SVGID_81_"  style="overflow:visible;"/>
						</clipPath>
						<path class="st88" d="M208.25,272.05l6.13-1.29h2.49c2.56,0,4.47-2.38,3.91-4.88l-1.44-6.39c-0.21-0.94-1.58-2.31-1.58-2.31
							l-0.74-0.5c-1.05-0.71-2.33-0.98-3.58-0.76l-6.61,1.17l-15.52,12.32l12.58,6.5L208.25,272.05z"/>
					</g>
				</g>
			</g>
			<polygon class="st3" points="198.71,269.87 210.57,259.99 221.05,259.99 208.25,272.05 			"/>
			<path class="st48" d="M194.23,170.27l-2.87,2.37l-13.9-8.05l-7.4,10.44l-5.13,2.77l-7.98,6.92c-2.1-3.21-3.32-7.04-3.32-11.16
				c0-11.28,9.15-20.43,20.43-20.43C184.23,153.13,192.66,160.55,194.23,170.27"/>
			<path class="st49" d="M171.83,206.63l-4.72,15.25c0,0-7.19-0.7-13.58-5.11c-3.86-2.65-7.43-6.67-8.94-12.69
				c0,0,8.69-8.77,12.77-22.94c0.56-1.94,1.03-3.99,1.39-6.12L171.83,206.63z"/>
			<g class="st45">
				<g>
					<defs>
						<rect id="SVGID_83_" x="144.59" y="181.15" width="13.56" height="35.62"/>
					</defs>
					<clipPath id="SVGID_84_">
						<use xlink:href="#SVGID_83_"  style="overflow:visible;"/>
					</clipPath>
					<g class="st89">
						<defs>
							<rect id="SVGID_85_" x="144.59" y="181.15" width="13.56" height="35.62"/>
						</defs>
						<clipPath id="SVGID_86_">
							<use xlink:href="#SVGID_85_"  style="overflow:visible;"/>
						</clipPath>
						<path class="st90" d="M153.53,216.78c-3.86-2.65-7.43-6.67-8.94-12.69c0,0,8.69-8.77,12.78-22.94
							C157.37,181.15,160.73,201.22,153.53,216.78"/>
					</g>
				</g>
			</g>
			<path class="st1" d="M190.72,324.49l-21.97,5.63L148.86,210.9l0.41-0.03c3.63,3.24,8.41,5.21,13.66,5.21
				c2.94,0,5.73-0.62,8.25-1.73l6.46,5.78l11.12,43.44L190.72,324.49z"/>
			<path class="st49" d="M192.72,171.5l-0.11,1.89c0.02,2.49-0.41,4.98-1.11,7.35l0,0.02c-0.77,2.61-1.85,5.08-2.97,7.24l-0.01,0.01
				c-2.03,3.9-4.21,6.8-4.96,7.75c0,0.01-0.01,0.01-0.01,0.01c-0.17,0.21-0.26,0.33-0.26,0.33l-0.84,1.84l-1.57,3.44
				c-0.52,1.14-1.23,2.17-2.09,3.07c-0.6,0.63-1.29,1.19-2.04,1.67c-0.88,0.56-1.84,0.99-2.83,1.27c-0.52,0.15-1.05,0.26-1.58,0.33
				c-0.28,0.04-0.56,0.06-0.84,0.08c-0.22,0.02-0.44,0.02-0.65,0.02h-1.03l-10.41-18.07l-0.71-2.78l1.97-2.78l1.21-1.72l0.78-1.11
				l2.29-3.24l0.35-0.51l0.01-0.01l4.32-6.11l0.15-0.19l8.11-10.27l14.72,10.36L192.72,171.5z"/>
			<polygon class="st49" points="191.53,180.61 191.5,180.74 191.49,180.76 190.47,185.73 188.36,196.09 183.58,195.77 
				183.55,195.77 181.82,195.65 181.94,195.17 182.7,192.08 183.55,188.65 			"/>
			<path class="st43" d="M174.07,335.93c-10.59,5.81-55.62,5.08-54.53,2.54c0.43-1,6.47-21.38,9.44-46.94
				c0.06-0.53,0.12-1.06,0.19-1.59c2.51-22.08,4.22-47.27,5.22-64.9c0.77-13.38,1.13-22.4,1.13-22.4l5.81-6.54
				c0,0,31.96,31.6,38.14,58.47c1.39,6.04,2.41,13.19,3.05,20.7c0.41,4.83,0.66,9.81,0.75,14.75
				C183.6,311.56,180.75,332.26,174.07,335.93"/>
			<path class="st42" d="M183.25,290.02h-5.92l-0.86,6.31l-47.32-6.4c2.51-22.08,4.22-47.27,5.22-64.9l12.18,0.96l-3.32,18.65
				l-4.18,23.52l11.85,2.44l22.96,4.66h8.65C182.92,280.1,183.17,285.08,183.25,290.02"/>
			<path class="st43" d="M184.71,266.19c-0.46-0.69-11.62-39.29-15.06-51.25c-0.14,0.05-0.28,0.1-0.43,0.15l0.47-1.51l0.38-1.24
				l13.61,8.54c3.37,2.11,5.46,5.76,5.57,9.73l1.18,39.95l7.26,62.02c0.43,3.64-3.06,6.51-6.55,5.38l-2.06-0.67"/>
			<path class="st44" d="M177.78,267.46l7.99-1.27l6.02-4.02c0.6-0.4,1.31-0.58,2.03-0.52l12.42,1.07c1.06,0.09,1.5,1.39,0.71,2.11
				c-0.92,0.84-2.19,1.63-3.67,1.54c-3.09-0.18-7.84-0.18-7.84-0.18l1.36,3.02h11.77c2.14,0,3.55,2.2,2.68,4.15
				c-0.79,1.78-3.12,4.4-4.46,5.82c-0.61,0.65-1.37,1.13-2.21,1.41l-6.69,2.21c-0.92,0.3-1.9,0.34-2.84,0.12l-18.46-4.48
				L177.78,267.46z"/>
			<path class="st43" d="M141.94,220.12c0,8.19-6.64,14.83-14.83,14.83c-8.19,0-14.83-6.64-14.83-14.83s6.64-14.83,14.83-14.83
				C135.29,205.29,141.94,211.93,141.94,220.12"/>
			
				<rect x="70.13" y="318.96" transform="matrix(0.3273 -0.9449 0.9449 0.3273 -248.5359 293.1718)" class="st7" width="23.01" height="4.36"/>
			<path class="st43" d="M147.34,233.99l-19.52,86.75l-5.73-1.29l-2.77-0.62l6.01-26.71l13.51-60.04c1.04-4.66,0.57-9.35-1.18-13.5
				c-0.82-1.98-1.94-3.83-3.32-5.5c-1.66-2.02-3.7-3.77-6.07-5.13l-4.12-2.38l11.46-3.05l0.09-0.1c0.03,0.01,0.05,0.03,0.08,0.06
				c4.64,3.47,8.11,8.08,10.16,13.28C148.18,221.4,148.76,227.72,147.34,233.99"/>
			
				<rect x="108.73" y="329.48" transform="matrix(0.2195 -0.9756 0.9756 0.2195 -229.21 376.8268)" class="st7" width="24.35" height="4.36"/>
			<path class="st1" d="M112.57,385.67l-49-11.72c-2.84-0.68-4.59-3.53-3.91-6.37l9.9-41.37c0.68-2.84,3.53-4.59,6.37-3.91l49,11.72
				c2.84,0.68,4.59,3.53,3.91,6.37l-9.9,41.37C118.25,384.6,115.4,386.35,112.57,385.67"/>
			<path class="st48" d="M183.58,195.77l-0.03-0.01c-0.17,0.21-0.26,0.33-0.26,0.33l-0.84,1.84l-4.39-0.81
				c-0.12-0.02-0.22-0.03-0.34-0.03c-0.59,0-1.16,0.29-1.51,0.79c-0.42,0.59-0.45,1.38-0.09,2.01l2.4,4.11l0.26,0.44
				c-0.6,0.63-1.29,1.19-2.04,1.67c-0.88,0.56-1.84,0.99-2.83,1.27c-0.52,0.15-1.05,0.26-1.58,0.33l-0.16-0.16
				c-0.15-0.16-0.31-0.32-0.46-0.48c-4.25-4.55-7.12-10.14-8.38-16.14c-0.46-2.17-0.7-4.39-0.72-6.64c-0.01-0.23-0.01-0.47,0-0.71
				c-0.01-0.08,0-0.16,0-0.24l0.03-1.98l0.03-1.59l0.02-1.38l1.12-2.96l0.68-0.56l5.15-4.24l0.11,0.68l0.56,3.38l2.47,14.96
				c0.17,1.05,0.62,2,1.27,2.79c0.5,0.6,1.11,1.1,1.81,1.47h0.01c0.22,0.11,0.45,0.22,0.69,0.31c0.38,0.14,0.77,0.24,1.17,0.3
				l3.28,0.47c0.31,0.04,0.62,0.11,0.93,0.19c0.55,0.14,1.09,0.34,1.61,0.58C183.56,195.76,183.57,195.76,183.58,195.77"/>
			<path class="st49" d="M164.93,177.8c0,3.54-1.83,6.4-4.09,6.4c-2.26,0-4.08-2.87-4.08-6.4c0-3.54,1.83-6.4,4.08-6.4
				C163.1,171.4,164.93,174.26,164.93,177.8"/>
			<path class="st43" d="M181.01,265.65v20.17h-52.34c-1.06,0-2.02-0.23-2.87-0.72c-1.69-0.98-2.73-2.85-3.16-5.36
				c-0.02-0.08-0.03-0.15-0.04-0.23l-10.23-57.74l29.57-1.64l-0.79,18.93l-1,23.87l12.07,0.83L181.01,265.65z"/>
			<line class="st19" x1="213.69" y1="251.89" x2="222.21" y2="237.15"/>
			<path class="st1" d="M256.52,215.47c0,11.54-9.36,20.9-20.9,20.9s-20.9-9.36-20.9-20.9s9.35-20.9,20.9-20.9
				S256.52,203.93,256.52,215.47"/>
			<path class="st52" d="M229.75,214.31v-5.86c0-3.24,2.63-5.87,5.87-5.87c3.24,0,5.87,2.63,5.87,5.87v5.86h-1.81v-5.71
				c0-2.25-1.82-4.06-4.07-4.06c-2.24,0-4.06,1.82-4.06,4.06v5.71H229.75z"/>
			<path class="st52" d="M227.38,214.31h16.49c0.3,0,0.55,0.25,0.55,0.55v8.97c0,1.22-0.99,2.21-2.21,2.21h-13.18
				c-1.22,0-2.21-0.99-2.21-2.21v-8.97C226.82,214.56,227.07,214.31,227.38,214.31z"/>
			<path class="st53" d="M235.62,220.63L235.62,220.63c-0.42,0-0.76-0.34-0.76-0.76v-1.51c0-0.42,0.34-0.76,0.76-0.76
				c0.42,0,0.76,0.34,0.76,0.76v1.51C236.38,220.29,236.04,220.63,235.62,220.63z"/>
			<path class="st20" d="M803.58,465.28c0,8.94-7.24,16.18-16.18,16.18c-8.94,0-16.18-7.24-16.18-16.18
				c0-8.94,7.24-16.18,16.18-16.18C796.34,449.1,803.58,456.34,803.58,465.28"/>
			<path class="st55" d="M797.36,465.28c0,5.5-4.46,9.96-9.96,9.96c-5.5,0-9.96-4.46-9.96-9.96c0-5.5,4.46-9.96,9.96-9.96
				C792.9,455.32,797.36,459.78,797.36,465.28z"/>
			<path class="st56" d="M787.39,458.64c-1.75,0-3.52,1.38-3.22,3.22l0.4,3.22c0.22,1.44,1.33,2.41,2.81,2.41s2.6-0.97,2.82-2.41
				l0.4-3.22C790.91,460.01,789.13,458.64,787.39,458.64z"/>
			<path class="st56" d="M779.84,471.91c0.51-1.28,1.99-2.21,3.68-2.21c1.04,0,2.35,0.46,3.14,0.78c0.47,0.19,0.99,0.19,1.45,0
				c0.79-0.33,2.07-0.78,3.15-0.78c1.87,0,3.24,0.93,3.7,2.22"/>
		</g>
		<rect x="61.65" y="807.66" class="st0" width="71.11" height="71.11"/>
		<polygon class="st3" points="182.21,738.65 182.21,914.92 200.22,914.92 200.22,731.69 		"/>
		<polygon class="st3" points="123.76,794.97 123.76,914.92 141.77,914.92 141.77,788.01 		"/>
		<polygon class="st3" points="43.64,814.62 43.64,914.92 61.65,914.92 61.65,807.66 		"/>
		<rect x="200.22" y="731.69" class="st1" width="20.37" height="183.23"/>
		<g>
			<defs>
				<rect id="SVGID_87_" x="-10" y="682.11" width="274.88" height="232.81"/>
			</defs>
			<clipPath id="SVGID_88_">
				<use xlink:href="#SVGID_87_"  style="overflow:visible;"/>
			</clipPath>
			<path class="st91" d="M210.41,951.44h20.37V759.57c0-11.25-9.12-20.37-20.37-20.37V951.44z"/>
			<path class="st91" d="M161.82,814.77L161.82,814.77c27.31,0,49.44,22.14,49.44,49.44v109.24h-49.44V814.77z"/>
			<rect x="141.77" y="788.01" class="st91" width="49.44" height="185.45"/>
			<rect x="149.52" y="794.21" class="st92" width="41.69" height="3.99"/>
			<rect x="149.52" y="799.9" class="st92" width="41.69" height="3.99"/>
			<rect x="79.65" y="866.82" class="st91" width="44.11" height="106.63"/>
			<rect x="89.55" y="818.27" class="st93" width="7.66" height="14.7"/>
			<polygon class="st91" points="73.61,860.83 123.76,860.83 123.76,873.79 61.65,873.79 			"/>
			<rect x="61.65" y="873.79" class="st91" width="18" height="99.67"/>
			<polygon class="st92" points="141.77,788.01 182.21,973.46 141.77,973.46 			"/>
			<path class="st91" d="M116.78,807.66c-1.67,3.27-3.9,6.63-6.73,10c-18.68,22.27-22.53,46.99-28.75,45.28
				c-0.86-0.24-1.63-0.64-2.28-1.17v-54.11H116.78z"/>
			<rect x="78.47" y="831.45" class="st93" width="4.41" height="144.39"/>
			<path class="st92" d="M81.23,867.17c-4.53-0.4-7.9-4.3-7.7-8.85c0.38-8.74-0.76-22.31-10.29-28.94
				c-14.72-10.25-22.68-37.23-0.35-48.16c22.33-10.93,7.94-34.64,28.39-37.5c20.45-2.86,35.94,23.41,16.79,57.12
				C88.91,834.56,89.8,867.92,81.23,867.17"/>
		</g>
	</g>
</g>
<g id="iconos">
	<g>
		<path class="st7" d="M230.17,593.44c0,24.79-20.09,44.88-44.88,44.88c-24.79,0-44.88-20.1-44.88-44.88
			c0-24.79,20.09-44.88,44.88-44.88C210.08,548.56,230.17,568.65,230.17,593.44"/>
		<circle class="st4" cx="179.6" cy="586.51" r="45.35"/>
		<path class="st94" d="M152.12,582.06c2.5,0.04,5.56-3.48,7.93-1.23c2.62,2.48,5.43,5.15,3.55,6.99c-1.53,1.52-4.49,1.73-4.89,3
			c-0.78-0.58-1.52-1.2-2.09-1.87c-2.41-2.78-3.4-0.56-3.68,1.11c-0.29,1.67-2.55-0.55-3.96-0.83c-1.42-0.28,0.43-2.92,1.42-3.62
			C151.06,585.14,151.71,583.85,152.12,582.06z M204.14,600.68c0.65-1.47,6.78,0.46,6.59,3.22c-0.19,2.76-3.25,4.13-5.2,5.97
			s-2.32,3.95-0.46,3.67c1.86-0.28,4.08,0,2.69,1.28c-1.39,1.29-6.69,3.68-8.73,3.58c-2.04-0.09-6.13,0.65-7.06,1.29
			c-0.93,0.64-3.9-2.11-5.01-1.19c-1.12,0.92-2.69,1.74-4.92,1.38c-2.23-0.37-3.34,0.92-4.55,0.64c-1.21-0.28-1.3,2.94-2.78,2.76
			c-1.49-0.19-1.95-2.02-4.65-0.92c-2.69,1.1-3.8,3.58-4.64,2.57c-1.43-1.72,6.13-8.73,7.98-9.74c1.86-1.01,4.92,0.64,6.96-0.92
			c2.05-1.56,2.14-2.57-0.56-1.56c-2.69,1.01-4.18-0.92-6.59-0.92c-2.41,0-2.05-2.02-3.71-0.83c-1.67,1.2-5.94-1.56-2.41-2.57
			c3.52-1.01,6.12-2.76,6.03-4.22c-0.09-1.47-3.52-1.19-3.71-2.39c-0.19-1.19,2.51-2.57,1.86-3.86c-0.65-1.29,1.76-1.93,1.95-1.01
			c0.18,0.92,5.94,1.1,6.41-0.28c0.46-1.38-0.28-4.13,0.56-5.6c0.83-1.47,0.18-1.65-1.67-2.29c-1.86-0.65-2.51-2.21-1.02-3.86
			c1.48-1.65,0.47-4.04-1.67-1.84c-2.14,2.2-8.82,2.2-9.01,0.83c-0.19-1.38,3.25-4.32,2.23-6.25c-1.02-1.93,0.74-4.13-0.47-4.31
			c-1.21-0.18-0.28,4.31-3.62,4.87c-3.35,0.55-1.21-4.5-2.61-3.76c-1.39,0.73-4.46,3.31-4.46,1.56c0-1.74,5.39-2.02,5.2-3.86
			c-0.19-1.83-3.81-0.73-3.34-3.31c0.47-2.57,4.74-4.31,2.32-4.59c-2.41-0.28-6.41-2.21-4.55-3.68c1.86-1.47,2.88,0.55,3.81,1.37
			c0.93,0.83,2.13-0.27,1.57-1.74c-0.56-1.47,2.88-2.48,2.79-4.23c-0.09-1.75,1.02-5.79,3.9-5.23c2.88,0.55,5.58,0.83,6.78-0.09
			c1.21-0.92,1.39-3.67,2.79-2.48c1.39,1.2-1.12,2.39-0.93,3.68c0.19,1.29-3.16,4.5-4.74,5.14c-1.57,0.65,0.28,2.94,2.14,2.02
			c1.86-0.92,11.61-1.01,11.61,0.55c0,1.56-2.6,9.37-4.83,10.84c-2.23,1.46-3.62,4.13-2.23,4.04c1.39-0.09,4.09-1.1,5.67,0.92
			c1.58,2.02,3.62,0.74,4.18,3.12c0.56,2.39,1.02,6.79,4.18,7.53c3.16,0.73,5.02,6.62,4.74,7.53c-0.28,0.91,1.02,3.21,2.04,3.4
			c1.02,0.18-0.93,1.75,0.09,3.4C202.1,601.97,203.49,602.16,204.14,600.68z M158.91,552.3c1.24,1.21-1.71,5.49-4.28,5.58
			C152.71,557.95,157.67,551.09,158.91,552.3z"/>
	</g>
	<g>
		<path class="st7" d="M806.04,222.14c0,25.05-20.31,45.35-45.35,45.35c-25.05,0-45.35-20.31-45.35-45.35s20.31-45.35,45.35-45.35
			C785.73,176.79,806.04,197.09,806.04,222.14"/>
		<circle class="st4" cx="754.84" cy="215.56" r="45.35"/>
		<path class="st94" d="M795.6,201.19c-2.29-0.05-4.84,0.19-6.59-0.19c-2.07-0.46-6.46-0.69-7.61-1.84c-1.16-1.15-3-2.07-3-0.69
			c0,1.39-3.23,1.62-5.08,0.47c-1.85-1.15-4.84-2.07-6.23-3c-0.73-0.48-2.22-1.1-3.65-1.81c-1.92,0.37-7.45-1.65-11.09-1.21
			c-3.89,0.47-16.31-0.57-21.15-0.18c-4.84,0.38-5.12-1.99-7.77-1.99c-2.65,0-1.52,3.21-5.31,3.31c-3.79,0.1-4.17,2.46-1.42,4.65
			c1.57,1.24,1.38,3.86,1.15,6.26c0.79-0.1,1.37-0.32,1.71-0.73c1.16-1.38,2.31-1.15,2.31,0.23c0,1.39,2.54,0.92,3.93,0.92
			c1.38,0,0.92,1.16,2.54,0c1.61-1.16,3.92-0.69,3.92,0.69s3.46,0.69,1.62,2.54c-1.85,1.84-4.16,2.3-4.16,3.68
			c0,1.39,2.08,4.38,0.46,5.99c-1.61,1.61,0.46,4.38-1.15,4.38c-1.62,0-3.46,0.69-1.62,2.53c1.85,1.85,3.23,3.46,1.85,3.46
			c-1.38,0-2.31,2.77-1.62,3.46c0.7,0.69,3.93,2.77,1.39,3.23c-2.54,0.46-2.54,2.53-2.54,3.92c0,0.51,0.41,1.29,0.93,2.08
			c1.18-0.21,2.34-0.25,3.41,0.25c2.65,1.23,4.19,7.83,7.77,7.38c1.52-0.19,0.76-1.33,1.52-2.08c0.76-0.76,2.18-0.19,3.7-0.19
			c1.52,0,2.28-2.18,5.88-2.27c3.6-0.09,5.88-0.38,8.16-0.29c2.28,0.1,4.08-0.67,4.64-2.27c0.57-1.61,2.47-3.03,5.03-3.41
			c2.56-0.38,2.18-3.03,2.37-4.55c0.19-1.51,4.46-3.79,4.74-4.93s-2.47-5.49,0.09-9.38c2.56-3.88,5.31-4.07,5.31-6.25
			c0-2,2.65-2.74,5.88-3.13c3.22-0.37,4.26-2.56,7.02-3.69C795.24,205.59,796.07,203.89,795.6,201.19 M796.45,222.15
			c-0.51-3-7.45,0.9-5.96,1.76C793.53,225.68,796.96,225.15,796.45,222.15"/>
	</g>
	<g>
		<path class="st7" d="M327.13,706.61c0,25.05-20.31,45.35-45.35,45.35c-25.05,0-45.35-20.31-45.35-45.35s20.31-45.35,45.35-45.35
			C306.82,661.25,327.13,681.56,327.13,706.61"/>
		<circle class="st4" cx="276.06" cy="699.81" r="45.35"/>
		<path class="st94" d="M303.9,719.37c0.26-0.66-2.02-2.13-1.76-2.29c0.26-0.15,0.36-1.78,0.78-1.78c0.42,0,4.2,0.1,4.41,0
			c0.21-0.1,0.93-1.42,1.56-1.47c0.28-0.02,0.73,0.32,1.13,0.69c0.7-0.63,0.94-2.06,1.08-3.22c0.16-1.42-0.32-1.9,0.43-2.68
			c0.75-0.79,1.56-0.84,1.34-1.95c-0.21-1.11-1.24,0-2.1-0.53c-0.86-0.53-1.61-0.16-3.82,0.16c-2.2,0.32-3.23,1.21-3.12,2.74
			c0.11,1.53-0.75,0.84-0.7,2.16c0.05,1.32-1.72,1.37-1.61,2.16c0.11,0.79-1.4,0-1.83-0.26c-0.43-0.26-5.05,1.11-5.7,1.21
			c-0.65,0.11-1.83-1.32-2.74-1.26c-0.91,0.05-1.29-1.32-1.4-2.42c-0.11-1.1-1.83-2.11-2.58-3.11c-0.75-1-0.86-3.21-0.91-4.64
			c-0.05-1.42-0.22-3.84,0.81-6.63c0.14-0.37,0.2-0.7,0.22-0.99c-0.37-0.22-0.74-0.39-1.01-0.37c-0.92,0.06-2.99-1.18-3.39-1.18
			c-0.4,0-0.34-0.96-0.69-1.46c-0.34-0.51-0.12-1.46-0.58-1.8s-1.84-1.63-2.3-3.21c-0.46-1.58-3.27-2.36-4.31-2.42
			c-1.03-0.06-1.61,2.08-1.9,2.19c-0.29,0.11-2.24-1.12-2.81-1.41c-0.57-0.28-0.86-0.84-0.86-1.52c0-0.68-1.21-1.74-1.55-1.86
			c-0.35-0.11-2.76-2.42-2.76-2.42h-3.79l-0.8,1.01l-6.89,0.06c0,0-5.28-1.91-6.26-2.14c-0.98-0.22-2.7-1.41-2.7-1.41l-5.57,0.72
			c0.29,0.6,0.68,1.25,1.28,1.98c1.13,1.37,1.94,3.79,2.04,4.63c0.11,0.84,1.67,1.53,3.01,2.37c1.34,0.84,1.34,2.68,1.18,3.16
			c-0.16,0.47-1.83-0.31-1.94,0.16c-0.11,0.47,2.15,2.32,3.01,2.21c0.86-0.11,1.29,0.42,2.63,1.58c1.34,1.16,1.24,2.53,0.7,2.95
			c-0.54,0.42,1.08,1.32,2.8,2.42c1.72,1.11,2.42,2.48,2.58,3.05c0.16,0.58,0.91,0.05,1.18-0.74c0.27-0.79-0.54-1-0.54-1.9
			s-1.4-0.74-2.04-0.84c-0.64-0.11,0.05-1.48-0.59-2.11c-0.65-0.63-1.24-2.21-1.56-3.37c-0.32-1.16-1.99-2.32-2.69-3.58
			c-0.7-1.27-1.45-2.26-1.94-2.58c-0.48-0.32,0.7-0.79,0.27-1.26c-0.43-0.47-1.08-0.42-1.88-0.79c-0.81-0.37-1.34-1-1.34-1.84
			c0-0.84-0.54-2.84-0.81-3.53c-0.27-0.69,0.59-0.58,0.86-0.26c0.27,0.32,0.48,0.63,0.86,0.42c0.38-0.21,1.02-0.05,1.29,0.53
			c0.27,0.58,1.18,0.05,1.61,0.32c0.43,0.26-0.97,0.58,0.43,3c1.4,2.42,0.43,1.05,0.43,2.68c0,1.63,0.86,0.9,1.13,0.63
			c0.27-0.26,1.02,0.53,1.72,1.37c0.7,0.84,2.04,0.9,2.04,1.37c0,0.47,0.27,1.42,1.18,1.58c0.91,0.16,1.08,1.16,1.67,1.26
			c0.59,0.11,0.7,0.74,0.38,1.42c-0.32,0.69,0,1.26,1.5,1.84c1.51,0.58,0.81,0.68,1.99,1.79c1.18,1.11,4.52,4.69,5.22,5.69
			c0.7,1,0.91,1.84,1.18,2.58c0.27,0.74-0.54,1.11-0.11,1.74c0.43,0.63-0.81,0.37-0.75,0.84c0.05,0.47,0.75,2.84,1.94,2.95
			c1.18,0.1,2.53,1.53,3.49,2.32c0.97,0.79,2.42,0.63,3.87,1.16c1.45,0.53,2.69,1.79,4.78,2.37c2.1,0.58,4.14,1.47,5.48,2.32
			c1.34,0.84,3.01,0.47,4.89-0.26c1.88-0.74,3.33,0.21,4.41,0.63c0.53,0.21,1.57,1.08,2.61,1.99c0.95-1.33,1.86-2.54,1.98-2.57
			C300.94,719.68,303.64,720.03,303.9,719.37z"/>
	</g>
	<g>
		<path class="st7" d="M738.55,108.04c0,25.05-20.31,45.35-45.35,45.35s-45.35-20.31-45.35-45.35s20.31-45.35,45.35-45.35
			S738.55,82.99,738.55,108.04"/>
		<circle class="st4" cx="687.42" cy="101.81" r="45.35"/>
		<g>
			<path class="st95" d="M653.87,116.75c0.09-1.95,0.23-3.39,0.7-5.1c2.27,1.35,5.29,2,7.93,2c3.71,0,5.89-1.44,5.89-4.13
				c0-2.97-2.55-4.13-5.1-5.15l-2.74-1.07c-3.76-1.48-6.82-4.18-6.82-9.33c0-5.29,3.39-9,11.37-9c2.83,0,5.71,0.42,8.26,1.44
				c-0.14,1.95-0.37,3.2-0.74,4.87c-2.5-0.93-5.2-1.35-7.24-1.35c-4.08,0-5.52,1.72-5.52,3.85c0,2.83,2.27,4.08,4.41,4.87l2.74,1.02
				c3.94,1.48,7.56,4.18,7.56,9.42c0,5.52-4.04,9.56-12.02,9.56C659.25,118.66,655.95,118.01,653.87,116.75z"/>
			<path class="st95" d="M677.16,101.72c0-10.25,5.57-16.75,14.89-16.75c3.02,0,5.43,0.46,7.1,1.25c-0.05,1.95-0.32,3.62-0.79,5.1
				c-1.53-0.65-3.34-1.11-5.85-1.11c-5.48,0-9.09,4.18-9.09,11.6c0,7.56,3.85,11.65,9.79,11.65c2.32,0,4.41-0.51,6.12-1.3
				c-0.14,1.58-0.46,3.53-0.93,5.48c-1.86,0.7-3.8,1.02-5.98,1.02C682.49,118.66,677.16,111.88,677.16,101.72z"/>
			<path class="st95" d="M709.82,90.91v8.31h11.27c-0.09,1.44-0.28,3.8-0.56,5.15h-10.72v13.5h-6.03V85.76h18.7
				c-0.05,1.58-0.23,3.71-0.51,5.15H709.82z"/>
		</g>
	</g>
</g>
</svg>
