<?xml version="1.0" encoding="utf-8"?>
<!-- Generator: Adobe Illustrator 23.0.1, SVG Export Plug-In . SVG Version: 6.00 Build 0)  -->
<svg version="1.1" id="Capa_1" xmlns="http://www.w3.org/2000/svg" xmlns:xlink="http://www.w3.org/1999/xlink" x="0px" y="0px"
	 viewBox="0 0 1119.64 644.31" style="enable-background:new 0 0 1119.64 644.31;" xml:space="preserve">
<style type="text/css">
	.st0{fill:none;stroke:#D9EEF3;stroke-width:1.5168;stroke-miterlimit:10;stroke-dasharray:2.2752,2.2752;}
	.st1{fill:none;stroke:#D9EEF3;stroke-width:1.5168;stroke-miterlimit:10;}
	.st2{fill:none;stroke:#D9EEF3;stroke-width:1.5168;stroke-miterlimit:10;stroke-dasharray:2.2776,2.2776;}
	.st3{fill:none;stroke:#D9EEF3;stroke-width:1.5168;stroke-miterlimit:10;stroke-dasharray:2.2848,2.2848;}
	.st4{fill:#D9EEF3;}
	.st5{fill:#FFFFFF;}
	.st6{fill:#788CB1;}
	.st7{clip-path:url(#SVGID_2_);fill:none;stroke:#BAE0E7;stroke-width:1.9784;stroke-miterlimit:10;}
	.st8{clip-path:url(#SVGID_2_);fill:#88C3D4;}
	.st9{opacity:0.3;clip-path:url(#SVGID_2_);}
	.st10{clip-path:url(#SVGID_4_);}
	.st11{clip-path:url(#SVGID_6_);fill:#FFFFFF;}
	.st12{fill:#BAE0E7;}
	.st13{clip-path:url(#SVGID_8_);fill:#88C3D4;}
	.st14{clip-path:url(#SVGID_8_);fill:#FFFFFF;}
	.st15{clip-path:url(#SVGID_8_);fill:#788CB1;}
	.st16{clip-path:url(#SVGID_8_);}
	.st17{clip-path:url(#SVGID_10_);}
	.st18{clip-path:url(#SVGID_12_);fill:#BAE0E7;}
	.st19{clip-path:url(#SVGID_14_);}
	.st20{clip-path:url(#SVGID_16_);fill:#BAE0E7;}
	.st21{clip-path:url(#SVGID_8_);fill:#BAE0E7;}
	.st22{clip-path:url(#SVGID_18_);}
	.st23{clip-path:url(#SVGID_20_);fill:#BAE0E7;}
	.st24{fill:#E10F1A;}
	.st25{fill:#88C3D4;}
	.st26{fill:#F7C3B9;}
	.st27{opacity:0.6;}
	.st28{clip-path:url(#SVGID_22_);}
	.st29{clip-path:url(#SVGID_24_);fill:#F7C3B9;}
	.st30{fill:#BC4174;}
	.st31{clip-path:url(#SVGID_26_);}
	.st32{clip-path:url(#SVGID_28_);fill:#F7C3B9;}
	.st33{clip-path:url(#SVGID_30_);}
	.st34{clip-path:url(#SVGID_32_);fill:#F7C3B9;}
	.st35{fill:#48BBC1;}
	.st36{fill:#FFCC13;}
	.st37{fill:#1D426B;}
	.st38{fill:#F4A28E;}
	.st39{fill:none;stroke:#47B8B9;stroke-width:0.7584;stroke-miterlimit:10;}
	.st40{clip-path:url(#SVGID_34_);}
	.st41{clip-path:url(#SVGID_36_);fill:#FFFFFF;}
	.st42{opacity:0.5;}
	.st43{clip-path:url(#SVGID_38_);}
	.st44{clip-path:url(#SVGID_40_);fill:#F4A28E;}
	.st45{clip-path:url(#SVGID_42_);fill:#BAE0E7;}
	.st46{clip-path:url(#SVGID_42_);fill:#88C3D4;}
	.st47{clip-path:url(#SVGID_42_);fill:#D9EEF3;}
	.st48{clip-path:url(#SVGID_42_);fill:none;stroke:#BAE0E7;stroke-width:5.308;stroke-miterlimit:10;}
	.st49{fill:#833647;}
	.st50{fill:#FACFBE;}
	.st51{clip-path:url(#SVGID_44_);}
	.st52{clip-path:url(#SVGID_46_);fill:#833647;}
	.st53{fill:#39111D;}
	.st54{clip-path:url(#SVGID_48_);}
	.st55{clip-path:url(#SVGID_50_);fill:#833647;}
</style>
<g>
	<line class="st0" x1="238.69" y1="543.92" x2="437.26" y2="543.92"/>
	<g>
		<path class="st1" d="M1098.04,451.72c0,0.38,0,0.76,0,1.14"/>
		<path class="st1" d="M238.69,543.92c-0.38,0-0.76,0-1.14,0"/>
		<path class="st2" d="M235.28,543.89c-116.12-1.82-209.69-96.52-209.69-213.08c0-116.93,94.18-211.87,210.83-213.09"/>
		<path class="st1" d="M237.55,117.71c0.38,0,0.76,0,1.14,0"/>
		<path class="st1" d="M817.88,419.37c0.31-0.22,0.62-0.43,0.94-0.65"/>
		<path class="st3" d="M820.7,417.44c33.89-22.73,74.67-35.99,118.55-35.99c71.35,0,134.51,35.07,173.19,88.9"/>
		<path class="st1" d="M1113.11,471.29c0.22,0.31,0.44,0.62,0.66,0.93"/>
		<path class="st4" d="M472.69,267.79h101.58c108.16,0,208.1,57.7,262.17,151.36h99.8l82.31,142.56H913.15
			c-50.47,0-97.11-26.93-122.34-70.63c-4.49-7.78-12.79-12.57-21.77-12.57h-93.12c-50.47,0-97.11-26.92-122.34-70.63L472.69,267.79z
			"/>
		<polygon class="st5" points="786.88,458.06 786.6,463.35 782.22,544.16 776.81,544.16 772.94,472.72 772.15,458.06 		"/>
		<polygon class="st5" points="812.98,456.78 564.66,456.78 583.61,436.85 794.03,436.85 		"/>
		<rect x="564.66" y="456.78" class="st6" width="248.31" height="4.62"/>
		<polygon class="st6" points="786.88,458.06 786.6,463.35 772.94,472.72 772.15,458.06 		"/>
	</g>
	<g>
		<defs>
			<path id="SVGID_1_" d="M472.69,267.79l80.88,140.09c25.24,43.71,71.87,70.63,122.34,70.63h93.12c8.98,0,17.28,4.79,21.77,12.57
				c25.24,43.71,71.87,70.63,122.34,70.63h105.41l-82.31-142.56h-99.8c-54.08-93.66-154.02-151.36-262.17-151.36H472.69z"/>
		</defs>
		<clipPath id="SVGID_2_">
			<use xlink:href="#SVGID_1_"  style="overflow:visible;"/>
		</clipPath>
		<path class="st7" d="M774.7,404.32l5.8-10.05c9.24-16.01,26.33-25.87,44.82-25.87h20.85v229.02"/>
		<path class="st8" d="M817.17,418.62h-78.82c7.65-13.9,22.43-23.31,39.41-23.31C794.75,395.31,809.53,404.73,817.17,418.62"/>
		<g class="st9">
			<g>
				<defs>
					<rect id="SVGID_3_" x="658.95" y="418.62" width="237.51" height="185.84"/>
				</defs>
				<clipPath id="SVGID_4_">
					<use xlink:href="#SVGID_3_"  style="overflow:visible;"/>
				</clipPath>
				<g class="st10">
					<defs>
						<rect id="SVGID_5_" x="658.95" y="418.62" width="237.51" height="185.84"/>
					</defs>
					<clipPath id="SVGID_6_">
						<use xlink:href="#SVGID_5_"  style="overflow:visible;"/>
					</clipPath>
					<polygon class="st11" points="896.45,604.46 658.95,604.46 738.23,418.62 817.17,418.62 					"/>
				</g>
			</g>
		</g>
	</g>
	<g>
		<path class="st4" d="M712.43,428.43c0,51.57-21.89,98.03-56.87,130.6c-13.69,12.73-29.37,23.34-46.54,31.31
			c-18.85,8.74-39.48,14.29-61.21,15.95c-4.53,0.35-9.12,0.52-13.75,0.52c-2.98,0-5.93-0.07-8.88-0.22
			c-15.95-0.78-31.36-3.66-45.93-8.37c-71.69-23.12-123.56-90.4-123.56-169.79c0-98.51,79.86-178.37,178.37-178.37
			c97.94,0,177.43,78.92,178.36,176.64C712.43,427.27,712.43,427.85,712.43,428.43"/>
		<path class="st4" d="M663.5,72.04l-45.47,78.76l-0.49,0.86l-53.5,92.66H459.43l-45.6,78.97l-60.02,103.94H3.85l97.74-169.29
			c30.5-52.82,86.85-85.36,147.84-85.36h112.53c5.43,0,10.65-1.44,15.19-4.06c4.55-2.62,8.41-6.42,11.12-11.12
			c30.49-52.82,86.85-85.36,147.84-85.36H663.5z"/>
		<path class="st5" d="M272.47,303.74c-53.18,0-96.3-43.11-96.3-96.3v-74.45c0-53.18,43.11-96.3,96.3-96.3h1.78
			c53.18,0,96.3,43.11,96.3,96.3v74.45c0,53.18-43.11,96.3-96.3,96.3H272.47z"/>
		<path class="st4" d="M275.57,293.88c-53.18,0-96.3-43.11-96.3-96.3v-74.45c0-53.18,43.11-96.3,96.3-96.3h1.78
			c53.18,0,96.3,43.11,96.3,96.3v74.45c0,53.18-43.11,96.3-96.3,96.3H275.57z"/>
		<path class="st12" d="M277.36,268.63h-1.78c-39.24,0-71.05-31.81-71.05-71.05v-74.45c0-39.24,31.81-71.05,71.05-71.05h1.78
			c39.24,0,71.05,31.81,71.05,71.05v74.45C348.41,236.82,316.6,268.63,277.36,268.63"/>
	</g>
	<g>
		<defs>
			<path id="SVGID_7_" d="M275.57,52.07c-39.24,0-71.05,31.81-71.05,71.05v74.45c0,39.24,31.81,71.05,71.05,71.05h1.78
				c39.24,0,71.05-31.81,71.05-71.05v-74.45c0-39.24-31.81-71.05-71.05-71.05H275.57z"/>
		</defs>
		<clipPath id="SVGID_8_">
			<use xlink:href="#SVGID_7_"  style="overflow:visible;"/>
		</clipPath>
		<rect x="193.2" y="115.02" class="st13" width="171.5" height="159.35"/>
		<polygon class="st14" points="264.16,160.35 264.16,164.03 294.13,156.28 290.06,150.67 		"/>
		<polygon class="st15" points="305.89,164.03 264.16,164.03 294.13,156.28 290.06,150.67 		"/>
		<polygon class="st14" points="323.75,179.65 277.25,183.91 315.43,166.71 		"/>
		<polygon class="st15" points="369.96,235.07 302.97,230.45 302.97,224.14 370.83,211.65 		"/>
		<polygon class="st14" points="339.49,208.64 370.55,216.78 302.97,230.45 302.97,224.14 		"/>
		<path class="st14" d="M364.69,214.98l-61.73,9.16c0,0,45.92-19.5,47.5-20.13L364.69,214.98z"/>
		<polygon class="st15" points="336.73,191.92 279.46,190.53 313.24,180.43 326.67,179.14 		"/>
		<g class="st16">
			<g>
				<defs>
					<rect id="SVGID_9_" x="262.16" y="125.37" width="21.46" height="5.68"/>
				</defs>
				<clipPath id="SVGID_10_">
					<use xlink:href="#SVGID_9_"  style="overflow:visible;"/>
				</clipPath>
				<g class="st17">
					<defs>
						<rect id="SVGID_11_" x="262.16" y="125.37" width="21.46" height="5.68"/>
					</defs>
					<clipPath id="SVGID_12_">
						<use xlink:href="#SVGID_11_"  style="overflow:visible;"/>
					</clipPath>
					<polygon class="st18" points="265.53,131.05 262.16,125.37 269.31,125.37 283.62,131.05 					"/>
				</g>
			</g>
		</g>
		<g class="st16">
			<g>
				<defs>
					<rect id="SVGID_13_" x="218.4" y="139.68" width="53.64" height="7.99"/>
				</defs>
				<clipPath id="SVGID_14_">
					<use xlink:href="#SVGID_13_"  style="overflow:visible;"/>
				</clipPath>
				<g class="st19">
					<defs>
						<rect id="SVGID_15_" x="218.4" y="139.68" width="53.64" height="7.99"/>
					</defs>
					<clipPath id="SVGID_16_">
						<use xlink:href="#SVGID_15_"  style="overflow:visible;"/>
					</clipPath>
					<path class="st20" d="M272.05,143.68c0,2.21-12.01,4-26.82,4c-14.81,0-26.82-1.79-26.82-4c0-2.21,12.01-4,26.82-4
						C260.04,139.68,272.05,141.47,272.05,143.68"/>
				</g>
			</g>
		</g>
		<path class="st21" d="M267.88,141.26c0,1.86-10.14,3.38-22.66,3.38c-12.51,0-22.66-1.51-22.66-3.38s10.15-3.38,22.66-3.38
			C257.74,137.88,267.88,139.4,267.88,141.26"/>
		<g class="st16">
			<g>
				<defs>
					<rect id="SVGID_17_" x="147.06" y="167.85" width="109.57" height="37.3"/>
				</defs>
				<clipPath id="SVGID_18_">
					<use xlink:href="#SVGID_17_"  style="overflow:visible;"/>
				</clipPath>
				<g class="st22">
					<defs>
						<rect id="SVGID_19_" x="147.06" y="167.85" width="109.57" height="37.3"/>
					</defs>
					<clipPath id="SVGID_20_">
						<use xlink:href="#SVGID_19_"  style="overflow:visible;"/>
					</clipPath>
					<path class="st23" d="M256.63,186.5c0,10.3-24.53,18.65-54.78,18.65c-30.26,0-54.78-8.35-54.78-18.65
						c0-10.3,24.53-18.65,54.78-18.65C232.1,167.84,256.63,176.2,256.63,186.5"/>
				</g>
			</g>
		</g>
		<path class="st21" d="M252.64,183.46c0,10.3-24.53,18.65-54.78,18.65c-30.26,0-54.78-8.35-54.78-18.65
			c0-10.3,24.53-18.65,54.78-18.65C228.11,164.81,252.64,173.16,252.64,183.46"/>
		<polygon class="st14" points="358.09,143.68 292.03,131.05 265.53,131.05 349.88,219.54 		"/>
		<polygon class="st13" points="350.47,161.77 298.76,139.68 351.36,165.13 		"/>
		<polygon class="st14" points="370.55,216.78 374.39,145.67 358.09,143.68 347.34,149.08 353.28,159.44 351.36,183.2 
			350.47,204.01 358.83,215.05 		"/>
		<path class="st13" d="M296.03,147.67c0.63,0.21,58.33,38.82,58.33,38.82l-3.9,2.41L296.03,147.67z"/>
		<polygon class="st14" points="279.46,190.53 314.73,179.99 277.25,183.91 		"/>
	</g>
	<g>
		<path class="st5" d="M707.19,413.38c0,51.57-21.89,98.03-56.87,130.6c-13.69,12.73-29.37,23.34-46.54,31.31
			c-18.85,8.74-39.48,14.29-61.21,15.95c-4.53,0.35-9.12,0.52-13.75,0.52c-2.98,0-5.93-0.07-8.88-0.22
			c-15.95-0.78-31.36-3.66-45.93-8.37c-71.69-23.12-123.56-90.4-123.56-169.79c0-98.51,79.85-178.37,178.37-178.37
			c97.94,0,177.43,78.92,178.36,176.64C707.19,412.23,707.19,412.8,707.19,413.38"/>
		<path class="st12" d="M467.63,502.75l-16.28,28.2c-1.63,2.83-5.25,3.8-8.08,2.16l-49.54-28.6c-2.83-1.63-3.8-5.25-2.16-8.08
			l16.28-28.2c1.63-2.83,5.25-3.8,8.08-2.16l49.54,28.6C468.29,496.31,469.26,499.92,467.63,502.75"/>
		<path class="st4" d="M468.78,496.24l-16.28,28.2c-1.63,2.83-5.25,3.8-8.08,2.16L394.89,498c-2.83-1.63-3.8-5.25-2.16-8.08
			l16.28-28.2c1.63-2.83,5.25-3.8,8.08-2.16l49.54,28.6C469.44,489.8,470.41,493.42,468.78,496.24"/>
		
			<rect x="414.03" y="460.86" transform="matrix(0.5 -0.866 0.866 0.5 -210.0053 619.5832)" class="st5" width="35.1" height="61.61"/>
		
			<rect x="430.44" y="486.32" transform="matrix(0.5 -0.866 0.866 0.5 -213.9765 629.6566)" class="st4" width="15.74" height="27.63"/>
		<path class="st4" d="M427.59,477.27c0,3.58-2.9,6.48-6.48,6.48c-3.58,0-6.48-2.9-6.48-6.48c0-3.58,2.9-6.47,6.48-6.47
			C424.69,470.8,427.59,473.7,427.59,477.27"/>
		
			<rect x="482.04" y="499.97" transform="matrix(0.9687 -0.2483 0.2483 0.9687 -113.3373 141.9093)" class="st4" width="47.81" height="40.65"/>
		
			<rect x="478.66" y="508.76" transform="matrix(0.9687 -0.2483 0.2483 0.9687 -115.6249 141.3468)" class="st12" width="47.81" height="40.65"/>
		<rect x="304.41" y="335.19" class="st5" width="14" height="14"/>
		<path class="st24" d="M893.67,272.72l-60.32-104.48c-23.94-41.45-66.07-69.54-113.69-74.49c-1.19-0.12-2.39-0.24-3.58-0.34
			l-19.82-1.69l-43.04,11.31l-17.35,13.77c-13.13,10.42-19.39,27.27-16.25,43.73c2.79,14.61,8.01,28.66,15.45,41.54l42.82,74.16
			l10.73,3.2l1.98-24.78l5.67,18.05H893.67z"/>
		<path class="st12" d="M878.09,137.48c-1.45,0.11-2.9,0.36-4.35,0.77c-11.77,3.3-18.61,15.37-15.38,27.16
			c2.27,8.27,8.91,14.13,16.73,15.81c1.97,0.42,3.77,1.47,5.07,3.01c5.54,6.52,14.62,9.52,23.37,6.85
			c11.53-3.52,18.14-15.75,14.78-27.33c-0.03-0.12-0.07-0.23-0.1-0.34c-1.14-3.72,0.22-7.72,3.3-10.1
			c6.99-5.38,10.35-14.68,7.76-23.67c-3.37-11.71-15.68-18.51-27.39-15.15c-7.89,2.27-13.54,8.54-15.38,15.98
			C885.53,134.38,882.11,137.18,878.09,137.48"/>
		<path class="st25" d="M912.11,164.24c-1.31-0.62-2.7-1.13-4.16-1.5c-11.86-2.98-23.79,4.1-26.84,15.94
			c-2.14,8.3,0.72,16.69,6.67,22.03c1.5,1.35,2.54,3.14,2.91,5.13c1.57,8.41,7.97,15.53,16.89,17.55
			c11.76,2.66,23.56-4.67,26.4-16.38c0.03-0.12,0.06-0.23,0.08-0.35c0.86-3.8,4.02-6.6,7.88-7.13c8.74-1.21,16.27-7.6,18.48-16.69
			c2.89-11.84-4.42-23.86-16.25-26.75c-7.98-1.95-16,0.69-21.29,6.24C920.11,165.25,915.76,165.98,912.11,164.24"/>
		<path class="st12" d="M960.44,182.84c-2.22,9.09-9.75,15.49-18.49,16.69c-3.86,0.53-7.03,3.33-7.88,7.13
			c-0.02,0.11-0.05,0.23-0.08,0.35c-0.88,3.61-2.6,6.81-4.93,9.42c-0.96,1.09-2.03,2.08-3.18,2.96c-4.96,3.76-11.45,5.43-17.95,4.07
			c-0.1-0.02-0.21-0.05-0.33-0.07c-8.68-1.97-14.97-8.75-16.75-16.86c-0.05-0.23-0.1-0.45-0.14-0.68c-0.36-1.98-1.41-3.78-2.91-5.13
			c-5.95-5.34-8.81-13.72-6.67-22.03c3.05-11.84,14.98-18.92,26.84-15.94c1.46,0.36,2.85,0.87,4.16,1.49
			c3.64,1.74,7.99,1.01,10.78-1.91c5.29-5.54,13.31-8.19,21.28-6.23C956.01,158.99,963.32,171,960.44,182.84"/>
		<path class="st25" d="M933.65,217.63l-7.78,1.77l-17.95,4.07c-0.1-0.02-0.22-0.05-0.33-0.07c-8.68-1.97-14.97-8.75-16.75-16.86
			l38.21,9.91L933.65,217.63z"/>
		<polygon class="st4" points="884.69,216.52 900.62,272.72 912.3,272.72 923.98,272.72 939.92,216.52 		"/>
		<path class="st26" d="M575.72,192.69l-3.59-1.01c0,0-0.01,0-0.02-0.01l-0.11-0.06c-0.07-0.03-0.16-0.08-0.26-0.14l-11.95-6.5
			c-1.54-0.84-2.25-2.68-1.67-4.33c0.54-1.52,1.96-2.48,3.49-2.48c0.35,0,0.7,0.05,1.06,0.16l3.97,1.17l3.64,1.07l4.67,1.38
			L575.72,192.69z"/>
		<g class="st27">
			<g>
				<defs>
					<rect id="SVGID_21_" x="566.63" y="172.59" width="10.95" height="22.92"/>
				</defs>
				<clipPath id="SVGID_22_">
					<use xlink:href="#SVGID_21_"  style="overflow:visible;"/>
				</clipPath>
				<g class="st28">
					<defs>
						<rect id="SVGID_23_" x="566.63" y="172.59" width="10.95" height="22.92"/>
					</defs>
					<clipPath id="SVGID_24_">
						<use xlink:href="#SVGID_23_"  style="overflow:visible;"/>
					</clipPath>
					<path class="st29" d="M577.58,195.52h-4.82l-0.64-3.84c0,0-0.01,0-0.02-0.01l-0.11-0.06c-0.07-0.03-0.16-0.08-0.26-0.14
						c-1.3-0.78-5.31-3.86-5.09-11.98l3.64,1.07l-0.44-2.68c-0.1-0.57-0.04-1.16,0.14-1.7l1.2-3.57c2,1.36,3.9,4.54,3.9,4.54
						L577.58,195.52z"/>
				</g>
			</g>
		</g>
		<rect x="538.61" y="270.11" class="st4" width="398.07" height="55.53"/>
		<path class="st25" d="M526.96,289.55c0-2.67,34.76-4.83,77.64-4.83c42.88,0,77.64,2.16,77.64,4.83c0,2.67-34.76,4.83-77.64,4.83
			C561.72,294.37,526.96,292.21,526.96,289.55"/>
		<polygon class="st12" points="982.3,289.28 836.72,289.28 819.07,309.28 819.07,312.55 964.66,312.55 982.3,292.56 		"/>
		<path class="st26" d="M673.99,143.43c-0.47-1.42-1.06-2.76-1.54-4.09c-0.32-0.87-0.63-1.73-0.92-2.57
			c-3.07-8.76-4.78-15.49-4.78-15.49l18.69-29.34l3.33-5.23l0.39-0.61l0.44-0.69l4.98-7.82l1.69-2.66c0,0,0.29,0.99,0.87,2.59
			c0.56,1.53,1.39,3.62,2.51,5.94c1.32,2.72,3,5.74,5.1,8.53c7.69,10.24,11.94,22.5,13.73,35.18
			C724.5,169.93,682.59,169.49,673.99,143.43"/>
		<polygon class="st5" points="967.82,305.22 822.23,305.22 839.88,285.22 985.47,285.22 		"/>
		<path class="st30" d="M703.04,49.45c0,24.26-19.68,43.94-43.94,43.94c-9.34,0-18-2.92-25.12-7.89l13.34-1.89L642.24,61l-1.57-7
			l-16.92,3.9l-7.41,1.71c-0.25-1.04-0.46-2.1-0.63-3.18c-0.09-0.54-0.16-1.08-0.23-1.62c-0.21-1.76-0.33-3.55-0.33-5.37
			c0-24.26,19.67-43.93,43.94-43.93c7.88,0,15.27,2.07,21.67,5.71c9.12,5.18,16.22,13.54,19.76,23.57
			C702.16,39.37,703.04,44.31,703.04,49.45"/>
		<path class="st26" d="M697.14,77.53l-16.54,37.19c-3.79,9.63-15.34,13.46-24.18,8.06c-3.66-2.23-7.09-4.72-9.99-7.02l-7.31-5.81
			c-2.26-1.78-4.24-3.86-5.9-6.17c-2.64-3.63-4.48-7.8-5.38-12.26l-5.04-24.97c-0.99-4.92,0.68-10,4.39-13.37
			c8.59-7.78,19.94-11.79,31.51-11.12l17.64,1.02l15.51,24.79l1.17-2.63C694.21,65.24,697.14,77.53,697.14,77.53"/>
		<polygon class="st26" points="623.54,70.28 630.56,69.39 647.31,101.75 629.56,104.18 		"/>
		<path class="st26" d="M652.91,238.14c8.2-4.73,21.51,2.98,29.73,17.22c8.22,14.24,8.25,29.63,0.05,34.36
			c-8.2,4.73-21.51-2.98-29.73-17.22C644.73,258.25,644.71,242.87,652.91,238.14"/>
		<polygon class="st26" points="654.42,274.89 613.76,214.93 623.85,196.98 675.95,246.29 		"/>
		<path class="st26" d="M813.85,174.59L872.31,277l26.57,0.65l30.58,5.21c1.67,0.28,2.81,1.85,2.56,3.53
			c-0.24,1.62-1.7,2.78-3.34,2.65l-19.25-1.61l-19.22,3.3c-0.52,0.01-0.57,0.76-0.06,0.84l13.69,1.98c0.9,0.09,1.72,0.5,2.32,1.11
			c0.6,0.62,1,1.43,1.09,2.34c0.19,2.16-1.46,4.05-3.64,4.13c-7.88,0.3-20.44,0.27-29.14-0.19c-11.43-0.61-18.13-9.88-18.13-9.88
			l0.03-0.01l-83.67-107.9L813.85,174.59z"/>
		<path class="st26" d="M625.21,192.84c-2.37-3.6-6.26-5.91-10.54-6.29l-7.5-0.65l-2.08-4.09l1.45,0.67
			c1.06,0.48,2.31,0.15,2.98-0.8l0.12-0.17c0.8-1.14,0.48-2.73-0.7-3.46l-3.58-2.2l2.18-2c0.69-0.64,0.84-1.68,0.35-2.48
			c-0.36-0.62-1.02-0.96-1.7-0.96c-0.21,0-0.42,0.03-0.63,0.1l-5.67,1.91l-7.52,2.04c-1.26,0.34-2.2,1.39-2.39,2.68l-1.58,10.67
			l0.02-11.06c0.03-0.42,0.13-0.81,0.3-1.19l5.89-13.6c0.71-1.62-0.23-3.49-1.97-3.89c-1.27-0.29-2.58,0.4-3.19,1.54l-8.93,16.36
			c-0.27,0.49-0.42,1.02-0.46,1.58l-0.59,9.72l-2-9.75c-0.11-0.49-0.1-1.01,0.01-1.49l3.61-15.83c0.35-1.54-0.69-3.06-2.25-3.29
			c-1.31-0.19-2.55,0.57-2.97,1.82l-4.67,13.89l-1.2,3.57c-0.18,0.55-0.24,1.13-0.14,1.7l0.44,2.68l1.84,11.13l0.64,3.84l1.02,6.2
			c0.27,1.63,1.48,2.96,3.09,3.36l36.88,9.85l21.11-7.48L625.21,192.84z"/>
		<path class="st26" d="M695.13,61.06c0-6.03-2.81-10.92-6.27-10.92c-3.46,0-6.27,4.89-6.27,10.92s2.81,10.92,6.27,10.92
			C692.32,71.97,695.13,67.09,695.13,61.06"/>
		<polygon class="st26" points="633.03,69.39 635.43,50.14 640.38,69.39 		"/>
		<path class="st30" d="M713.9,26.55c0,9.26-7.51,16.77-16.77,16.77c-9.26,0-16.76-7.51-16.76-16.77s7.51-16.77,16.76-16.77
			C706.39,9.79,713.9,17.29,713.9,26.55"/>
		<g class="st27">
			<g>
				<defs>
					<rect id="SVGID_25_" x="632.56" y="80.9" width="5.85" height="22.89"/>
				</defs>
				<clipPath id="SVGID_26_">
					<use xlink:href="#SVGID_25_"  style="overflow:visible;"/>
				</clipPath>
				<g class="st31">
					<defs>
						<rect id="SVGID_27_" x="632.56" y="80.9" width="5.85" height="22.89"/>
					</defs>
					<clipPath id="SVGID_28_">
						<use xlink:href="#SVGID_27_"  style="overflow:visible;"/>
					</clipPath>
					<path class="st32" d="M633.21,103.79l-0.65-22.89l5.46,14.72C639.37,99.25,637.04,103.21,633.21,103.79"/>
				</g>
			</g>
		</g>
		<path class="st30" d="M701.4,39.59c-13.24,16.03-33.27,26.25-55.68,26.25c-0.87,0-1.75-0.02-2.62-0.05
			c-1.24-0.04-2.48-0.11-3.71-0.22l-3.97-15.43l-1.83,14.69c-3.06-0.52-6.07-1.24-8.98-2.13c-2.84-0.86-5.6-1.89-8.27-3.09
			c-0.21-1.76-0.33-3.55-0.33-5.37c0-24.27,19.67-43.93,43.95-43.93c7.88,0,15.27,2.07,21.67,5.71
			C690.76,21.2,697.85,29.56,701.4,39.59"/>
		<path class="st24" d="M799.68,138.38l19.39,36.08l-51.98,23.06l-31.38-46.43l30.27-20.86
			C777.4,122.37,793.12,126.17,799.68,138.38"/>
		<g class="st27">
			<g>
				<defs>
					<rect id="SVGID_29_" x="667.78" y="95.42" width="21.4" height="41.35"/>
				</defs>
				<clipPath id="SVGID_30_">
					<use xlink:href="#SVGID_29_"  style="overflow:visible;"/>
				</clipPath>
				<g class="st33">
					<defs>
						<rect id="SVGID_31_" x="667.78" y="95.42" width="21.4" height="41.35"/>
					</defs>
					<clipPath id="SVGID_32_">
						<use xlink:href="#SVGID_31_"  style="overflow:visible;"/>
					</clipPath>
					<path class="st34" d="M689.18,95.42c-3.77,23.91-10.62,35.8-17.65,41.35c-1.67-4.78-2.93-8.95-3.75-11.75
						c5.54-0.89,10.56-4.56,12.81-10.3L689.18,95.42z"/>
				</g>
			</g>
		</g>
		<path class="st35" d="M777.02,63.79c0,3.85-3.12,6.97-6.97,6.97c-3.85,0-6.97-3.12-6.97-6.97c0-3.85,3.12-6.97,6.97-6.97
			C773.9,56.82,777.02,59.94,777.02,63.79"/>
		<path class="st4" d="M84.63,471.84c0,3.17-2.57,5.73-5.73,5.73c-3.17,0-5.73-2.57-5.73-5.73s2.57-5.73,5.73-5.73
			C82.06,466.11,84.63,468.67,84.63,471.84"/>
		<path class="st36" d="M339.41,543.92c0,3.17-2.57,5.73-5.73,5.73c-3.17,0-5.73-2.57-5.73-5.73s2.57-5.73,5.73-5.73
			C336.84,538.18,339.41,540.75,339.41,543.92"/>
		<path class="st37" d="M606.59,614.85c12.88-4.84,24.74-11.68,35.53-20.3l7.4,15.28c-11.13,9.12-23.41,16.3-36.8,21.33
			c-17.92,6.74-36.87,9.28-56.48,7.95l-4.45-16.21C570.81,623.97,589.19,621.39,606.59,614.85"/>
		
			<rect x="536.44" y="412.53" transform="matrix(0.9687 -0.2483 0.2483 0.9687 -91.3823 154.9089)" class="st4" width="64.02" height="54.42"/>
		<path class="st12" d="M583.37,470.26l-9.97-17.08c-0.49-0.83-1.24-1.48-2.14-1.84l-8.43-3.39c-2.14-0.85-4.57,0.1-5.55,2.18
			l-7.35,15.54c-0.69,1.46-0.24,3.19,1.07,4.12c0.4,0.28,0.84,0.46,1.29,0.55c1.3,0.26,2.71-0.29,3.46-1.5l1.64-2.63l6.8,7.69
			c2.74,3.09,6.11,5.54,9.89,7.2l9.93,4.33l7.25-5.9L583.37,470.26z"/>
		<path class="st12" d="M591.61,477.73l-13.22,9.18l35,75c0,0,41.14-34.26,41.27-35.03C654.78,526.11,591.61,477.73,591.61,477.73"
			/>
		<path class="st38" d="M504.32,523.47l-1.45-13.15l-5.47-8.96c-1.23-2.01-2.12-4.2-2.64-6.5l-2.24-9.85
			c-0.03-0.14,0.03-0.28,0.15-0.35c0.86-0.53,1.99-0.26,2.52,0.61l5.52,9.04l1.45-16.83c0.17-2.02,1.52-3.74,3.44-4.38
			c0.56-0.19,1.37-0.44,2.2-0.7c1.93-0.59,3.99,0.36,4.8,2.21c0,0,9.4,24.28,6.08,35.16l-0.67,2.05l-0.47,16.24L504.32,523.47z"/>
		<path class="st25" d="M664.23,574.63c-3.93,5.49-8.49,11.38-13.66,17.23c-24.66,27.95-62.2,39.59-97.64,32.17
			c-0.25-0.05-0.49-0.1-0.74-0.16c-2.86-0.61-5.71-1.36-8.53-2.22c-3.82-1.18-7.18-3.33-9.82-6.16c-2.64-2.82-4.56-6.33-5.49-10.22
			c-0.03,0-0.05-0.01-0.08-0.01c-1.71-0.22-28.95-4.1-28.95-30.14l1.89-63.76l18.65-1.08l5.34,48.98c0.47,4.31,4.8,7.08,8.9,5.7
			l51.25-17.2l35.54-13.15l31.91-11.82C652.82,522.78,683.67,547.45,664.23,574.63"/>
		<path class="st37" d="M552.2,623.86c-2.86-0.61-5.7-1.36-8.53-2.22c-3.82-1.18-7.18-3.33-9.82-6.16
			c-2.64-2.82-4.56-6.33-5.49-10.22c9.56,0.83,18.52-2.14,18.52-2.14L552.2,623.86z"/>
		<path class="st38" d="M586.25,460.68l-8.58-17.82c-0.42-0.86-1.12-1.57-1.98-2l-8.13-4.05c-2.06-1.02-4.56-0.26-5.71,1.73
			l-8.56,14.9c-0.8,1.4-0.49,3.16,0.74,4.2c0.37,0.32,0.8,0.53,1.24,0.65c1.28,0.36,2.72-0.08,3.57-1.22l1.85-2.49l6.17,8.21
			c2.49,3.3,5.65,6.01,9.29,7.96l9.55,5.1l7.69-5.3L586.25,460.68z M563.19,447.79l2.96-4.71l2.21,0.66l0.39,3.9L563.19,447.79z"/>
		<path class="st38" d="M631.39,553.3c-3.49,8.83-16.44,13.99-28.92,11.52c-10.88-2.16-17.82-9.39-17.1-17.07l23.42-8.67l12.13-4.49
			C629.73,538.35,634.29,545.93,631.39,553.3"/>
		<path class="st25" d="M593.87,468.77l-13.91,8.1l28.93,77.54c0,0,43.74-30.88,43.92-31.64C653,522.03,593.87,468.77,593.87,468.77
			"/>
		<path class="st24" d="M591.24,524.11l-1.25-9.65l-3.18-2.56c-3.34-2.67-3.56-7.74-0.38-10.59c8.22-7.4,21.67-10.59,31.71-8.37
			c2.72,0.61,5.19,1.61,7.24,3.03c1.27,0.89,2.1,1.91,2.58,3.03L591.24,524.11z"/>
		<path class="st36" d="M558.63,447.92l-7.26,0.94l0.14,1.39l4.61,0.73l26.15-0.78c0,0-0.3-2.87-0.65-2.88
			C581.27,447.32,558.63,447.92,558.63,447.92"/>
		<path class="st38" d="M568.93,458.03l-10.35-4.73c-1.61-0.74-2.21-2.72-1.26-4.22c0.73-1.16,2.18-1.66,3.47-1.19l11.54,4.17
			L568.93,458.03z"/>
		<path class="st38" d="M644.44,534.08c-4.71,16.87-22.2,26.71-39.06,21.99c-0.89-0.25-1.76-0.53-2.6-0.85
			c-1.74-0.65-3.4-1.44-4.96-2.37c-0.01,0-0.01-0.01-0.02-0.01c-0.7-0.41-1.37-0.85-2.04-1.3c-0.01-0.02-0.01-0.02-0.02-0.02
			c-0.79-0.54-1.53-1.12-2.26-1.73c-0.23-0.2-0.46-0.4-0.69-0.61c-3.31-2.96-5.95-6.58-7.77-10.58c-0.23-0.49-0.44-0.99-0.64-1.5
			c-0.18-0.46-0.36-0.93-0.52-1.41c-0.22-0.66-0.42-1.32-0.61-2c-0.31-1.19-0.56-2.4-0.74-3.63c-0.03-0.18-0.06-0.36-0.08-0.55
			c-0.11-0.93-0.19-1.85-0.22-2.78c-0.03-0.71-0.03-1.43-0.01-2.15c0.02-0.58,0.05-1.15,0.1-1.72c0.16-1.95,0.52-3.9,1.06-5.85
			c4.71-16.86,22.2-26.72,39.06-22C639.31,499.73,649.16,517.22,644.44,534.08"/>
		<path class="st24" d="M645.6,526.76c-0.1,2.43-0.48,4.88-1.16,7.32c-1.05,3.75-2.72,7.15-4.89,10.12
			c-13.36,18.36-41.88,15.22-51.16-5.5c-0.51-1.15-0.74-1.85-0.74-1.85v-0.01l-1.18-5.56l-2.08,5.82c-0.18-0.46-0.36-0.93-0.52-1.41
			c-0.22-0.66-0.42-1.32-0.61-2c-0.24-0.9-0.43-1.81-0.59-2.74c-0.05-0.3-0.1-0.6-0.14-0.9c-0.03-0.18-0.06-0.36-0.08-0.55
			c-0.11-0.93-0.19-1.85-0.22-2.78c-0.01-0.18-0.02-0.36-0.01-0.53c-0.02-0.54-0.02-1.08,0-1.62c0.02-0.58,0.05-1.15,0.1-1.72
			c0.11-1.43,0.34-2.87,0.67-4.32c0.11-0.52,0.24-1.02,0.39-1.54c0.58-2.07,1.35-4.03,2.29-5.88c6.7-13.19,21.98-20.26,36.77-16.12
			C636.87,499.04,646.17,512.43,645.6,526.76"/>
		<path class="st38" d="M588.47,535.35c-0.23,0.55-0.51,1.05-0.83,1.49v0.01c-0.06,0.09-0.13,0.17-0.2,0.26
			c-0.03,0.05-0.07,0.1-0.1,0.14h-0.01c-0.12,0.15-0.26,0.29-0.38,0.42c-0.05,0.05-0.08,0.08-0.14,0.13
			c-0.49,0.48-1.05,0.87-1.64,1.14c-0.05-0.11-0.11-0.22-0.16-0.33c-0.23-0.49-0.44-0.99-0.64-1.5c-0.18-0.46-0.36-0.93-0.52-1.41
			c-0.22-0.66-0.42-1.32-0.61-2c-0.31-1.19-0.56-2.4-0.74-3.63c-0.03-0.18-0.06-0.36-0.08-0.55c-0.11-0.92-0.19-1.85-0.22-2.78
			c-0.01-0.17-0.02-0.36-0.01-0.53c1.28-0.51,2.68-0.46,3.93,0.24C588.87,527.94,589.92,531.93,588.47,535.35"/>
		<path class="st4" d="M518.88,503.78l-10.55,4.3c-1.17,0.48-2.51-0.09-2.99-1.26l-11.44-28.12c-0.48-1.17,0.09-2.51,1.26-2.99
			l10.56-4.3c1.17-0.48,2.51,0.09,2.99,1.26l11.44,28.12C520.61,501.96,520.05,503.3,518.88,503.78"/>
		<line class="st39" x1="546.3" y1="458.03" x2="567.44" y2="421.4"/>
		
			<rect x="186.99" y="368.78" transform="matrix(3.322723e-03 -1 1 3.322723e-03 -200.4903 601.1614)" class="st4" width="28.69" height="64.77"/>
		<path class="st38" d="M192.38,410.82c-0.61-0.61-1.64-0.26-1.76,0.59c-0.18,1.31-0.43,3.05-0.65,4.61l-0.92-10.72
			c-0.06-0.71-0.39-1.36-0.93-1.82l-1.89-1.64c-1.47-1.28-3.76-0.64-4.37,1.2l-3.39,10.3c-0.57,1.74-0.66,3.6-0.24,5.38l1.68,7.18
			l0.53,1.29l1.12,10.48l8.31-3.63l0.18-5.39l2.55-7.79c0.06-0.19,0.1-0.39,0.1-0.6v-8.72
			C192.68,411.28,192.57,411.02,192.38,410.82"/>
		<path class="st37" d="M272.79,387.7v7.42c0,5.02-4.07,9.09-9.09,9.09c-5.02,0-9.09-4.07-9.09-9.09v-7.42
			c0-5.02,4.07-9.09,9.09-9.09C268.72,378.61,272.79,382.68,272.79,387.7"/>
		<path class="st38" d="M270.92,411.24l-5.68,9.88l-6.75-2.31l-0.93-19.81c-0.09-2.02,0.33-4.03,1.24-5.83l2.03-4.02
			c1.11-2.19,4.11-2.5,5.64-0.58l4.72,5.93c0.52,0.66,0.78,1.49,0.72,2.32L270.92,411.24z"/>
		<polygon class="st25" points="232.48,351.11 227.9,361.9 216.03,361.9 211.44,351.11 		"/>
		<path class="st5" d="M289.74,365.2v0.04H154.18v-0.04c0-3.65,2.94-6.61,6.58-6.64H283.1C286.77,358.56,289.74,361.53,289.74,365.2
			"/>
		<path class="st25" d="M187.02,327.08c0,3.05-11.57,5.52-25.85,5.52c-14.28,0-25.85-2.47-25.85-5.52c0-3.05,11.58-5.52,25.85-5.52
			C175.44,321.56,187.02,324.03,187.02,327.08"/>
		<path class="st12" d="M175.03,284.19c-2.14-1.12-4.56-1.37-7-0.87c-4.74,0.96-9.55,4.75-12.49,10.4
			c-4.46,8.57-2.96,18.19,3.35,21.49c0.41,0.21,0.82,0.39,1.24,0.54c1.23,0.44,2.53,0.62,3.86,0.57
			c5.32-0.21,11.06-4.22,14.39-10.64c0.55-1.05,1-2.12,1.37-3.18C182.39,294.84,180.56,287.09,175.03,284.19 M174.87,303.84
			c-2.38,4.56-6.49,7.36-10.25,7.38c-1.14,0.01-2.23-0.25-3.24-0.77c-0.45-0.24-0.86-0.52-1.24-0.84c-3.3-2.8-3.85-8.71-1.08-14.04
			c1.98-3.8,5.17-6.37,8.35-7.13c1.79-0.43,3.57-0.29,5.14,0.53c4.03,2.12,5.23,7.97,2.95,13.53
			C175.31,302.94,175.1,303.4,174.87,303.84"/>
		<path class="st12" d="M169.14,274.18c0,0.03-0.01,0.05-0.01,0.08v0.01l-1.11,9.06l-0.62,5.11l-1.72,14.06l-1.07,8.72l-0.63,5.1
			l-0.31,2.59c-0.36,2.94-1.64,5.57-3.54,7.6c-2.47,2.66-6,4.3-9.86,4.3h-6.14c-6.23,0-11.58-4.26-13.09-10.19
			c-0.13-0.48-0.22-0.97-0.29-1.46l-4.75-33.66l-1.59-11.24c0-0.03-0.01-0.06-0.01-0.09H169.14z"/>
		<path class="st5" d="M169.14,274.18c0,0.03-0.01,0.05-0.01,0.08v0.01l-1.11,9.06l-0.62,5.11l-1.72,14.06l-1.07,8.72l-0.63,5.1
			l-0.31,2.59c-0.36,2.94-1.64,5.57-3.54,7.6c-2.47,2.66-6,4.3-9.86,4.3h-3.29c1.57-0.73,2.97-1.76,4.14-3.02
			c1.9-2.03,3.18-4.65,3.54-7.6l0.31-2.59l0.63-5.1l1.07-8.72l1.72-14.06l0.62-5.11l1.11-9.06v-0.01c0-0.03,0.01-0.05,0.01-0.08"/>
		<path class="st30" d="M169.14,274.18c0,0.66-2.31,1.26-6.07,1.7c-4.08,0.48-9.88,0.78-16.3,0.78c-6.43,0-12.22-0.3-16.3-0.78
			c-3.76-0.45-6.07-1.04-6.07-1.7c0-1.37,10.02-2.49,22.37-2.49C159.12,271.69,169.14,272.8,169.14,274.18"/>
		<path class="st5" d="M186.69,192.53l-26.65,35.46c-5.54,7.36-8.24,16.48-7.62,25.67l1.23,18.16l0.32,4.72
			c-2.26,0.08-4.68,0.13-7.2,0.13c-1.57,0-3.11-0.02-4.59-0.06l-2.2-4.8l-14.44-31.56c-7.13-15.57-3.08-33.97,9.92-45.13
			c8.73-7.49,13.39-18.23,13.39-29.16c0-6.02-1.42-12.11-4.35-17.73l-25.65-49.24c-2.89-5.53-0.45-12.35,5.29-14.8
			c1.36-0.59,2.79-0.87,4.22-0.87c3.08,0,6.08,1.34,8.17,3.79l48.75,57.52C196.88,158.3,197.47,178.18,186.69,192.53"/>
		<g class="st27">
			<g>
				<defs>
					<rect id="SVGID_33_" x="132.14" y="88.85" width="78.38" height="187.82"/>
				</defs>
				<clipPath id="SVGID_34_">
					<use xlink:href="#SVGID_33_"  style="overflow:visible;"/>
				</clipPath>
				<g class="st40">
					<defs>
						<rect id="SVGID_35_" x="132.14" y="88.85" width="78.38" height="187.82"/>
					</defs>
					<clipPath id="SVGID_36_">
						<use xlink:href="#SVGID_35_"  style="overflow:visible;"/>
					</clipPath>
					<path class="st41" d="M200.09,203.86l-30.38,32.32c-6.31,6.71-10,15.47-10.38,24.68l-0.47,11.22l-0.18,4.2
						c-3.45,0.24-7.53,0.38-11.91,0.38c-0.7,0-1.4,0-2.08-0.02l-1.63-4.92l-8.97-27.13c-5.38-16.25,0.66-34.11,14.8-43.77
						c9.51-6.5,15.32-16.65,16.51-27.52c0.66-5.99-0.08-12.19-2.37-18.1l-20.1-51.76c-2.27-5.82,0.9-12.32,6.87-14.13
						c1.42-0.43,2.87-0.56,4.29-0.4c3.06,0.34,5.9,2,7.7,4.66l42.16,62.52C213.98,170.96,212.38,190.79,200.09,203.86"/>
				</g>
			</g>
		</g>
		<path class="st30" d="M258.38,455.11l-1.59,5.86c-3.33,12.26-12.2,21.83-23.44,26.35c-1.22,0.49-2.46,0.92-3.73,1.29
			c-3.74,1.08-7.67,1.63-11.73,1.55c-9.4-0.17-17.48-4.46-24.86-9.39c-4.12-2.76-7.95-9.37-8.34-9.82
			c-4.37-5.14-3.68-6.17-4.98-13.18l-0.77-4.2l1.79-0.5c6.54-1.88,13.16-3.22,19.82-4.01c0.34-0.05,0.68-0.09,1.02-0.13
			c10.41-1.16,20.9-1,31.28,0.48c0.46,0.06,0.91,0.13,1.36,0.19c0.55,0.08,1.09,0.17,1.63,0.26c0.01,0,0.02,0,0.03,0.01
			c3.34,0.55,6.66,1.25,9.98,2.08L258.38,455.11z"/>
		<path class="st38" d="M234.08,449.1l0.06-18.91l-6.72,0.16l-21.06-0.43l-4.04,18.94c0,0-0.92,0.1-1.39,0.16
			c0,0,0.01,0.01,0.01,0.01l-2.39,0.29c0,0,3.07,10.02,22.79,9.46s19.68-8.91,19.68-8.91L234.08,449.1z"/>
		<g class="st42">
			<g>
				<defs>
					<rect id="SVGID_37_" x="198.55" y="429.92" width="42.46" height="28.88"/>
				</defs>
				<clipPath id="SVGID_38_">
					<use xlink:href="#SVGID_37_"  style="overflow:visible;"/>
				</clipPath>
				<g class="st43">
					<defs>
						<rect id="SVGID_39_" x="198.55" y="429.92" width="42.46" height="28.88"/>
					</defs>
					<clipPath id="SVGID_40_">
						<use xlink:href="#SVGID_39_"  style="overflow:visible;"/>
					</clipPath>
					<path class="st44" d="M234.08,449.1l0.06-18.91l-6.72,0.16l-21.06-0.43l-4.04,18.94c0,0-0.92,0.1-1.39,0.16
						c0,0,0.01,0.01,0.01,0.01l-2.39,0.29c0,0,3.07,10.02,22.79,9.46s19.68-8.91,19.68-8.91L234.08,449.1z"/>
				</g>
			</g>
		</g>
		<path class="st30" d="M187.13,452.86l4.04-23.21l-11.51-1.14l-10.38,22.97C165.6,465.5,187,474.35,187,474.35l19.43-12.98
			L187.13,452.86z"/>
		<polygon class="st12" points="154.18,365.24 184.13,372.45 259.79,372.45 289.74,365.24 		"/>
		<path class="st35" d="M239.71,410.93c4.16,11.71-1.96,24.58-13.67,28.73c-11.71,4.16-24.58-1.96-28.74-13.67
			c-4.16-11.71,1.96-24.58,13.67-28.74C222.68,393.1,235.55,399.22,239.71,410.93"/>
		<path class="st35" d="M226.99,396.15c0,0-15.54,11.25-29.51,6.63C197.47,402.78,209.26,389.53,226.99,396.15"/>
		<path class="st37" d="M250.34,474.35v11c-8.89,6.47-19.83,10.29-31.66,10.29s-22.78-3.82-31.67-10.29v-11
			c8.89,6.47,19.83,10.29,31.67,10.29S241.45,480.83,250.34,474.35"/>
		<path class="st30" d="M246.36,461.38l11.18-46.62l14.37,1.11l-3.27,29.89c-2.57,16.35-18.31,28.59-18.31,28.59L246.36,461.38z"/>
		<path class="st5" d="M510.8,484.01c0,3.17-2.57,5.73-5.73,5.73c-3.17,0-5.73-2.57-5.73-5.73s2.57-5.73,5.73-5.73
			C508.24,478.28,510.8,480.85,510.8,484.01"/>
		<path class="st35" d="M515.76,461.51c0,1.69-1.37,3.06-3.06,3.06c-1.69,0-3.06-1.37-3.06-3.06s1.37-3.06,3.06-3.06
			C514.38,458.44,515.76,459.81,515.76,461.51"/>
		<rect x="485.11" y="421.4" class="st4" width="7.82" height="7.82"/>
		<rect x="652.01" y="378.47" class="st4" width="7.82" height="7.82"/>
		<path class="st35" d="M424.25,406.71c-1.05-0.16-2.1-0.23-3.14-0.24c-1.03,0-2.08,0.08-3.14,0.24
			c-11.64,1.73-19.67,12.58-17.94,24.22c0.06,0.6,0.15,1.18,0.25,1.76c0.03,0.19,0.08,0.38,0.11,0.56c0.08,0.39,0.16,0.77,0.25,1.15
			c0.05,0.22,0.11,0.43,0.17,0.65c0.1,0.35,0.2,0.69,0.31,1.03c0.07,0.22,0.14,0.44,0.22,0.65c0.12,0.34,0.24,0.67,0.37,1
			c0.08,0.21,0.16,0.42,0.24,0.62c0.15,0.37,0.32,0.74,0.48,1.1c0.14,0.3,0.28,0.61,0.43,0.91c0.16,0.34,0.33,0.67,0.5,1
			c0.15,0.28,0.31,0.57,0.46,0.85c0.11,0.21,0.23,0.41,0.34,0.62c0.18,0.32,0.37,0.63,0.56,0.95c0.09,0.15,0.18,0.3,0.27,0.45
			c0.22,0.36,0.45,0.73,0.68,1.09c0.03,0.04,0.05,0.08,0.08,0.12c2.6,4.03,5.66,7.92,8.38,12.07c2.86,4.37,4.37,9.49,4.37,14.71v3.4
			c0,1.37,1.11,2.48,2.48,2.48c1.37,0,2.48-1.11,2.48-2.48v-3.08c0-5.18,1.49-10.25,4.3-14.6c5.76-8.94,13.32-16.58,14.4-27.02
			C443.92,419.29,435.89,408.45,424.25,406.71"/>
		<path class="st5" d="M421.11,421.12c4.2,0,7.61,3.41,7.61,7.61s-3.41,7.61-7.61,7.61c-4.2,0-7.61-3.4-7.61-7.61
			S416.91,421.12,421.11,421.12"/>
		<path class="st25" d="M1003.22,382.29l13.41-23.39c0,0-7.71-1.48-11.31,1.52c-2.24,1.87-10.71,13.56-23.46,17.02
			c-5.73,1.56-10.84,2.54-10.84,2.54l22.51,2.35L1003.22,382.29z"/>
		<path class="st4" d="M876.26,388.92c0.07,0.31,0.24,0.6,0.47,0.86c2.31,2.56,11.6,2.87,11.6,2.87h74.12
			c6.29,0,12.57-0.66,18.72-1.96l4.32-0.92l21.74-4.6v-2.97l-36.74-3.09c0,0-71.82,0.36-76.84,0.64c-5.52,0.31-7.12,1.58-10.85,3.4
			c-0.05,0.03-0.11,0.05-0.16,0.08c-1.05,0.51-2.04,1.04-2.91,1.59C877.48,386.25,875.99,387.72,876.26,388.92"/>
		<path class="st4" d="M876.74,389.78c2.31,2.56,11.6,2.88,11.6,2.88h74.12c6.29,0,12.57-0.66,18.72-1.96l4.32-0.92H876.74z"/>
		<path class="st25" d="M989.33,384.04l23.08-2.86h3.35l-11.98,3.35c-1.85,0.52-3.74,0.82-5.66,0.88
			C995.17,385.51,991.06,385.38,989.33,384.04"/>
		<polygon class="st4" points="984.96,382.33 992.17,382.38 998.35,373.72 995.71,373.72 		"/>
		<path class="st25" d="M935.06,388.51c0,0,7.16,1.95,13.06,3.26c4.06,0.9,8.3,0.34,11.99-1.58l3.39-1.76c0,0,23.62-3.56,28.7-6.09
			l-7.19-0.05L935.06,388.51z"/>
		<polygon class="st12" points="951.34,392.65 947.84,393.71 947.84,391.6 		"/>
		<path class="st12" d="M948.29,391.11v1.55v1.55c0,0-3.35,1.59-6.02,1.29v-2.84v-2.84C944.94,389.52,948.29,391.11,948.29,391.11"
			/>
		<path class="st12" d="M932.91,388.86v7.64c0,0,0.38,0.09,1.03,0.21c2.21,0.41,7.47,1.15,10.9-0.21v-7.64
			c-3.42-1.36-8.69-0.62-10.9-0.21C933.29,388.77,932.91,388.86,932.91,388.86"/>
	</g>
	<g>
		<defs>
			<path id="SVGID_41_" d="M472.69,267.79l80.88,140.09c25.24,43.71,71.87,70.63,122.34,70.63h93.12c8.98,0,17.28,4.79,21.77,12.57
				c25.24,43.71,71.87,70.63,122.34,70.63h132.47V345.85l-209.17,73.3c-54.08-93.66-154.02-151.36-262.17-151.36H472.69z"/>
		</defs>
		<clipPath id="SVGID_42_">
			<use xlink:href="#SVGID_41_"  style="overflow:visible;"/>
		</clipPath>
		<polygon class="st45" points="952.97,433.56 952.97,427.76 951.7,427.76 948.32,433.56 		"/>
		<polygon class="st45" points="952.97,433.56 952.97,427.76 951.7,427.76 948.32,433.56 		"/>
		<rect x="925.11" y="494.34" class="st46" width="27.86" height="71.33"/>
		<path class="st45" d="M952.97,511.64c-20.05,7.81-17.3,26.8-17.3,26.8h34.61C970.27,538.44,973.02,519.45,952.97,511.64"/>
		<path class="st45" d="M952.97,525.15c0,0-4.43,0-4.43,13.3"/>
		<path class="st45" d="M952.97,552.37c0,0-4.43,0-4.43,13.3"/>
		<rect x="876.15" y="507.98" class="st45" width="48.96" height="57.68"/>
		<path class="st47" d="M892.19,516.92h-6.33c-3.27,3.81-5.06,8.67-5.06,13.69v8.04h16.46v-8.04
			C897.25,525.59,895.46,520.73,892.19,516.92"/>
		<rect x="886.28" y="531.59" class="st45" width="5.49" height="8.44"/>
		<path class="st47" d="M916.22,516.92h-6.33c-3.27,3.81-5.06,8.67-5.06,13.69v8.04h16.46v-8.04
			C921.28,525.59,919.48,520.73,916.22,516.92"/>
		<rect x="910.31" y="531.59" class="st45" width="5.49" height="8.44"/>
		<path class="st47" d="M892.19,543.93h-6.33c-3.27,3.81-5.06,8.67-5.06,13.69v8.04h16.46v-8.04
			C897.25,552.6,895.46,547.74,892.19,543.93"/>
		<rect x="886.28" y="558.6" class="st45" width="5.49" height="8.44"/>
		<path class="st47" d="M916.22,543.93h-6.33c-3.27,3.81-5.06,8.67-5.06,13.69v8.04h16.46v-8.04
			C921.28,552.6,919.48,547.74,916.22,543.93"/>
		<rect x="910.31" y="558.6" class="st45" width="5.49" height="8.44"/>
		<rect x="876.15" y="500.39" class="st45" width="2.81" height="7.6"/>
		<path class="st45" d="M913.05,487.16c0,0-7.42,1.13-8.23,10.97h8.23h8.23C920.47,488.29,913.05,487.16,913.05,487.16"/>
		<polygon class="st46" points="913.05,498.14 904.82,498.14 904.82,507.98 913.05,507.98 921.28,507.98 921.28,498.14 		"/>
		<polygon class="st45" points="952.97,433.56 952.97,427.76 954.23,427.76 957.61,433.56 		"/>
		<path class="st45" d="M957.61,433.56h-4.64h-4.64c-49.38,27.86-23.21,60.78-23.21,60.78h27.86h27.86
			C980.82,494.34,1006.99,461.42,957.61,433.56"/>
		<path class="st46" d="M980.82,494.34h-9.78c0,0,26.08-32.81-22.97-60.64c0.08-0.05,0.16-0.1,0.24-0.14h9.28
			C1006.99,461.42,980.82,494.34,980.82,494.34"/>
		<polygon class="st45" points="952.97,433.56 952.97,427.76 954.23,427.76 957.61,433.56 		"/>
		<rect x="952.97" y="494.34" class="st46" width="27.86" height="71.33"/>
		<path class="st45" d="M952.97,525.15c0,0,4.43,0,4.43,13.3"/>
		<path class="st45" d="M952.97,552.37c0,0,4.43,0,4.43,13.3"/>
		<rect x="980.82" y="507.98" class="st45" width="48.96" height="57.68"/>
		<path class="st47" d="M1013.74,516.92h6.33c3.27,3.81,5.06,8.67,5.06,13.69v8.04h-16.46v-8.04
			C1008.68,525.59,1010.48,520.73,1013.74,516.92"/>
		<rect x="1014.17" y="531.59" class="st45" width="5.49" height="8.44"/>
		<path class="st47" d="M989.72,516.92h6.33c3.27,3.81,5.06,8.67,5.06,13.69v8.04h-16.46v-8.04
			C984.65,525.59,986.45,520.73,989.72,516.92"/>
		<rect x="990.14" y="531.59" class="st45" width="5.49" height="8.44"/>
		<path class="st47" d="M1013.74,543.93h6.33c3.27,3.81,5.06,8.67,5.06,13.69v8.04h-16.46v-8.04
			C1008.68,552.6,1010.48,547.74,1013.74,543.93"/>
		<rect x="1014.17" y="558.6" class="st45" width="5.49" height="8.44"/>
		<path class="st47" d="M989.72,543.93h6.33c3.27,3.81,5.06,8.67,5.06,13.69v8.04h-16.46v-8.04
			C984.65,552.6,986.45,547.74,989.72,543.93"/>
		<rect x="990.14" y="558.6" class="st45" width="5.49" height="8.44"/>
		<rect x="1026.97" y="500.39" class="st45" width="2.81" height="7.6"/>
		<path class="st45" d="M992.88,487.16c0,0,7.42,1.13,8.23,10.97h-8.23h-8.23C985.47,488.29,992.88,487.16,992.88,487.16"/>
		<polygon class="st47" points="992.88,498.14 1001.11,498.14 1001.11,507.98 992.88,507.98 984.65,507.98 984.65,498.14 		"/>
		<line class="st48" x1="952.97" y1="433.56" x2="952.97" y2="420.27"/>
		<polyline class="st47" points="986.35,463.95 919.59,463.95 919.59,463.95 		"/>
		<polyline class="st47" points="987.55,477.03 987.55,477.03 952.97,477.03 918.39,477.03 918.39,477.03 		"/>
		<path class="st47" d="M987.55,477.03h-69.16c-0.44-3.95-0.23-8.38,1.2-13.08h66.75C987.77,468.65,987.99,473.08,987.55,477.03"/>
		<rect x="849.98" y="565.46" class="st45" width="205.97" height="12.94"/>
		<polygon class="st47" points="952.97,511.64 935.57,511.64 935.57,565.67 952.97,565.67 970.36,565.67 970.36,511.64 		"/>
	</g>
	<g>
		<path class="st35" d="M241.52,446.5c-5.4-1.61-7.44,0.44-7.44,0.44c1.77-3.79,5.89-15.06,6.83-26.44l-16.14,7.26l0.47-11.53
			l-29.22,1.12c0,0-1.92,22.87,13.03,36.69c17.02,15.73,39.41-1.42,39.41-1.42S249.42,448.85,241.52,446.5"/>
		<path class="st36" d="M593.94,377.37H376.68c-21.73,0-35.3-23.52-24.44-42.33l47-81.41c12.16-21.06,31.96-36.64,55.29-43.51
			l30.78-9.06l30.78,9.06c23.33,6.87,43.13,22.44,55.29,43.51l47,81.41C629.25,353.85,615.67,377.37,593.94,377.37"/>
		<path class="st49" d="M429.51,377.37h-52.84c-21.72,0-35.3-23.52-24.44-42.34l26.42-45.76L429.51,377.37z"/>
		<path class="st49" d="M593.94,377.37h-60.78L588,282.4l30.39,52.63C629.25,353.85,615.67,377.37,593.94,377.37"/>
		<path class="st38" d="M520.04,194.6l-0.94,10.3c-15.92-2.01-22.97-13.6-23.2-13.99c5.63,2.92,14.85,3.2,22.28,2.82L520.04,194.6z"
			/>
		<rect x="321.97" y="376.89" class="st4" width="291.24" height="9.56"/>
		<path class="st25" d="M573.59,377.03H390.12c-2.32,0-4.32-1.63-4.8-3.9l-18.03-85.28c-0.65-3.06,1.68-5.95,4.8-5.95h183.46
			c2.32,0,4.32,1.63,4.8,3.9l18.04,85.28C579.04,374.15,576.71,377.03,573.59,377.03"/>
		<path class="st4" d="M579.38,377.03H395.91c-2.32,0-4.32-1.63-4.8-3.9l-18.03-85.28c-0.65-3.06,1.68-5.95,4.8-5.95h183.46
			c2.32,0,4.32,1.63,4.8,3.9l18.04,85.28C584.83,374.15,582.5,377.03,579.38,377.03"/>
		<path class="st50" d="M483.35,159.26c1.14,4.73-0.27,9.13-3.14,9.82c-2.87,0.69-6.11-2.59-7.25-7.33
			c-1.13-4.73,0.27-9.13,3.14-9.81C478.97,151.24,482.22,154.52,483.35,159.26"/>
		<path class="st49" d="M520.04,194.6l-0.94,10.3l-1.68,18.37c-0.15,1.57-0.63,3.08-1.39,4.43c-0.76,1.34-1.82,2.51-3.11,3.42
			c-6.15,4.31-13.92,6.87-22.37,6.87c-7.06,0-13.64-1.79-19.21-4.89c-4.68-2.61-6.68-8.29-4.79-13.31
			c5.3-14.05,16.13-42.66,16.13-42.66l33.81,15.81l1.68,0.79L520.04,194.6z"/>
		<g class="st42">
			<g>
				<defs>
					<rect id="SVGID_43_" x="495.9" y="190.91" width="24.14" height="13.98"/>
				</defs>
				<clipPath id="SVGID_44_">
					<use xlink:href="#SVGID_43_"  style="overflow:visible;"/>
				</clipPath>
				<g class="st51">
					<defs>
						<rect id="SVGID_45_" x="495.9" y="190.91" width="24.14" height="13.99"/>
					</defs>
					<clipPath id="SVGID_46_">
						<use xlink:href="#SVGID_45_"  style="overflow:visible;"/>
					</clipPath>
					<path class="st52" d="M520.04,194.6l-0.94,10.3c-15.92-2.01-22.97-13.6-23.2-13.99c5.63,2.92,14.85,3.2,22.28,2.82
						L520.04,194.6z"/>
				</g>
			</g>
		</g>
		<path class="st49" d="M490.87,112.38l21.14,8.17l14.56,23.02c5.06,8,8.24,17.04,9.31,26.44l1,8.79c0.28,2.42,0.02,4.91-0.96,7.15
			c-1.2,2.75-3.27,5.08-5.97,6.58l-3.48,1.94c-5.36,2.98-11.51,4.23-17.61,3.58l-34.28-3.65l-14.3-64.3L490.87,112.38z"/>
		<polygon class="st49" points="528.02,154.97 534.59,149.14 512.01,120.55 497.11,130.37 		"/>
		<path class="st53" d="M495.75,108.63c-1.42-0.61-2.87-1.16-4.35-1.62c-9.84-3.1-20.77-2.8-30.98,1.59
			c-9.1,3.92-16.23,10.52-20.87,18.48l-0.01,0c0,0-0.06,0.11-0.17,0.3c-0.1,0.18-0.2,0.35-0.3,0.52
			c-2.78,4.78-18.45,29.72-53.66,50.65c-16.98,10.09-26.6,25.94-26.6,43.07c0,2.6,0.21,5.2,0.62,7.77v0.01c0.01,0,0.01,0,0.01,0.01
			c2.18,13.62,10.16,26.46,24.03,34.2c4.72,2.64,9.83,3.89,14.88,3.89c10.58,0,20.85-5.49,26.5-15.29l8.47-14.67
			c13.33-20.19,26.44-27.84,32.44-30.48c1.53-0.67,3.13-1.14,4.76-1.49c3.84-0.84,5.2-2.5,5.2-2.5l0,0
			c9.66-7.62,7.41-32.01,4.9-47.15l15.28-26.47c6.62-0.58,12.75-4.41,16.03-10.59l4.61-8.67
			C516.57,110.18,506.37,107.45,495.75,108.63"/>
		<path class="st49" d="M483.35,159.26c1.14,4.73-0.27,9.13-3.14,9.82c-2.87,0.69-6.11-2.59-7.25-7.33
			c-1.13-4.73,0.27-9.13,3.14-9.81C478.97,151.24,482.22,154.52,483.35,159.26"/>
		<g class="st42">
			<g>
				<defs>
					<rect id="SVGID_47_" x="518.23" y="136.77" width="12.9" height="15.83"/>
				</defs>
				<clipPath id="SVGID_48_">
					<use xlink:href="#SVGID_47_"  style="overflow:visible;"/>
				</clipPath>
				<g class="st54">
					<defs>
						<rect id="SVGID_49_" x="518.23" y="136.77" width="12.89" height="15.83"/>
					</defs>
					<clipPath id="SVGID_50_">
						<use xlink:href="#SVGID_49_"  style="overflow:visible;"/>
					</clipPath>
					<path class="st55" d="M531.13,152.21l-12.89-15.44C518.23,136.77,520.2,155.51,531.13,152.21"/>
				</g>
			</g>
		</g>
	</g>
</g>
</svg>
